
<svg xmlns="http://www.w3.org/2000/svg" width="800" height="100" viewBox="0 0 800 100">
  <defs>
    <radialGradient id="bg" cx="50%" cy="0%" r="100%">
      <stop offset="0%" stop-color="#140628" />
      <stop offset="100%" stop-color="#030108" />
    </radialGradient>
    <style>
      @keyframes twinkle {
        0% { opacity: 0.1; transform: scale(0.8); }
        100% { opacity: 1; transform: scale(1.5); }
      }
      @keyframes drift {
        from { transform: translateX(0); }
        to { transform: translateX(-800px); }
      }
    </style>
    <filter id="nebula-blur">
      <feGaussianBlur stdDeviation="20" />
    </filter>
  </defs>
  
  <rect width="800" height="100" fill="url(#bg)" />
  
  <circle cx="50%" cy="10%" r="50" fill="#00f0ff" filter="url(#nebula-blur)" opacity="0.3" />
  
  <circle cx="127.81484980073844" cy="30.182847492127852" r="1.877530436076746" fill="#ffffff" style="animation: twinkle 2.3820344054101743s 1.6411667744507386s infinite alternate;" />
<circle cx="27.863930334685794" cy="54.73908951151763" r="0.8450720446548615" fill="#ffffff" style="animation: twinkle 3.4835106755080787s 3.8611563748149442s infinite alternate;" />
<circle cx="705.9425903949285" cy="73.50314739305716" r="0.5815184676149823" fill="#ffffff" style="animation: twinkle 3.148673147326149s 2.5977922714360306s infinite alternate;" />
<circle cx="140.915659843186" cy="31.909395690838938" r="0.7968099066057104" fill="#ffffff" style="animation: twinkle 2.932355214642774s 1.8378145924304108s infinite alternate;" />
<circle cx="795.8280500915249" cy="83.8403869195403" r="1.7649807333300436" fill="#ffffff" style="animation: twinkle 3.302543245617054s 1.8226911780957917s infinite alternate;" />
<circle cx="751.767231111818" cy="18.027146978547236" r="0.6849531092330019" fill="#ffffff" style="animation: twinkle 2.8198598061096307s 2.332904503630171s infinite alternate;" />
<circle cx="274.2009539991574" cy="41.58588015655433" r="1.2460484373817833" fill="#ffffff" style="animation: twinkle 4.426368391517154s 2.26771734943683s infinite alternate;" />
<circle cx="413.3987662822764" cy="72.94138604766799" r="0.8950732035692701" fill="#ffffff" style="animation: twinkle 3.2999846795328622s 2.7567913870957392s infinite alternate;" />
<circle cx="106.77650044686872" cy="84.87532835033242" r="0.5925639192298542" fill="#ffffff" style="animation: twinkle 3.1838918512018504s 4.52973615705147s infinite alternate;" />
<circle cx="401.6848573008932" cy="21.57225397920709" r="1.0729750700840395" fill="#ffffff" style="animation: twinkle 2.6339010545160373s 2.6259403315150385s infinite alternate;" />
<circle cx="151.86886824121322" cy="90.74497142578522" r="0.994714418001112" fill="#ffffff" style="animation: twinkle 4.010745064005347s 1.4505642428816818s infinite alternate;" />
<circle cx="780.5491537195306" cy="97.19174702701075" r="1.96034335545035" fill="#ffffff" style="animation: twinkle 2.2430569839331755s 2.415440963517333s infinite alternate;" />
<circle cx="779.5033061511132" cy="10.60351091003554" r="0.9630375523081942" fill="#ffffff" style="animation: twinkle 4.343982231933092s 4.239881367463087s infinite alternate;" />
<circle cx="65.10200715389986" cy="4.850814525584801" r="1.1630512617458046" fill="#ffffff" style="animation: twinkle 4.265717223984306s 1.1588187657503557s infinite alternate;" />
<circle cx="680.096353454456" cy="71.073170612482" r="1.5945974895343515" fill="#ffffff" style="animation: twinkle 2.5035458843171963s 0.8638764243206154s infinite alternate;" />
<circle cx="175.43468161266117" cy="11.36626078574361" r="0.8236058480160149" fill="#ffffff" style="animation: twinkle 4.7619732155288865s 0.04516849398376099s infinite alternate;" />
<circle cx="73.82526341756855" cy="32.93501923322921" r="1.1437471830779664" fill="#ffffff" style="animation: twinkle 3.0231823257193278s 0.6127507398433213s infinite alternate;" />
<circle cx="267.32512623394837" cy="55.10488226228467" r="1.4459256189295258" fill="#ffffff" style="animation: twinkle 4.2531693272836915s 2.3025175032858862s infinite alternate;" />
<circle cx="647.7673034881294" cy="35.278205073666236" r="1.7182477751685548" fill="#ffffff" style="animation: twinkle 3.6571561072427716s 0.3513839942025482s infinite alternate;" />
<circle cx="333.3250009414551" cy="6.852626348387048" r="1.0128650381055144" fill="#ffffff" style="animation: twinkle 3.7831647100014334s 0.7300492455874652s infinite alternate;" />
<circle cx="298.6123929836613" cy="63.90802134940338" r="0.5909553083357663" fill="#ffffff" style="animation: twinkle 2.874964717183669s 4.565786881975088s infinite alternate;" />
<circle cx="220.21454762855078" cy="0.6704336689800194" r="1.8187544915034992" fill="#ffffff" style="animation: twinkle 3.8098972326413763s 0.24430985595603583s infinite alternate;" />
<circle cx="396.9326890874738" cy="10.996937441079812" r="1.2526026167865159" fill="#ffffff" style="animation: twinkle 3.571938689326989s 0.6637410765393265s infinite alternate;" />
<circle cx="162.1151522622643" cy="32.98954822669364" r="1.6806475549830084" fill="#ffffff" style="animation: twinkle 3.2094743600979223s 3.7522902271761382s infinite alternate;" />
<circle cx="358.31354465627925" cy="14.678647371979824" r="1.4257028923198027" fill="#ffffff" style="animation: twinkle 3.63866763536199s 4.25729893517453s infinite alternate;" />
<circle cx="275.203041075943" cy="41.08242666956203" r="1.6489810867990617" fill="#ffffff" style="animation: twinkle 4.0903862736844s 4.263431708000413s infinite alternate;" />
<circle cx="291.9865806692081" cy="6.382024257680541" r="1.0575298793554335" fill="#ffffff" style="animation: twinkle 2.2727610023812512s 1.3024407948172163s infinite alternate;" />
<circle cx="308.5900512848443" cy="78.39829611077526" r="1.5944677112465158" fill="#ffffff" style="animation: twinkle 3.8974319027971185s 0.20047303295663066s infinite alternate;" />
<circle cx="277.5731993769437" cy="30.655821750797173" r="1.0837097390657158" fill="#ffffff" style="animation: twinkle 2.3181469055303507s 1.2789913560832993s infinite alternate;" />
<circle cx="718.4012173656412" cy="4.860448218144375" r="0.6743518032556649" fill="#ffffff" style="animation: twinkle 2.6381206617879993s 2.998397071389851s infinite alternate;" />
<circle cx="267.6424005337506" cy="75.34700200011326" r="0.536154492359824" fill="#ffffff" style="animation: twinkle 3.7922406883102866s 3.4374781912550327s infinite alternate;" />
<circle cx="205.79170839301915" cy="58.46506713454187" r="1.7982678482463164" fill="#ffffff" style="animation: twinkle 4.615681738059404s 1.3072961821240163s infinite alternate;" />
<circle cx="444.4448545141109" cy="38.34641217945346" r="1.2883206158378882" fill="#ffffff" style="animation: twinkle 3.161017527507304s 3.357911294554809s infinite alternate;" />
<circle cx="232.39626982760555" cy="80.26696314134576" r="0.9178845438648606" fill="#ffffff" style="animation: twinkle 3.2133018860215934s 4.233561947258121s infinite alternate;" />
<circle cx="193.07656381619108" cy="79.82872231451591" r="1.6310680848180115" fill="#ffffff" style="animation: twinkle 4.638522963608757s 4.10691849672412s infinite alternate;" />
<circle cx="723.2231930119409" cy="43.15528162754099" r="0.9773303589688532" fill="#ffffff" style="animation: twinkle 3.943567307123256s 4.431795994502724s infinite alternate;" />
<circle cx="621.5271479714667" cy="24.621359828877743" r="1.6222343340424792" fill="#ffffff" style="animation: twinkle 2.9921199553253786s 3.0827916351559415s infinite alternate;" />
<circle cx="663.3187402920286" cy="57.935191165969066" r="1.011621014628752" fill="#ffffff" style="animation: twinkle 3.021620168648109s 0.20096766132176924s infinite alternate;" />
<circle cx="302.3701897439954" cy="45.97900222786323" r="1.8299184382628835" fill="#ffffff" style="animation: twinkle 4.13179720533701s 1.5788202164587328s infinite alternate;" />
<circle cx="135.13734862532755" cy="41.23841483486722" r="1.6403244437147417" fill="#ffffff" style="animation: twinkle 2.4797148157179882s 0.9890601636659258s infinite alternate;" />
<circle cx="473.44003237731556" cy="89.56668796699996" r="0.6015392352161373" fill="#ffffff" style="animation: twinkle 3.925062115345855s 2.013423135335051s infinite alternate;" />
<circle cx="761.2230482581065" cy="98.39567747954396" r="1.6428557863687416" fill="#ffffff" style="animation: twinkle 2.602213910506572s 4.142445877655209s infinite alternate;" />
<circle cx="398.03567833029706" cy="82.80880003025023" r="0.936732631762293" fill="#ffffff" style="animation: twinkle 3.7718911537551776s 0.49454122817171764s infinite alternate;" />
<circle cx="763.8967015135529" cy="37.28564065865114" r="1.9123885664526945" fill="#ffffff" style="animation: twinkle 2.5154908367958213s 0.015682984835001523s infinite alternate;" />
<circle cx="746.6162464963812" cy="53.71221660596467" r="1.2646539625113742" fill="#ffffff" style="animation: twinkle 2.2424805706267676s 1.3919760572391626s infinite alternate;" />
<circle cx="536.4274950202525" cy="37.52328004160026" r="0.5916859088542954" fill="#ffffff" style="animation: twinkle 4.40178673028654s 3.5660075239044997s infinite alternate;" />
<circle cx="102.28446530610951" cy="56.31701333394157" r="0.6602542408173888" fill="#ffffff" style="animation: twinkle 4.378654628828484s 3.655997031290228s infinite alternate;" />
<circle cx="198.72048432364943" cy="95.99698785118771" r="0.5442453272556314" fill="#ffffff" style="animation: twinkle 3.562155133443066s 4.28356061017016s infinite alternate;" />
<circle cx="263.1359138184498" cy="99.72037292045735" r="1.0457647971419435" fill="#ffffff" style="animation: twinkle 4.213785259493243s 4.359674745602305s infinite alternate;" />
<circle cx="127.86801278855258" cy="11.880773790556953" r="0.6865163734194146" fill="#ffffff" style="animation: twinkle 3.2138682473918707s 4.240558651826524s infinite alternate;" />

  
      <g style="animation: drift 80s linear infinite;">
         <circle cx="1582.1665314414436" cy="32.14982491866265" r="0.9772705569802295" fill="#ffffff" opacity="0.3" />
<circle cx="1039.1397111873953" cy="23.113639124236705" r="1.4071395548906014" fill="#ff007f" opacity="0.3" />
<circle cx="780.1385982098572" cy="12.02109892083072" r="1.4000382999218939" fill="#00f0ff" opacity="0.3" />
<circle cx="1414.3784502781407" cy="51.96268803009432" r="1.055426583001676" fill="#ff007f" opacity="0.3" />
<circle cx="1592.4038168445013" cy="57.67914678594995" r="1.5938904731823933" fill="#ff007f" opacity="0.3" />
<circle cx="894.5066178584865" cy="92.35074265339385" r="1.268313596577137" fill="#00f0ff" opacity="0.3" />
<circle cx="659.8675905983974" cy="53.83563885399384" r="0.7839906942912523" fill="#d400ff" opacity="0.3" />
<circle cx="380.2514943352728" cy="78.55993594949025" r="1.1022095988290967" fill="#ffffff" opacity="0.3" />
<circle cx="507.5857055598771" cy="69.87024265857984" r="1.5966282978637474" fill="#00f0ff" opacity="0.3" />
<circle cx="154.4936488533672" cy="84.27972204658931" r="1.3294781756480916" fill="#ff007f" opacity="0.3" />
<circle cx="664.9485111350773" cy="73.6872705687579" r="1.0963681296620313" fill="#ffffff" opacity="0.3" />
<circle cx="1255.3336545553427" cy="10.558269260306496" r="1.230101734108747" fill="#ff007f" opacity="0.3" />
<circle cx="982.3063932422975" cy="59.66487764118214" r="1.4203292896935693" fill="#ffffff" opacity="0.3" />
<circle cx="114.69553215482816" cy="67.85668837107546" r="1.597697025781574" fill="#ff007f" opacity="0.3" />
<circle cx="888.233368815333" cy="29.6106965431535" r="1.2945658270793832" fill="#d400ff" opacity="0.3" />
<circle cx="649.2778965748574" cy="82.40949483747981" r="0.7985997593778524" fill="#d400ff" opacity="0.3" />
<circle cx="128.5285830768654" cy="66.03239084739569" r="1.4761681755252893" fill="#ff007f" opacity="0.3" />
<circle cx="819.3456535527396" cy="58.758133954922464" r="1.1862957850998743" fill="#ff007f" opacity="0.3" />
<circle cx="1483.6421933171393" cy="51.78598058413814" r="0.9052287287150839" fill="#00f0ff" opacity="0.3" />
<circle cx="954.899324738894" cy="17.684006003473307" r="1.176084751155337" fill="#ffffff" opacity="0.3" />
<circle cx="1114.2124782818546" cy="61.427408627870236" r="1.3732232711111338" fill="#ff007f" opacity="0.3" />
<circle cx="959.0791313131219" cy="75.05317693981273" r="1.5070802561027303" fill="#ff007f" opacity="0.3" />
<circle cx="963.1341577517433" cy="29.97178382580077" r="0.6622068463400589" fill="#ffffff" opacity="0.3" />
<circle cx="482.3609189181779" cy="75.57466797110361" r="1.230227825145595" fill="#ff007f" opacity="0.3" />
<circle cx="1036.300374660065" cy="10.186353016417515" r="1.3021911200717207" fill="#ffffff" opacity="0.3" />
<circle cx="824.104507320132" cy="13.139243072178019" r="1.4426217389349159" fill="#d400ff" opacity="0.3" />
<circle cx="649.4940473755757" cy="17.232747482565692" r="0.6448723139889219" fill="#d400ff" opacity="0.3" />
<circle cx="300.06102125678495" cy="60.18686872864966" r="1.3063173198967846" fill="#ffffff" opacity="0.3" />
<circle cx="191.30317898282385" cy="4.736544406737475" r="0.6613004104425846" fill="#00f0ff" opacity="0.3" />
<circle cx="1074.151195920487" cy="31.828791495607767" r="1.472648375930948" fill="#00f0ff" opacity="0.3" />
<circle cx="149.33195994468403" cy="87.0141093831732" r="1.3667480769683602" fill="#00f0ff" opacity="0.3" />
<circle cx="19.24983916781411" cy="94.53003022073904" r="1.0827322408080207" fill="#00f0ff" opacity="0.3" />
<circle cx="192.8709103789206" cy="29.54070837759315" r="0.6337026556456152" fill="#d400ff" opacity="0.3" />
<circle cx="744.9050095141805" cy="18.578656979665176" r="1.2555874345145148" fill="#ffffff" opacity="0.3" />
<circle cx="1038.3190592205738" cy="96.37024904602876" r="0.7636260121448752" fill="#00f0ff" opacity="0.3" />
<circle cx="377.0899764028654" cy="51.23486314511443" r="0.6378104107539033" fill="#d400ff" opacity="0.3" />
<circle cx="1415.3074325757152" cy="58.50081595064491" r="0.7993577800326501" fill="#00f0ff" opacity="0.3" />
<circle cx="40.74124502126644" cy="83.88294656063891" r="1.2514418679249235" fill="#d400ff" opacity="0.3" />
<circle cx="860.6698590770238" cy="10.200017258333204" r="1.1044944372773624" fill="#ffffff" opacity="0.3" />
<circle cx="744.4305189182836" cy="81.60602677534833" r="1.4704039422447466" fill="#d400ff" opacity="0.3" />
<circle cx="1499.5326851999048" cy="71.10719105317605" r="1.4739165693346465" fill="#ffffff" opacity="0.3" />
<circle cx="593.8859249203117" cy="68.3209159427023" r="0.794866269830326" fill="#d400ff" opacity="0.3" />
<circle cx="1106.217441766915" cy="71.35938156150131" r="1.060783535449685" fill="#d400ff" opacity="0.3" />
<circle cx="564.9831562429858" cy="85.18942948505409" r="0.7415048410597286" fill="#d400ff" opacity="0.3" />
<circle cx="69.44960764567352" cy="81.38973718133471" r="0.8395340083554038" fill="#ffffff" opacity="0.3" />
<circle cx="438.11650728088017" cy="69.97482517620955" r="0.9308050192793738" fill="#ff007f" opacity="0.3" />
<circle cx="677.0434529141875" cy="83.21001630861802" r="0.6717072091284534" fill="#ff007f" opacity="0.3" />
<circle cx="44.222740838908514" cy="67.63567000120074" r="1.498036993959059" fill="#ffffff" opacity="0.3" />
<circle cx="1533.366798673649" cy="32.22462723742342" r="0.8568781259080817" fill="#ffffff" opacity="0.3" />
<circle cx="1355.90277641955" cy="56.21357272841255" r="1.4676402014760295" fill="#ffffff" opacity="0.3" />
<circle cx="96.985779784141" cy="51.482851235403004" r="1.4953339352657993" fill="#d400ff" opacity="0.3" />
<circle cx="1002.0808233152186" cy="79.83940432608794" r="0.9109795021207037" fill="#ff007f" opacity="0.3" />
<circle cx="1410.2750370477065" cy="49.47192470839907" r="1.2972592088840058" fill="#00f0ff" opacity="0.3" />
<circle cx="340.1102051437748" cy="27.226102807518306" r="1.0309824842728754" fill="#00f0ff" opacity="0.3" />
<circle cx="959.6156263916212" cy="95.32611412484117" r="1.1746636384213147" fill="#ff007f" opacity="0.3" />
<circle cx="281.3532293146512" cy="97.79807707743981" r="1.0102730445429489" fill="#ff007f" opacity="0.3" />
<circle cx="246.97531795908478" cy="77.28127654059573" r="0.9146988985890796" fill="#ff007f" opacity="0.3" />
<circle cx="974.9590860833582" cy="97.89680038967556" r="0.6213832129276814" fill="#ff007f" opacity="0.3" />
<circle cx="825.0518867024825" cy="42.89800382967157" r="1.5574655428577904" fill="#ff007f" opacity="0.3" />
<circle cx="1430.7993996479381" cy="25.789323142230757" r="0.6518921220798302" fill="#ffffff" opacity="0.3" />
<circle cx="552.7865082655957" cy="9.82303919607691" r="0.6544309973348768" fill="#d400ff" opacity="0.3" />
<circle cx="1558.060485616984" cy="50.76959900292769" r="1.5686287116678932" fill="#00f0ff" opacity="0.3" />
<circle cx="648.2526684198854" cy="77.7302594050852" r="1.091194589521209" fill="#00f0ff" opacity="0.3" />
<circle cx="1551.181217795944" cy="66.28720982688286" r="1.4754239909366968" fill="#ff007f" opacity="0.3" />
<circle cx="642.7122149057539" cy="63.4473237259209" r="1.2196051063738698" fill="#00f0ff" opacity="0.3" />
<circle cx="264.85993447026567" cy="73.07490109848558" r="0.7346087097318482" fill="#ffffff" opacity="0.3" />
<circle cx="100.14306254201522" cy="86.89579904503984" r="1.5777093176864228" fill="#d400ff" opacity="0.3" />
<circle cx="124.96723764336028" cy="81.72199802464851" r="1.3403640147602172" fill="#00f0ff" opacity="0.3" />
<circle cx="196.13380840757824" cy="12.122170583055036" r="1.0919876445112584" fill="#00f0ff" opacity="0.3" />
<circle cx="897.4011838689423" cy="67.34867587575421" r="0.876880907414286" fill="#ff007f" opacity="0.3" />
<circle cx="17.84877726028622" cy="78.06311242284029" r="1.2312482825405502" fill="#00f0ff" opacity="0.3" />
<circle cx="945.1683643212135" cy="98.96637260065012" r="0.7212609360996123" fill="#00f0ff" opacity="0.3" />
<circle cx="923.5698424495723" cy="62.0470566142034" r="1.5438067658612988" fill="#ff007f" opacity="0.3" />
<circle cx="1493.134826031064" cy="14.676384789127484" r="1.488801236164925" fill="#00f0ff" opacity="0.3" />
<circle cx="54.270280721523534" cy="87.37281178615898" r="1.542366260214481" fill="#ffffff" opacity="0.3" />
<circle cx="1088.281331119103" cy="70.66049767792781" r="1.3144658175005148" fill="#ffffff" opacity="0.3" />
<circle cx="1416.186576891248" cy="26.970561795119828" r="1.004993146748209" fill="#d400ff" opacity="0.3" />
<circle cx="1395.6847067237113" cy="4.427981542611825" r="0.8909527562466814" fill="#ffffff" opacity="0.3" />
<circle cx="1558.1935328740503" cy="76.54061597432806" r="1.0222424433796364" fill="#00f0ff" opacity="0.3" />
<circle cx="1410.605221768946" cy="53.37455286916798" r="0.8525279716145916" fill="#ff007f" opacity="0.3" />
<circle cx="12.991891242029041" cy="23.617298246160324" r="0.880265626436767" fill="#d400ff" opacity="0.3" />
<circle cx="69.68890839179913" cy="13.8640754507382" r="0.7509360144703673" fill="#00f0ff" opacity="0.3" />
<circle cx="1204.958630851882" cy="10.837420668203656" r="0.9445133582119464" fill="#d400ff" opacity="0.3" />
<circle cx="1582.1453789815314" cy="22.338583893532316" r="0.9850986541343496" fill="#00f0ff" opacity="0.3" />
<circle cx="1251.9821205338899" cy="68.18283986652503" r="0.6578763969491674" fill="#ffffff" opacity="0.3" />
<circle cx="418.78821805566116" cy="62.85822323370023" r="0.8573701897783974" fill="#ffffff" opacity="0.3" />
<circle cx="186.11684636411584" cy="52.643663330465415" r="1.334911102395432" fill="#d400ff" opacity="0.3" />
<circle cx="1191.11461072527" cy="29.990351596166263" r="1.3962445288515073" fill="#d400ff" opacity="0.3" />
<circle cx="1284.7892748052413" cy="59.02767940169191" r="1.5312561400774278" fill="#ff007f" opacity="0.3" />
<circle cx="126.81985271922365" cy="21.344466332082458" r="1.0163675645718593" fill="#00f0ff" opacity="0.3" />
<circle cx="1194.2771327107132" cy="32.81491469145953" r="1.3091991149834865" fill="#ffffff" opacity="0.3" />
<circle cx="761.3248660736069" cy="90.93062527087245" r="1.3416482180623683" fill="#ffffff" opacity="0.3" />
<circle cx="891.5329371226056" cy="92.52142187137373" r="1.1062219965767865" fill="#ff007f" opacity="0.3" />
<circle cx="396.12924632366264" cy="29.061267602443706" r="1.5453945788586112" fill="#ffffff" opacity="0.3" />
<circle cx="1415.7627420486738" cy="44.21047759663149" r="0.9331079217289616" fill="#d400ff" opacity="0.3" />
<circle cx="466.8538926416144" cy="24.20908843474775" r="1.2795810287344522" fill="#d400ff" opacity="0.3" />
<circle cx="1497.1944100427845" cy="15.043010358334119" r="0.6983601585644906" fill="#00f0ff" opacity="0.3" />
<circle cx="1517.0310130367873" cy="98.36656359239748" r="0.7565077460708511" fill="#d400ff" opacity="0.3" />
<circle cx="262.7416547122195" cy="89.84813957446988" r="1.2101352349991275" fill="#ff007f" opacity="0.3" />
<circle cx="306.10088728816936" cy="28.6319127866408" r="0.8713853403919237" fill="#00f0ff" opacity="0.3" />
<circle cx="758.0516762724109" cy="46.6844185053956" r="1.2902960233817928" fill="#00f0ff" opacity="0.3" />
<circle cx="1407.2182126520868" cy="38.40670491976545" r="0.7696736403289757" fill="#ffffff" opacity="0.3" />
<circle cx="1533.2723518503772" cy="4.294393358054793" r="1.4660631338619128" fill="#ffffff" opacity="0.3" />
<circle cx="314.18416929873223" cy="17.598308133831907" r="1.1472588033024507" fill="#ffffff" opacity="0.3" />
<circle cx="202.06747157312392" cy="7.886542075479852" r="1.2439412314164637" fill="#d400ff" opacity="0.3" />
<circle cx="1177.6769185597893" cy="45.496285887995626" r="0.8619091920092318" fill="#ff007f" opacity="0.3" />
<circle cx="632.8232888383352" cy="14.340436048736704" r="0.9461600660439646" fill="#00f0ff" opacity="0.3" />
<circle cx="1369.916691928074" cy="69.86519364316042" r="1.3786153176101774" fill="#ff007f" opacity="0.3" />
<circle cx="669.1309316151735" cy="79.16338593819505" r="0.8636246545510604" fill="#00f0ff" opacity="0.3" />
<circle cx="534.2400450188891" cy="75.28220348641403" r="0.7740220455948719" fill="#ff007f" opacity="0.3" />
<circle cx="1487.7667113810385" cy="76.9816486359315" r="1.0207248988912576" fill="#00f0ff" opacity="0.3" />
<circle cx="571.0339313168599" cy="59.11702645729348" r="0.6270458212607728" fill="#d400ff" opacity="0.3" />
<circle cx="150.2248699897679" cy="6.499324793404149" r="0.9338158567760328" fill="#00f0ff" opacity="0.3" />
<circle cx="194.51008307444386" cy="57.09715790074073" r="0.6108966305820827" fill="#ff007f" opacity="0.3" />
<circle cx="1356.2733440783725" cy="88.93652570027596" r="0.6715578985328234" fill="#d400ff" opacity="0.3" />
<circle cx="806.8646334592092" cy="18.664542516973516" r="1.1128452990162576" fill="#00f0ff" opacity="0.3" />
<circle cx="927.6643243083918" cy="6.322544243620031" r="1.0363732244615789" fill="#ffffff" opacity="0.3" />
<circle cx="198.83408702488765" cy="93.1730838106555" r="1.5626617464904229" fill="#00f0ff" opacity="0.3" />
<circle cx="1447.867103080043" cy="35.894701985739374" r="1.157244324555761" fill="#00f0ff" opacity="0.3" />
<circle cx="1260.2666879366795" cy="23.802539008206125" r="0.8498605003295064" fill="#d400ff" opacity="0.3" />
<circle cx="930.4266524475038" cy="47.45768378857801" r="1.0827664597932782" fill="#d400ff" opacity="0.3" />
<circle cx="1257.798283482766" cy="85.94426892150032" r="0.8703872099574999" fill="#d400ff" opacity="0.3" />
<circle cx="505.8996091090803" cy="71.8236924922047" r="0.6152606837358006" fill="#00f0ff" opacity="0.3" />
<circle cx="1313.8234190194164" cy="22.727379166189397" r="0.6879093402070733" fill="#ff007f" opacity="0.3" />
<circle cx="957.6816917279077" cy="17.066050188967242" r="0.634404960585265" fill="#ffffff" opacity="0.3" />
<circle cx="1309.3866182782524" cy="72.31396846964624" r="1.5289831543832464" fill="#d400ff" opacity="0.3" />
<circle cx="1591.593724405733" cy="93.63473530520024" r="1.0495292166384989" fill="#d400ff" opacity="0.3" />
<circle cx="639.6962782062196" cy="49.745486628691815" r="1.09928169269724" fill="#ffffff" opacity="0.3" />
<circle cx="375.8106989233797" cy="62.45333578492643" r="1.5971049262718078" fill="#00f0ff" opacity="0.3" />
<circle cx="1371.4222760118164" cy="88.42114737487486" r="1.1903538084088194" fill="#d400ff" opacity="0.3" />
<circle cx="49.60640274898669" cy="29.62960853719666" r="1.017340177524295" fill="#00f0ff" opacity="0.3" />
<circle cx="746.790789255018" cy="94.6671831799093" r="0.9238417914882361" fill="#d400ff" opacity="0.3" />
<circle cx="1296.4773537677477" cy="85.76719898632402" r="1.159102250202238" fill="#d400ff" opacity="0.3" />
<circle cx="408.7705813423442" cy="84.95229842846447" r="0.9800340859830654" fill="#d400ff" opacity="0.3" />
<circle cx="275.33675261453203" cy="81.71012689437013" r="1.362424140262764" fill="#d400ff" opacity="0.3" />
<circle cx="606.530469440491" cy="24.767393431841445" r="1.3545886781306733" fill="#ff007f" opacity="0.3" />
<circle cx="874.0392247029265" cy="68.99178868833798" r="1.3856017287631155" fill="#d400ff" opacity="0.3" />
<circle cx="1056.6520004614244" cy="68.75136918373302" r="1.1050193780778996" fill="#d400ff" opacity="0.3" />
<circle cx="1122.9926657843869" cy="86.85587153566944" r="0.8977216400964848" fill="#ff007f" opacity="0.3" />
<circle cx="34.18498686741245" cy="20.20054716581299" r="1.267351080150245" fill="#ffffff" opacity="0.3" />
<circle cx="1160.2726329630027" cy="48.22373386523174" r="1.349845563031401" fill="#ffffff" opacity="0.3" />
<circle cx="513.0107724574625" cy="0.3066698113617483" r="1.2289377156030579" fill="#00f0ff" opacity="0.3" />
<circle cx="1283.536548596294" cy="76.75517187147214" r="1.3425999302521334" fill="#ffffff" opacity="0.3" />
<circle cx="442.5214628842891" cy="33.21902781979037" r="0.9644005426005118" fill="#ffffff" opacity="0.3" />
<circle cx="740.1863482993147" cy="66.83051315922671" r="1.46788880980313" fill="#ff007f" opacity="0.3" />
<circle cx="1278.8914916137567" cy="58.905373106403815" r="1.3805876273339908" fill="#ff007f" opacity="0.3" />
<circle cx="1205.268990805303" cy="98.47205376670978" r="1.3223170419032324" fill="#00f0ff" opacity="0.3" />
<circle cx="117.06866032249738" cy="58.330450844251025" r="1.4453215805619521" fill="#d400ff" opacity="0.3" />
<circle cx="517.6607025951414" cy="98.17124709919189" r="1.2379932215517182" fill="#ffffff" opacity="0.3" />
<circle cx="1312.707993441487" cy="32.36000005101464" r="1.3336265123763462" fill="#00f0ff" opacity="0.3" />

      </g>
    
      <g style="animation: drift 60s linear infinite;">
         <circle cx="1424.074179605152" cy="36.47324957261664" r="1.772571774976046" fill="#ff007f" opacity="0.6" />
<circle cx="1124.0056242143733" cy="58.69245080921686" r="1.9475697523755386" fill="#ff007f" opacity="0.6" />
<circle cx="776.8542016751474" cy="76.33198682821217" r="1.895029980878184" fill="#d400ff" opacity="0.6" />
<circle cx="1.2941841297557488" cy="16.26248176982622" r="1.2303682304564152" fill="#00f0ff" opacity="0.6" />
<circle cx="814.0321380217575" cy="47.409614096909266" r="1.2043501828294456" fill="#d400ff" opacity="0.6" />
<circle cx="1276.0628223352942" cy="96.87254173307716" r="1.4451537871230598" fill="#d400ff" opacity="0.6" />
<circle cx="693.8574876349685" cy="19.35469527818652" r="1.6871422211824172" fill="#ffffff" opacity="0.6" />
<circle cx="827.281562036721" cy="70.92662144529754" r="1.4301113657441027" fill="#d400ff" opacity="0.6" />
<circle cx="924.3088539196398" cy="76.11144331161312" r="2.0298265362764023" fill="#ffffff" opacity="0.6" />
<circle cx="468.9008073532312" cy="89.92034906586717" r="2.0412514302909255" fill="#d400ff" opacity="0.6" />
<circle cx="176.0837776990657" cy="3.214141850853902" r="2.146188676257282" fill="#d400ff" opacity="0.6" />
<circle cx="1477.5188022478183" cy="89.07459755879675" r="1.9713317633992866" fill="#ffffff" opacity="0.6" />
<circle cx="979.4560203866647" cy="70.28931490338472" r="1.7989457024604407" fill="#ff007f" opacity="0.6" />
<circle cx="145.35143787358518" cy="17.03469265637525" r="2.162016796047284" fill="#ffffff" opacity="0.6" />
<circle cx="1377.460720909594" cy="79.83406933656228" r="1.63144708800466" fill="#d400ff" opacity="0.6" />
<circle cx="1026.6300454412522" cy="22.590058591469976" r="1.7542711096106975" fill="#ff007f" opacity="0.6" />
<circle cx="1192.7091006905375" cy="53.66652850622341" r="2.100196649958007" fill="#00f0ff" opacity="0.6" />
<circle cx="1405.6520939886354" cy="1.8009500020984004" r="1.864986408445155" fill="#ff007f" opacity="0.6" />
<circle cx="1291.1220263508178" cy="25.619437676602086" r="1.489139600945232" fill="#ff007f" opacity="0.6" />
<circle cx="609.8283039765878" cy="75.09052848655693" r="1.334530009631099" fill="#ffffff" opacity="0.6" />
<circle cx="1113.504708614465" cy="55.3102761033479" r="1.2643283351215513" fill="#ffffff" opacity="0.6" />
<circle cx="595.5954246486938" cy="53.23971282737827" r="1.3270376404379012" fill="#ff007f" opacity="0.6" />
<circle cx="1459.2604167054305" cy="3.067879738358681" r="1.690654060257215" fill="#d400ff" opacity="0.6" />
<circle cx="422.53894522098426" cy="96.1666043623997" r="1.9755507767409077" fill="#00f0ff" opacity="0.6" />
<circle cx="177.65229672028403" cy="39.18403455179538" r="2.0383586028313774" fill="#d400ff" opacity="0.6" />
<circle cx="78.36344382391206" cy="34.42157131545272" r="1.3777711478444223" fill="#ff007f" opacity="0.6" />
<circle cx="1081.0051350099761" cy="82.04568383758858" r="1.3845806025596494" fill="#d400ff" opacity="0.6" />
<circle cx="1402.1957586152719" cy="91.11481752819152" r="1.7182657901712284" fill="#00f0ff" opacity="0.6" />
<circle cx="1155.1710626167128" cy="88.74539310869802" r="1.5195443200791392" fill="#00f0ff" opacity="0.6" />
<circle cx="888.3170191862234" cy="71.95731855153481" r="1.312947960847511" fill="#ff007f" opacity="0.6" />
<circle cx="1107.6672646400234" cy="76.7751494784289" r="1.6055252160795495" fill="#00f0ff" opacity="0.6" />
<circle cx="378.60950336393205" cy="15.21086023567495" r="1.5548395935022712" fill="#ffffff" opacity="0.6" />
<circle cx="680.8780694594788" cy="37.19453842610554" r="2.173919366758838" fill="#ffffff" opacity="0.6" />
<circle cx="479.3141623424699" cy="22.805576101908564" r="1.2967875039609837" fill="#00f0ff" opacity="0.6" />
<circle cx="362.1115630890507" cy="49.81130508512748" r="1.7419200420422387" fill="#00f0ff" opacity="0.6" />
<circle cx="449.6108531600607" cy="99.2845629989342" r="1.7489822874395167" fill="#d400ff" opacity="0.6" />
<circle cx="683.145913448654" cy="82.07183281853514" r="2.1053272421386504" fill="#ffffff" opacity="0.6" />
<circle cx="177.7158363428951" cy="24.47474099205118" r="1.7478225569076011" fill="#d400ff" opacity="0.6" />
<circle cx="844.3488769519042" cy="1.9822998970656536" r="1.758551555948526" fill="#d400ff" opacity="0.6" />
<circle cx="837.8000035960113" cy="10.492950218622143" r="1.3802746890877253" fill="#00f0ff" opacity="0.6" />
<circle cx="767.8806383772733" cy="51.82251483652448" r="1.5930104500216875" fill="#ffffff" opacity="0.6" />
<circle cx="983.166852365121" cy="80.26526543963219" r="1.6463963669023145" fill="#d400ff" opacity="0.6" />
<circle cx="1100.0396731474523" cy="84.89421212407717" r="1.8130490254819713" fill="#00f0ff" opacity="0.6" />
<circle cx="28.56784324466286" cy="64.68411680613512" r="2.1336949950151185" fill="#d400ff" opacity="0.6" />
<circle cx="518.8301715322607" cy="10.438461687355305" r="1.3247102424215256" fill="#ff007f" opacity="0.6" />
<circle cx="1454.2624364627447" cy="71.08930179108425" r="1.8849913532064009" fill="#ffffff" opacity="0.6" />
<circle cx="567.888045116811" cy="4.273278330133968" r="1.8900242420551683" fill="#ffffff" opacity="0.6" />
<circle cx="865.2315434266505" cy="91.36247033037556" r="1.9588172712371774" fill="#00f0ff" opacity="0.6" />
<circle cx="1090.913227665542" cy="55.40769598626064" r="1.991077365094969" fill="#ff007f" opacity="0.6" />
<circle cx="310.1880057980528" cy="52.16633318467291" r="1.225794827700919" fill="#ff007f" opacity="0.6" />
<circle cx="483.80829631696525" cy="62.7788834793504" r="1.365231559227138" fill="#d400ff" opacity="0.6" />
<circle cx="415.670346692475" cy="3.7826968675818917" r="2.141841331402391" fill="#ff007f" opacity="0.6" />
<circle cx="283.7563413336122" cy="13.233454646358723" r="1.6215534214980547" fill="#ff007f" opacity="0.6" />
<circle cx="1021.1853620654384" cy="90.47119337197141" r="2.191960254049972" fill="#d400ff" opacity="0.6" />
<circle cx="841.3968102146533" cy="61.92363357787427" r="1.240245303106195" fill="#ffffff" opacity="0.6" />
<circle cx="1312.189465574962" cy="58.32030143376458" r="1.4566111111353512" fill="#ff007f" opacity="0.6" />
<circle cx="1165.1331756572176" cy="87.45536742955056" r="1.7250352490145504" fill="#ffffff" opacity="0.6" />
<circle cx="947.8168786097342" cy="41.71768150820867" r="1.5117833969808576" fill="#ff007f" opacity="0.6" />
<circle cx="1135.9926859064976" cy="61.067420558771225" r="1.3091473337262922" fill="#00f0ff" opacity="0.6" />
<circle cx="958.3234438447369" cy="1.555201839460696" r="2.197269320248262" fill="#d400ff" opacity="0.6" />
<circle cx="218.96496097402735" cy="98.76424074882534" r="1.7902092795758398" fill="#ff007f" opacity="0.6" />
<circle cx="539.947592737979" cy="15.102551825676503" r="1.3100404769649674" fill="#ffffff" opacity="0.6" />
<circle cx="776.4905279802538" cy="30.53959783369646" r="1.289353816955951" fill="#ff007f" opacity="0.6" />
<circle cx="376.12697066364973" cy="40.310524568046056" r="1.4892429908173948" fill="#ff007f" opacity="0.6" />
<circle cx="1518.618229149459" cy="23.138956219067573" r="2.0100775511258577" fill="#00f0ff" opacity="0.6" />
<circle cx="417.71561487633323" cy="49.2471861991479" r="1.50044680096951" fill="#00f0ff" opacity="0.6" />
<circle cx="1431.7468630095882" cy="37.360154718088076" r="1.4978566842794558" fill="#d400ff" opacity="0.6" />
<circle cx="843.3193589534849" cy="49.13133396068623" r="1.425890965658283" fill="#d400ff" opacity="0.6" />
<circle cx="1073.6662676914714" cy="67.24274099029083" r="1.4034350875642059" fill="#00f0ff" opacity="0.6" />
<circle cx="177.95723811068206" cy="4.3637670085779785" r="1.4652494109745438" fill="#ffffff" opacity="0.6" />
<circle cx="1473.3647538407506" cy="63.766675866477904" r="1.8722141376616859" fill="#00f0ff" opacity="0.6" />
<circle cx="114.70466885804899" cy="40.920926101551544" r="1.8892108670065175" fill="#d400ff" opacity="0.6" />
<circle cx="375.1749715374487" cy="57.19256963559262" r="1.9552837651246842" fill="#00f0ff" opacity="0.6" />
<circle cx="796.5726467930217" cy="61.186284646862866" r="1.2466619618872432" fill="#d400ff" opacity="0.6" />
<circle cx="1309.7427776793988" cy="98.3867737909916" r="1.4112925184310425" fill="#ffffff" opacity="0.6" />
<circle cx="525.4149409731016" cy="88.72910334799346" r="1.8106168233750846" fill="#ff007f" opacity="0.6" />
<circle cx="1303.513102313688" cy="43.729212401502416" r="2.138032306438294" fill="#d400ff" opacity="0.6" />
<circle cx="1200.9070888411418" cy="67.78200416300938" r="1.4659039691548348" fill="#d400ff" opacity="0.6" />
<circle cx="1012.4584833803151" cy="77.31873615933" r="1.3439608637219527" fill="#00f0ff" opacity="0.6" />
<circle cx="894.8486287342215" cy="62.257257161507404" r="1.3907346400546516" fill="#ffffff" opacity="0.6" />
<circle cx="474.2355997741427" cy="88.4765806232376" r="2.094450104610383" fill="#00f0ff" opacity="0.6" />
<circle cx="1050.8917102938383" cy="11.604629085249362" r="1.6157217591952395" fill="#d400ff" opacity="0.6" />
<circle cx="1307.1593218936534" cy="12.699046626408583" r="1.2556142328342708" fill="#ff007f" opacity="0.6" />
<circle cx="1200.949545832252" cy="14.838843843552773" r="1.4911338430674412" fill="#ff007f" opacity="0.6" />
<circle cx="880.8731811877287" cy="9.149423227436682" r="1.7102210161297708" fill="#d400ff" opacity="0.6" />
<circle cx="1288.133361118841" cy="74.52709221701532" r="1.328066696275941" fill="#d400ff" opacity="0.6" />
<circle cx="677.4795023275693" cy="41.956721994308936" r="1.5874594439944854" fill="#ff007f" opacity="0.6" />
<circle cx="264.05103592039615" cy="16.65596574297642" r="1.6633431984139535" fill="#ff007f" opacity="0.6" />
<circle cx="918.1278992351956" cy="64.75205072837177" r="1.4451208875959738" fill="#d400ff" opacity="0.6" />
<circle cx="404.2517909181603" cy="73.85118170140174" r="1.6114917018282597" fill="#ffffff" opacity="0.6" />
<circle cx="553.0763672681126" cy="23.477343611931857" r="1.7811660218230903" fill="#d400ff" opacity="0.6" />
<circle cx="457.8989174061933" cy="50.020015597800096" r="1.3481325536205095" fill="#d400ff" opacity="0.6" />
<circle cx="722.5062441117759" cy="23.36396685034492" r="1.6375520014825184" fill="#00f0ff" opacity="0.6" />
<circle cx="126.37959306622494" cy="99.09008181729064" r="1.9627049883958088" fill="#ffffff" opacity="0.6" />
<circle cx="1073.772657982693" cy="49.06826282665542" r="1.8735351654869945" fill="#d400ff" opacity="0.6" />
<circle cx="409.1888605757502" cy="14.56306719926812" r="2.099721683185746" fill="#ffffff" opacity="0.6" />
<circle cx="1504.212396419116" cy="50.0845961578216" r="1.550167651310279" fill="#d400ff" opacity="0.6" />
<circle cx="1173.356841194107" cy="95.36409005822514" r="2.135949400080488" fill="#00f0ff" opacity="0.6" />
<circle cx="933.3591830597691" cy="12.907540752394276" r="1.9469891362843956" fill="#ffffff" opacity="0.6" />
<circle cx="449.66503350514006" cy="62.33425062331671" r="1.2911679040722488" fill="#00f0ff" opacity="0.6" />
<circle cx="1174.068621917065" cy="10.99686539074204" r="2.177702899701067" fill="#ffffff" opacity="0.6" />
<circle cx="480.5711144334504" cy="96.0646942522667" r="1.377493879791012" fill="#d400ff" opacity="0.6" />
<circle cx="8.02951611375775" cy="87.44445111139227" r="2.010515531307649" fill="#ffffff" opacity="0.6" />
<circle cx="1468.3223835792694" cy="75.96670407528205" r="2.1780713110031042" fill="#00f0ff" opacity="0.6" />
<circle cx="1508.200919206124" cy="0.5434105362354225" r="2.190498072342191" fill="#ffffff" opacity="0.6" />
<circle cx="1165.5603995867887" cy="2.813407239166288" r="1.7440026773377242" fill="#ff007f" opacity="0.6" />
<circle cx="1560.7886804731324" cy="67.5998557130095" r="1.6533347043803706" fill="#00f0ff" opacity="0.6" />
<circle cx="700.2991641006048" cy="19.1625743292409" r="1.7727740319622656" fill="#00f0ff" opacity="0.6" />
<circle cx="561.1338764311139" cy="2.3437503424747708" r="1.8790716583482716" fill="#00f0ff" opacity="0.6" />
<circle cx="1209.224136791791" cy="47.92041618763358" r="1.447641505997303" fill="#d400ff" opacity="0.6" />
<circle cx="793.0506180258917" cy="86.17495877664129" r="2.0047167567883615" fill="#00f0ff" opacity="0.6" />
<circle cx="1078.185856561484" cy="93.42130652549055" r="1.7402677999303777" fill="#d400ff" opacity="0.6" />
<circle cx="590.9496482242982" cy="31.369719536563746" r="1.3318532447369065" fill="#d400ff" opacity="0.6" />
<circle cx="1025.7011942569084" cy="67.20044365087801" r="2.1224794973622103" fill="#00f0ff" opacity="0.6" />
<circle cx="860.981179033433" cy="55.656664230095195" r="1.5735702448041389" fill="#ffffff" opacity="0.6" />
<circle cx="880.0056278811196" cy="12.660045539342125" r="1.5936501482457062" fill="#d400ff" opacity="0.6" />
<circle cx="143.63031823504926" cy="24.545310428001233" r="1.5898257370575508" fill="#ffffff" opacity="0.6" />
<circle cx="1272.0214342601923" cy="51.22210217369829" r="1.5356075423349802" fill="#d400ff" opacity="0.6" />
<circle cx="258.34841624335604" cy="86.7011453267413" r="1.978316760257859" fill="#d400ff" opacity="0.6" />
<circle cx="557.0503985248205" cy="70.58342803375336" r="2.1225122936640277" fill="#ffffff" opacity="0.6" />
<circle cx="964.2359722778817" cy="95.74898964404206" r="1.9916676578817665" fill="#ff007f" opacity="0.6" />
<circle cx="649.2160997942486" cy="67.24264009298217" r="1.7623463709167535" fill="#00f0ff" opacity="0.6" />
<circle cx="929.6511282371498" cy="28.061110085164344" r="1.6210778142497366" fill="#00f0ff" opacity="0.6" />
<circle cx="1299.7850370739725" cy="95.12736061155836" r="1.5479941363468837" fill="#ffffff" opacity="0.6" />
<circle cx="1559.0380903622836" cy="13.216625493465028" r="1.27551894148275" fill="#ff007f" opacity="0.6" />
<circle cx="1492.8227298164388" cy="21.130219580000965" r="1.6550718873253563" fill="#d400ff" opacity="0.6" />
<circle cx="1478.506368935911" cy="43.68922509000568" r="2.1322238480413898" fill="#d400ff" opacity="0.6" />
<circle cx="1353.7157047913358" cy="90.20984129840359" r="1.4739785277893949" fill="#ff007f" opacity="0.6" />
<circle cx="1438.7701050708395" cy="40.122522541560436" r="1.950384480044478" fill="#00f0ff" opacity="0.6" />
<circle cx="573.5482699097404" cy="64.38163090851337" r="1.4693705241556763" fill="#ff007f" opacity="0.6" />
<circle cx="913.7429079446893" cy="28.66577391296914" r="1.3848143283843788" fill="#ffffff" opacity="0.6" />
<circle cx="1442.7913578190985" cy="39.44797215768263" r="1.2142950422827155" fill="#ff007f" opacity="0.6" />
<circle cx="201.8359380107613" cy="77.83111775619943" r="2.1031740428223147" fill="#ff007f" opacity="0.6" />
<circle cx="1320.9593983198793" cy="7.4840594149515605" r="2.108840317677669" fill="#00f0ff" opacity="0.6" />
<circle cx="49.945549690944446" cy="95.57561399662852" r="1.2225439027794625" fill="#ff007f" opacity="0.6" />
<circle cx="1425.3445161537115" cy="18.046658216755983" r="1.4328772477933442" fill="#00f0ff" opacity="0.6" />
<circle cx="1125.997150402106" cy="2.7939891515053716" r="1.648780269327219" fill="#ffffff" opacity="0.6" />
<circle cx="391.6725983564442" cy="63.66108351756108" r="1.9515596580715076" fill="#ffffff" opacity="0.6" />
<circle cx="850.106298169198" cy="9.411055899795484" r="1.6738747968156673" fill="#00f0ff" opacity="0.6" />
<circle cx="229.8990491904256" cy="93.59534635751314" r="1.2973778757027836" fill="#d400ff" opacity="0.6" />
<circle cx="1061.8862829687328" cy="64.70479852155961" r="1.619887710013368" fill="#d400ff" opacity="0.6" />
<circle cx="684.2942928836411" cy="17.34708080342483" r="1.8000100190545205" fill="#d400ff" opacity="0.6" />
<circle cx="9.953211300484632" cy="17.96650025237514" r="1.3551332529050906" fill="#00f0ff" opacity="0.6" />
<circle cx="1357.8460145779904" cy="75.75139183819736" r="1.7987755665053573" fill="#00f0ff" opacity="0.6" />
<circle cx="67.04862299321661" cy="85.63491851663319" r="1.6476413294233567" fill="#00f0ff" opacity="0.6" />
<circle cx="654.0436460862629" cy="81.7868110783104" r="1.8678383439089377" fill="#d400ff" opacity="0.6" />
<circle cx="765.4711041929454" cy="79.89929034202343" r="1.2915191926158682" fill="#ffffff" opacity="0.6" />
<circle cx="418.25986992571876" cy="12.429419448114798" r="1.2445356771175238" fill="#ff007f" opacity="0.6" />
<circle cx="227.34462478085538" cy="47.30241170088123" r="1.661785455844947" fill="#ffffff" opacity="0.6" />
<circle cx="93.55933029233316" cy="86.06600747749958" r="2.117117860350702" fill="#ff007f" opacity="0.6" />

      </g>
    
      <g style="animation: drift 40s linear infinite;">
         <circle cx="1279.5342640216538" cy="4.7134338408913905" r="2.2377107250709924" fill="#ffffff" opacity="0.8999999999999999" />
<circle cx="1161.4509488739866" cy="31.691489474405408" r="1.9261669139937547" fill="#ff007f" opacity="0.8999999999999999" />
<circle cx="491.02818406510045" cy="63.77047726149989" r="1.8066047815502237" fill="#ff007f" opacity="0.8999999999999999" />
<circle cx="1317.6789059133007" cy="8.13918657305097" r="2.0837254473131464" fill="#ff007f" opacity="0.8999999999999999" />
<circle cx="880.7400413115257" cy="66.9022647168409" r="2.0960430888477166" fill="#ff007f" opacity="0.8999999999999999" />
<circle cx="455.7324704648243" cy="85.0543643307884" r="2.0995180925254884" fill="#d400ff" opacity="0.8999999999999999" />
<circle cx="96.19915936332966" cy="82.24736713705208" r="2.3457631751755748" fill="#d400ff" opacity="0.8999999999999999" />
<circle cx="689.5372653935896" cy="9.905966452732029" r="2.5651109345442804" fill="#00f0ff" opacity="0.8999999999999999" />
<circle cx="663.7341663316843" cy="28.54674593305777" r="2.6629659413375943" fill="#ffffff" opacity="0.8999999999999999" />
<circle cx="679.9466548735859" cy="98.34399897976942" r="1.831085081859365" fill="#ff007f" opacity="0.8999999999999999" />
<circle cx="74.57860861000097" cy="39.6158553928151" r="2.1977745824097488" fill="#ff007f" opacity="0.8999999999999999" />
<circle cx="1106.8812212787684" cy="72.35663785625762" r="2.5804784550955056" fill="#d400ff" opacity="0.8999999999999999" />
<circle cx="1108.0409421170764" cy="61.51741647061534" r="1.9793018587995512" fill="#ff007f" opacity="0.8999999999999999" />
<circle cx="529.5309028500071" cy="30.255301031572778" r="2.3669260662681744" fill="#ff007f" opacity="0.8999999999999999" />
<circle cx="1231.2003731472898" cy="58.30865854226052" r="2.502823505891126" fill="#00f0ff" opacity="0.8999999999999999" />
<circle cx="1394.8362414259984" cy="92.01722521909782" r="2.558550162682434" fill="#00f0ff" opacity="0.8999999999999999" />
<circle cx="1316.8636977980989" cy="32.05187060944239" r="2.212888158601097" fill="#ff007f" opacity="0.8999999999999999" />
<circle cx="1205.7636492706379" cy="86.20565729310604" r="2.7584913147192016" fill="#00f0ff" opacity="0.8999999999999999" />
<circle cx="461.92454706986206" cy="83.65444966456165" r="2.430883126662268" fill="#00f0ff" opacity="0.8999999999999999" />
<circle cx="1015.3879711867045" cy="35.75979113918759" r="1.8363550114910892" fill="#ffffff" opacity="0.8999999999999999" />
<circle cx="1528.3019735221626" cy="80.11268514954187" r="1.8002533465178585" fill="#00f0ff" opacity="0.8999999999999999" />
<circle cx="1041.2938638839366" cy="52.614966188042814" r="2.446377863980534" fill="#ffffff" opacity="0.8999999999999999" />
<circle cx="206.06015477484564" cy="52.57373498219232" r="2.615009053233991" fill="#ff007f" opacity="0.8999999999999999" />
<circle cx="393.83992466527286" cy="75.87634792107319" r="1.8816212789370874" fill="#00f0ff" opacity="0.8999999999999999" />
<circle cx="176.76355324718625" cy="90.95794007168126" r="2.5257616880123175" fill="#d400ff" opacity="0.8999999999999999" />
<circle cx="236.06000173588555" cy="6.6227545125806415" r="1.9630162133555609" fill="#ffffff" opacity="0.8999999999999999" />
<circle cx="439.63058957581075" cy="92.62657949282787" r="2.045166132946716" fill="#ffffff" opacity="0.8999999999999999" />
<circle cx="299.2431991832376" cy="18.333521441552847" r="2.5976717712485393" fill="#ff007f" opacity="0.8999999999999999" />
<circle cx="1370.1338903605895" cy="31.17652022207763" r="2.074486163026301" fill="#00f0ff" opacity="0.8999999999999999" />
<circle cx="1216.258811240259" cy="49.9427291836426" r="2.0029331394891314" fill="#ffffff" opacity="0.8999999999999999" />
<circle cx="1370.5093115583848" cy="32.27833198952651" r="1.8787033577439691" fill="#ffffff" opacity="0.8999999999999999" />
<circle cx="1192.8733185248636" cy="14.824349985458573" r="2.746769644245117" fill="#ff007f" opacity="0.8999999999999999" />
<circle cx="1174.3739997028397" cy="52.49503257869708" r="2.3213123229074872" fill="#ffffff" opacity="0.8999999999999999" />
<circle cx="1280.4675004844391" cy="60.882621084816215" r="2.795798309303515" fill="#d400ff" opacity="0.8999999999999999" />
<circle cx="24.29219694004985" cy="99.70964284095419" r="2.742032581915146" fill="#00f0ff" opacity="0.8999999999999999" />
<circle cx="432.41613015581333" cy="67.65489268537424" r="2.124067083616625" fill="#ffffff" opacity="0.8999999999999999" />
<circle cx="1371.3206563094457" cy="38.47316005081517" r="2.523989009980037" fill="#00f0ff" opacity="0.8999999999999999" />
<circle cx="198.63622099406246" cy="14.321592599187982" r="1.9232745819418053" fill="#ff007f" opacity="0.8999999999999999" />
<circle cx="31.680213167391535" cy="18.87445009957952" r="2.7916444758935324" fill="#00f0ff" opacity="0.8999999999999999" />
<circle cx="1494.763070274761" cy="63.373365627167935" r="2.065200860305768" fill="#ff007f" opacity="0.8999999999999999" />
<circle cx="538.0749143458903" cy="4.842140824362917" r="2.55941271712172" fill="#00f0ff" opacity="0.8999999999999999" />
<circle cx="1506.8327433045192" cy="75.42710619416376" r="2.1850546267692503" fill="#ffffff" opacity="0.8999999999999999" />
<circle cx="1225.997682796164" cy="2.9107793612136446" r="1.8120500029562638" fill="#00f0ff" opacity="0.8999999999999999" />
<circle cx="1516.2631387648912" cy="37.708160876295274" r="2.273798742213816" fill="#ff007f" opacity="0.8999999999999999" />
<circle cx="286.953707630971" cy="42.38486061820254" r="2.7782944596834818" fill="#ffffff" opacity="0.8999999999999999" />
<circle cx="753.1436137381936" cy="13.520149048951346" r="2.444257664190144" fill="#00f0ff" opacity="0.8999999999999999" />
<circle cx="300.4665055432873" cy="49.64764187232817" r="2.29462594910783" fill="#ff007f" opacity="0.8999999999999999" />
<circle cx="950.8957557885661" cy="72.02680790462497" r="2.0188197487326964" fill="#ffffff" opacity="0.8999999999999999" />
<circle cx="1103.0900382288291" cy="75.45490610429165" r="2.408469118626379" fill="#ff007f" opacity="0.8999999999999999" />
<circle cx="1041.6129368308618" cy="30.45168465145931" r="1.8040342706864871" fill="#ffffff" opacity="0.8999999999999999" />
<circle cx="708.1297726038317" cy="93.54657541960302" r="2.6842659575918644" fill="#ff007f" opacity="0.8999999999999999" />
<circle cx="929.3687622423109" cy="56.180900748890636" r="2.39483355430581" fill="#ff007f" opacity="0.8999999999999999" />
<circle cx="1423.8917853706635" cy="73.84199978821812" r="1.9721178827943526" fill="#00f0ff" opacity="0.8999999999999999" />
<circle cx="1133.4321813000465" cy="1.8317790044809046" r="1.8958858325079313" fill="#d400ff" opacity="0.8999999999999999" />
<circle cx="1081.7154809724373" cy="39.68383115149678" r="2.1625503277078186" fill="#d400ff" opacity="0.8999999999999999" />
<circle cx="1556.0591430867619" cy="8.363665155509148" r="2.7701405865094757" fill="#d400ff" opacity="0.8999999999999999" />
<circle cx="814.5661995661161" cy="0.3540430108149639" r="1.9548606926082042" fill="#ff007f" opacity="0.8999999999999999" />
<circle cx="248.13646138639544" cy="41.47371041021588" r="2.49782519304695" fill="#ffffff" opacity="0.8999999999999999" />
<circle cx="1483.1167874270648" cy="21.691558628037967" r="1.877033971181009" fill="#ff007f" opacity="0.8999999999999999" />
<circle cx="1544.3836731626948" cy="95.8014206612759" r="1.9151734735569566" fill="#d400ff" opacity="0.8999999999999999" />
<circle cx="737.103018824968" cy="73.69017662627881" r="2.5329778014358166" fill="#ffffff" opacity="0.8999999999999999" />
<circle cx="1514.1913040554944" cy="28.691825234144364" r="1.9623900619525163" fill="#d400ff" opacity="0.8999999999999999" />
<circle cx="1570.3239562740916" cy="75.99052168714329" r="2.2820945573224938" fill="#d400ff" opacity="0.8999999999999999" />
<circle cx="1326.7191737819674" cy="87.62682605380809" r="2.3352331088222718" fill="#00f0ff" opacity="0.8999999999999999" />
<circle cx="379.62131145421904" cy="34.57262714946479" r="2.2137336080139964" fill="#d400ff" opacity="0.8999999999999999" />
<circle cx="532.1759830848357" cy="83.41404707555185" r="2.4610717967043287" fill="#d400ff" opacity="0.8999999999999999" />
<circle cx="542.390462121757" cy="33.83487335022425" r="2.437937502516326" fill="#00f0ff" opacity="0.8999999999999999" />
<circle cx="505.5463038200555" cy="39.99737947354055" r="2.4476011962198094" fill="#d400ff" opacity="0.8999999999999999" />
<circle cx="214.28937226332678" cy="35.532278285795414" r="2.155875270276996" fill="#d400ff" opacity="0.8999999999999999" />
<circle cx="1168.8430894432652" cy="82.90160306088846" r="2.0338954605385204" fill="#d400ff" opacity="0.8999999999999999" />
<circle cx="456.59649743705995" cy="65.85275193378577" r="2.570339148439131" fill="#00f0ff" opacity="0.8999999999999999" />
<circle cx="1067.8262932484568" cy="76.75428523245131" r="1.8584558697034623" fill="#00f0ff" opacity="0.8999999999999999" />
<circle cx="725.735220995581" cy="5.457445715825237" r="2.0079023480757785" fill="#00f0ff" opacity="0.8999999999999999" />
<circle cx="1224.661760843371" cy="88.9215641444866" r="2.737412477876621" fill="#d400ff" opacity="0.8999999999999999" />
<circle cx="1536.6557712074018" cy="59.42841435661224" r="2.088223164255459" fill="#ff007f" opacity="0.8999999999999999" />
<circle cx="732.6184478492554" cy="19.076524791609838" r="2.181838934579493" fill="#ff007f" opacity="0.8999999999999999" />
<circle cx="1194.9421730624088" cy="13.578083021995935" r="2.196092172981934" fill="#00f0ff" opacity="0.8999999999999999" />
<circle cx="973.7323171140941" cy="22.194921103536792" r="2.2510200994189304" fill="#ff007f" opacity="0.8999999999999999" />
<circle cx="311.40667058501157" cy="51.34719899456913" r="2.611946569698551" fill="#d400ff" opacity="0.8999999999999999" />
<circle cx="675.0246756235198" cy="10.53097891305066" r="2.3387891526820077" fill="#ffffff" opacity="0.8999999999999999" />
<circle cx="276.02877576296373" cy="84.74953092804253" r="2.431524006582625" fill="#ffffff" opacity="0.8999999999999999" />
<circle cx="742.5630157424257" cy="76.49676403046797" r="1.9696108125330314" fill="#00f0ff" opacity="0.8999999999999999" />
<circle cx="1111.6925874175613" cy="81.92467912975282" r="2.213024191684612" fill="#ffffff" opacity="0.8999999999999999" />
<circle cx="1156.9999618067482" cy="8.316380216829987" r="2.0185105810141852" fill="#d400ff" opacity="0.8999999999999999" />
<circle cx="873.4043980511876" cy="20.04180513003435" r="2.0983421034009946" fill="#ffffff" opacity="0.8999999999999999" />
<circle cx="1549.8845263188452" cy="57.48956550767302" r="1.9809001316293244" fill="#00f0ff" opacity="0.8999999999999999" />
<circle cx="261.2168109783788" cy="94.40447963915463" r="2.4411375386057985" fill="#ff007f" opacity="0.8999999999999999" />
<circle cx="177.33175496031652" cy="34.12421867211628" r="2.36723819402856" fill="#d400ff" opacity="0.8999999999999999" />
<circle cx="225.24729069825077" cy="64.68936404407687" r="2.3652172645252985" fill="#ffffff" opacity="0.8999999999999999" />
<circle cx="1553.0224729756344" cy="17.57673969325143" r="2.7994149409996663" fill="#ffffff" opacity="0.8999999999999999" />
<circle cx="608.5347650548977" cy="37.0473041522207" r="2.613913576229391" fill="#00f0ff" opacity="0.8999999999999999" />
<circle cx="295.80088011735836" cy="12.911098724571312" r="2.1578380745642165" fill="#ffffff" opacity="0.8999999999999999" />
<circle cx="11.103151638996245" cy="91.44178388267005" r="1.8473949797231475" fill="#00f0ff" opacity="0.8999999999999999" />
<circle cx="1126.2088514678344" cy="63.49615391063856" r="2.3476355080255153" fill="#ffffff" opacity="0.8999999999999999" />
<circle cx="221.98116882140386" cy="93.53519390060266" r="2.2880824908723287" fill="#ffffff" opacity="0.8999999999999999" />
<circle cx="228.12182181737484" cy="59.09849097531584" r="2.033502451773571" fill="#ff007f" opacity="0.8999999999999999" />
<circle cx="1512.3682713303583" cy="96.90118576733958" r="1.9489465459215682" fill="#ff007f" opacity="0.8999999999999999" />
<circle cx="280.2685745733152" cy="68.40351858021035" r="1.8148391127715815" fill="#ffffff" opacity="0.8999999999999999" />
<circle cx="758.0050421005224" cy="92.34271748137506" r="2.482323483544344" fill="#ff007f" opacity="0.8999999999999999" />
<circle cx="58.663794476423625" cy="7.395023123561062" r="1.9255399266662407" fill="#ff007f" opacity="0.8999999999999999" />
<circle cx="310.85387080656426" cy="65.05723057260663" r="2.679232461626659" fill="#ffffff" opacity="0.8999999999999999" />
<circle cx="953.1540825129255" cy="46.49069234476853" r="1.9805364795487166" fill="#ff007f" opacity="0.8999999999999999" />
<circle cx="60.71848707060106" cy="80.73190885073821" r="1.921689181884163" fill="#00f0ff" opacity="0.8999999999999999" />
<circle cx="428.07924478591667" cy="85.80275591898433" r="1.9066077372879258" fill="#d400ff" opacity="0.8999999999999999" />
<circle cx="1366.6311161307879" cy="20.440406604182115" r="2.1443320649034034" fill="#00f0ff" opacity="0.8999999999999999" />
<circle cx="212.80635427049842" cy="71.81062411073457" r="2.5522793213364143" fill="#ff007f" opacity="0.8999999999999999" />
<circle cx="1530.2201682779441" cy="60.324453456617654" r="2.0581467836538816" fill="#d400ff" opacity="0.8999999999999999" />
<circle cx="1162.2896322417578" cy="93.88893411418215" r="2.7464007299013344" fill="#d400ff" opacity="0.8999999999999999" />
<circle cx="180.129273759845" cy="91.30485287435431" r="1.8904786448344728" fill="#00f0ff" opacity="0.8999999999999999" />
<circle cx="28.77602989720458" cy="25.280738719276506" r="2.7418878206979267" fill="#d400ff" opacity="0.8999999999999999" />
<circle cx="618.4265991098212" cy="93.24275762775568" r="1.8588528529368595" fill="#ffffff" opacity="0.8999999999999999" />
<circle cx="976.4241504819071" cy="1.0639270655695698" r="2.408724000554597" fill="#ff007f" opacity="0.8999999999999999" />
<circle cx="885.8512007640738" cy="88.29294382351706" r="2.6102482114182144" fill="#d400ff" opacity="0.8999999999999999" />
<circle cx="1373.2684680661157" cy="88.96252987903969" r="2.406689409950456" fill="#00f0ff" opacity="0.8999999999999999" />
<circle cx="459.3095051652606" cy="26.863959517531043" r="2.405353306630891" fill="#00f0ff" opacity="0.8999999999999999" />
<circle cx="650.969642012237" cy="99.88120580977774" r="2.142771619635135" fill="#ff007f" opacity="0.8999999999999999" />
<circle cx="361.49576540844157" cy="92.17228104470037" r="2.6032297042678096" fill="#ffffff" opacity="0.8999999999999999" />
<circle cx="991.7389663199817" cy="56.17122827774384" r="1.8323561547151463" fill="#00f0ff" opacity="0.8999999999999999" />
<circle cx="257.8211711354335" cy="82.48843761694155" r="2.1426756476150097" fill="#ffffff" opacity="0.8999999999999999" />
<circle cx="747.2406627239911" cy="93.01179170560631" r="1.8497030714392724" fill="#ff007f" opacity="0.8999999999999999" />
<circle cx="1532.511665621341" cy="72.27921842978796" r="2.7785570757118494" fill="#ff007f" opacity="0.8999999999999999" />
<circle cx="1278.7970817238092" cy="94.95802732507646" r="2.2677882531192486" fill="#ff007f" opacity="0.8999999999999999" />
<circle cx="866.1858165046915" cy="76.610040336548" r="2.3727459025047324" fill="#ff007f" opacity="0.8999999999999999" />
<circle cx="116.29296502040648" cy="55.40120677140086" r="2.207515760093448" fill="#00f0ff" opacity="0.8999999999999999" />
<circle cx="1117.0579016085087" cy="27.82905886839645" r="1.990970870389158" fill="#00f0ff" opacity="0.8999999999999999" />
<circle cx="700.8678586179931" cy="20.192946088441577" r="2.111805611593555" fill="#d400ff" opacity="0.8999999999999999" />
<circle cx="1407.3280857400052" cy="85.77567126640045" r="1.9883994389849469" fill="#d400ff" opacity="0.8999999999999999" />
<circle cx="1220.3138415807632" cy="57.03824360930205" r="2.5830590723064923" fill="#00f0ff" opacity="0.8999999999999999" />
<circle cx="933.3805542021219" cy="99.69277429366538" r="2.4642511787022503" fill="#00f0ff" opacity="0.8999999999999999" />
<circle cx="170.55490759370286" cy="94.49249143297558" r="2.034378437830347" fill="#00f0ff" opacity="0.8999999999999999" />
<circle cx="260.3112069368196" cy="47.41548517705936" r="1.8105243113175553" fill="#00f0ff" opacity="0.8999999999999999" />
<circle cx="815.1961867620482" cy="93.05361677456612" r="2.7823742616666127" fill="#00f0ff" opacity="0.8999999999999999" />
<circle cx="18.775288780107324" cy="3.6664770961463033" r="2.539665951218624" fill="#ffffff" opacity="0.8999999999999999" />
<circle cx="73.92646429503777" cy="5.025317020042408" r="2.3783990114443165" fill="#ffffff" opacity="0.8999999999999999" />
<circle cx="844.6867149443663" cy="74.39587413715252" r="1.9602215842979072" fill="#d400ff" opacity="0.8999999999999999" />
<circle cx="645.70573714019" cy="35.61935144818472" r="2.124424199501749" fill="#00f0ff" opacity="0.8999999999999999" />
<circle cx="1375.7837696721165" cy="8.711185257989307" r="2.676917858639397" fill="#ffffff" opacity="0.8999999999999999" />
<circle cx="366.9187284420232" cy="59.35378872747725" r="1.8590772192683542" fill="#ff007f" opacity="0.8999999999999999" />
<circle cx="77.08445161292391" cy="18.04459871318629" r="2.278442590741819" fill="#d400ff" opacity="0.8999999999999999" />
<circle cx="511.48602674232427" cy="90.260651767961" r="2.780963743247038" fill="#ffffff" opacity="0.8999999999999999" />
<circle cx="135.60159005313662" cy="95.53299932697246" r="2.776008784479706" fill="#d400ff" opacity="0.8999999999999999" />
<circle cx="629.0657884705871" cy="19.065972882888225" r="1.804170576796035" fill="#ff007f" opacity="0.8999999999999999" />
<circle cx="852.7620647197583" cy="27.550773838806673" r="1.9785831317564977" fill="#ffffff" opacity="0.8999999999999999" />
<circle cx="1551.790771073212" cy="23.83177115299321" r="2.3926304249987322" fill="#d400ff" opacity="0.8999999999999999" />
<circle cx="1069.6097944749272" cy="30.673743303657886" r="2.6681285658834737" fill="#00f0ff" opacity="0.8999999999999999" />
<circle cx="267.56928070698774" cy="26.655199909345907" r="2.6774688906607453" fill="#00f0ff" opacity="0.8999999999999999" />
<circle cx="248.8324264503321" cy="67.58897010761424" r="2.014337555709112" fill="#ff007f" opacity="0.8999999999999999" />
<circle cx="733.1170981442948" cy="73.60767657010035" r="2.0158349744921558" fill="#d400ff" opacity="0.8999999999999999" />
<circle cx="1115.380923162958" cy="2.1800089295365144" r="1.9175365047314807" fill="#ffffff" opacity="0.8999999999999999" />
<circle cx="294.2405945541042" cy="8.123137522568003" r="2.478505848360365" fill="#ff007f" opacity="0.8999999999999999" />

      </g>
    
  
</svg>
