
<svg xmlns="http://www.w3.org/2000/svg" width="850" height="100" viewBox="0 0 850 100">
  <defs>
    <radialGradient id="space-bg" cx="50%" cy="0%" r="100%">
      <stop offset="0%" stop-color="#0a051d" />
      <stop offset="50%" stop-color="#05020f" />
      <stop offset="100%" stop-color="#000000" />
    </radialGradient>
    <style>
      @keyframes scroll-medium {
        from { transform: translateX(0); }
        to { transform: translateX(-850px); }
      }
      .footer-text {
        font-family: 'Orbitron', 'Courier New', sans-serif;
        font-size: 12px;
        fill: #00f0ff;
        opacity: 0.6;
        letter-spacing: 4px;
        text-anchor: middle;
      }
    </style>
  </defs>
  
  <rect width="850" height="100" fill="url(#space-bg)" />
  
  <g style="animation: scroll-medium 60s linear infinite;">
    <circle cx="1523.275000132033" cy="269.47529387684267" r="1.6951634405196245" fill="#00f0ff" opacity="0.36965467206532737" />
<circle cx="1615.7898767703105" cy="286.98582155567533" r="0.2902781548419669" fill="#00f0ff" opacity="0.4476580339673709" />
<circle cx="249.8138350863274" cy="15.582824314304977" r="0.992932811779869" fill="#00f0ff" opacity="0.4568470806573796" />
<circle cx="730.4119498715428" cy="265.72926748282947" r="0.5848715675368084" fill="#00f0ff" opacity="0.9425213154248191" />
<circle cx="761.289427037727" cy="12.883994042426107" r="0.708523079502434" fill="#00f0ff" opacity="0.30022129868915215" />
<circle cx="402.45946563276686" cy="79.19366496347904" r="0.32690038978173924" fill="#00f0ff" opacity="0.8964288267876008" />
<circle cx="66.06553693328901" cy="22.3380720450703" r="1.4806716117240344" fill="#00f0ff" opacity="0.9902703484463962" />
<circle cx="1459.3786698166841" cy="140.64196485125507" r="0.37720706620717853" fill="#00f0ff" opacity="0.6041020301836686" />
<circle cx="1204.4831132064905" cy="223.60269580932493" r="1.1309630244747377" fill="#00f0ff" opacity="0.35597878164478614" />
<circle cx="1067.3497681858566" cy="104.03694346255429" r="0.38451307458078937" fill="#00f0ff" opacity="0.3084002871216245" />
<circle cx="773.7550719599376" cy="137.32921374288998" r="0.46652649192701307" fill="#00f0ff" opacity="0.38925460754425656" />
<circle cx="642.7727880299818" cy="19.57334163109834" r="1.524860436650838" fill="#00f0ff" opacity="0.7520596750183719" />
<circle cx="1467.8512161422946" cy="238.7526386582611" r="1.4817237610259861" fill="#00f0ff" opacity="0.853963637456274" />
<circle cx="616.4820288343757" cy="292.73065761956707" r="1.4274919369189103" fill="#00f0ff" opacity="0.571184288875445" />
<circle cx="413.41976195999797" cy="259.5186562203258" r="1.420566606714909" fill="#00f0ff" opacity="0.2820051279009237" />
<circle cx="633.8547455662622" cy="98.81701708460379" r="1.081947091067499" fill="#00f0ff" opacity="0.7682615723485398" />
<circle cx="784.6699199229948" cy="68.7504520633233" r="0.6252263336001055" fill="#00f0ff" opacity="0.9550713075905601" />
<circle cx="1172.512920358244" cy="107.11201798298092" r="1.5398764240724556" fill="#00f0ff" opacity="0.3271209327140403" />
<circle cx="1321.2123842449423" cy="27.47721054188804" r="0.4608133533627973" fill="#00f0ff" opacity="0.7306274005175841" />
<circle cx="1607.5019112420125" cy="159.85428668260596" r="0.5386577244705735" fill="#00f0ff" opacity="0.6563445224011715" />
<circle cx="553.4624875428733" cy="171.82693462803866" r="1.4172064880849358" fill="#00f0ff" opacity="0.6810444611877617" />
<circle cx="1426.8713657452759" cy="250.28685107370038" r="0.32453891386883454" fill="#00f0ff" opacity="0.29499109935571133" />
<circle cx="899.2237844092123" cy="151.78896531580688" r="0.9851425728736829" fill="#00f0ff" opacity="0.2720343662260635" />
<circle cx="1539.399633152253" cy="73.76428146656838" r="0.49675708771299265" fill="#00f0ff" opacity="0.28955050145806527" />
<circle cx="1404.1484812503552" cy="66.38760447297167" r="0.37480491893649603" fill="#00f0ff" opacity="0.5545643165798202" />
<circle cx="669.9514812085004" cy="187.20436834204182" r="1.1020317886124007" fill="#00f0ff" opacity="0.31442300186135175" />
<circle cx="929.5389965152391" cy="77.06365342892467" r="1.6928476584594125" fill="#00f0ff" opacity="0.9640087408923741" />
<circle cx="1560.2080094275082" cy="181.9545694353617" r="0.7335235894097221" fill="#00f0ff" opacity="0.5805573201006389" />
<circle cx="1188.7846670400231" cy="254.77888858851233" r="0.24905373756464205" fill="#00f0ff" opacity="0.47721619960444406" />
<circle cx="105.64048658768964" cy="112.9141765221144" r="1.4923082769239306" fill="#00f0ff" opacity="0.5769482390146712" />
<circle cx="295.74056948965534" cy="65.31709632906987" r="0.35204656318191496" fill="#00f0ff" opacity="0.9900366613646967" />
<circle cx="867.9484948757508" cy="256.7884556987335" r="0.9347420116170708" fill="#00f0ff" opacity="0.6461503179771422" />
<circle cx="1691.6434987859923" cy="70.60809008207261" r="1.6740972323890364" fill="#00f0ff" opacity="0.6637426688124355" />
<circle cx="237.184954465403" cy="137.60986664530395" r="0.8010238865540249" fill="#00f0ff" opacity="0.5548220047574135" />
<circle cx="664.3273106737142" cy="195.45417864867593" r="0.252857362508586" fill="#00f0ff" opacity="0.9260128288041249" />
<circle cx="257.4881226133401" cy="8.64028173438487" r="0.7909917242404569" fill="#00f0ff" opacity="0.8591878598369911" />
<circle cx="1283.491980197731" cy="298.76185394012765" r="1.456069704359799" fill="#00f0ff" opacity="0.5724353192417018" />
<circle cx="1419.21461527537" cy="298.115385648885" r="1.2817977623909267" fill="#00f0ff" opacity="0.7038936525509547" />
<circle cx="844.1342092454752" cy="86.36175127245407" r="0.6842160446910216" fill="#00f0ff" opacity="0.5156633846732036" />
<circle cx="566.5202923997034" cy="219.67329539665124" r="0.6382128079514622" fill="#00f0ff" opacity="0.5388543716909775" />
<circle cx="1389.4133739856286" cy="79.2177198643494" r="0.24252116420607667" fill="#00f0ff" opacity="0.9700660417605256" />
<circle cx="684.701692746481" cy="159.15320237382267" r="0.7204547140947706" fill="#00f0ff" opacity="0.4613222645645116" />
<circle cx="330.24063009619795" cy="188.69507654473654" r="1.5149780823111434" fill="#00f0ff" opacity="0.8843627555638414" />
<circle cx="725.001571500839" cy="149.55120500731732" r="0.9805520758431825" fill="#00f0ff" opacity="0.4661108670939176" />
<circle cx="731.5668896738487" cy="212.9943808727048" r="1.1996670681051471" fill="#00f0ff" opacity="0.4960171945000125" />
<circle cx="341.0775571624316" cy="200.6574074094512" r="0.9311442303578823" fill="#00f0ff" opacity="0.4704102044837818" />
<circle cx="1263.7255648565215" cy="243.24642969268274" r="0.6937718177215366" fill="#00f0ff" opacity="0.47343023295386716" />
<circle cx="1359.2638347380798" cy="77.03879547013996" r="1.314370799019996" fill="#00f0ff" opacity="0.6513067662621831" />
<circle cx="1445.4272325542813" cy="40.490821092164396" r="1.658727422050124" fill="#00f0ff" opacity="0.9200721010882242" />
<circle cx="1180.0796107360907" cy="46.01434850229541" r="1.2739398834366213" fill="#00f0ff" opacity="0.7499006509741717" />
<circle cx="1232.164689728282" cy="150.52075824156276" r="1.1765577237168032" fill="#00f0ff" opacity="0.38438464323325355" />
<circle cx="1578.5158448857565" cy="284.885900516194" r="1.5522869891440143" fill="#00f0ff" opacity="0.2816857397377104" />
<circle cx="187.81953950857977" cy="222.3480010184636" r="1.0644119853491647" fill="#00f0ff" opacity="0.5189027101594588" />
<circle cx="978.7033299757248" cy="50.91586831831187" r="0.5779237813490663" fill="#00f0ff" opacity="0.9423025632340389" />
<circle cx="1642.224324045896" cy="231.2568023206197" r="0.3735638115934578" fill="#00f0ff" opacity="0.27193639866984604" />
<circle cx="41.62328069922947" cy="162.20707676869225" r="1.483955277216624" fill="#00f0ff" opacity="0.7787302883280793" />
<circle cx="1114.0748397988566" cy="236.68176555200228" r="0.4653733367161756" fill="#00f0ff" opacity="0.2421585953800711" />
<circle cx="1188.8495179950303" cy="50.2731292436411" r="0.6835525383709371" fill="#00f0ff" opacity="0.3880696551153509" />
<circle cx="1632.857827097904" cy="113.58141877644144" r="1.6955821182989144" fill="#00f0ff" opacity="0.21206956954877915" />
<circle cx="1600.2625561166055" cy="70.92836419544084" r="0.3026184321341082" fill="#00f0ff" opacity="0.8382657890140046" />
<circle cx="156.8081190888229" cy="248.5240123736182" r="1.5833929632714345" fill="#00f0ff" opacity="0.8380368188494662" />
<circle cx="103.10826501696778" cy="210.59630290986144" r="0.932556120407271" fill="#00f0ff" opacity="0.5452868106966513" />
<circle cx="511.364880486344" cy="283.90312733775136" r="1.465959990651051" fill="#00f0ff" opacity="0.5309646858448274" />
<circle cx="1076.8745936723042" cy="7.20755353925342" r="0.286965561046017" fill="#00f0ff" opacity="0.7035895980299636" />
<circle cx="1508.2007421145136" cy="258.3882314534616" r="0.6188661818316334" fill="#00f0ff" opacity="0.3226714835505683" />
<circle cx="574.8597458687832" cy="6.793801315526338" r="1.524013775213206" fill="#00f0ff" opacity="0.3698390790762349" />
<circle cx="656.3047588190663" cy="268.01378520288324" r="0.723377276396659" fill="#00f0ff" opacity="0.6730025450614574" />
<circle cx="406.8387884709693" cy="276.828656459441" r="0.6098709667144373" fill="#00f0ff" opacity="0.9665339814550857" />
<circle cx="898.2548203254519" cy="209.15714806748534" r="1.4246844574585074" fill="#00f0ff" opacity="0.655525965518303" />
<circle cx="861.1480455865222" cy="179.93547458476095" r="1.077560953066134" fill="#00f0ff" opacity="0.7588902229777401" />
<circle cx="1138.422469221273" cy="220.7436435728749" r="0.36218084977993625" fill="#00f0ff" opacity="0.9831741681061776" />
<circle cx="1199.0426503931767" cy="288.6485953246597" r="1.2567951732185398" fill="#00f0ff" opacity="0.6170390872282736" />
<circle cx="240.04965301849433" cy="84.21023728380585" r="0.372780125304246" fill="#00f0ff" opacity="0.6890212799834666" />
<circle cx="1557.3972837972824" cy="264.35103147728654" r="1.6909723923102506" fill="#00f0ff" opacity="0.6060060136220398" />
<circle cx="563.7329207425482" cy="72.7260202675499" r="0.5269082362291113" fill="#00f0ff" opacity="0.9886825522949063" />
<circle cx="160.25813874127326" cy="208.0566406876004" r="0.974134727460062" fill="#00f0ff" opacity="0.6794586826021671" />
<circle cx="184.2175656797313" cy="165.5240200372393" r="1.1368923968207885" fill="#00f0ff" opacity="0.741625761816614" />
<circle cx="1268.0907644484955" cy="95.0258467391246" r="1.2556601331002766" fill="#00f0ff" opacity="0.6590201824413522" />
<circle cx="95.52609563314276" cy="217.40273754353873" r="1.3355704894538458" fill="#00f0ff" opacity="0.9995244531204306" />
<circle cx="759.2992313436433" cy="224.43599207922168" r="1.088595346213782" fill="#00f0ff" opacity="0.37588072434834185" />
<circle cx="1552.0911177459338" cy="293.9935029267393" r="0.6016773122649508" fill="#00f0ff" opacity="0.4049258231207786" />
<circle cx="1225.2761196080442" cy="46.55034076384285" r="1.3982728231680819" fill="#00f0ff" opacity="0.44156300070012533" />
<circle cx="8.508464839432527" cy="97.32932370034749" r="0.6266423768718627" fill="#00f0ff" opacity="0.5343882027500136" />
<circle cx="1663.5890058545128" cy="1.1583412255331216" r="0.2729777147425592" fill="#00f0ff" opacity="0.2789947590997862" />
<circle cx="1300.8989723476363" cy="287.48070671300223" r="0.44627973657145226" fill="#00f0ff" opacity="0.3004144666609263" />
<circle cx="824.2857079312042" cy="107.18758210463832" r="0.45513620082931894" fill="#00f0ff" opacity="0.3554985289435017" />
<circle cx="799.9655786034074" cy="256.95807602323623" r="1.2615301882594931" fill="#00f0ff" opacity="0.6421257864995473" />
<circle cx="252.96775115592965" cy="38.62965864778401" r="0.9832736097719814" fill="#00f0ff" opacity="0.7563798037612781" />
<circle cx="707.7156447142693" cy="58.13676989869037" r="0.6005491356291365" fill="#00f0ff" opacity="0.6383879637475669" />
<circle cx="647.9089409992937" cy="48.22775493269772" r="1.6618256737888009" fill="#00f0ff" opacity="0.7823455251789151" />
<circle cx="334.9299254787535" cy="58.46928569801686" r="0.35912349752927647" fill="#00f0ff" opacity="0.645641292756792" />
<circle cx="435.9510789334725" cy="212.87053152058263" r="1.6350975162277432" fill="#00f0ff" opacity="0.5856783129754837" />
<circle cx="1154.7256384390541" cy="232.49906538100507" r="0.29322918515423624" fill="#00f0ff" opacity="0.6330368292009135" />
<circle cx="253.90817931557652" cy="235.77827442620674" r="0.6390766587199987" fill="#00f0ff" opacity="0.9194260976890445" />
<circle cx="320.75337646196095" cy="102.33659164476254" r="0.6226682516065877" fill="#00f0ff" opacity="0.3392009928738535" />
<circle cx="1165.0194708943309" cy="30.30247457242097" r="1.5189750926282999" fill="#00f0ff" opacity="0.3333953687666985" />
<circle cx="1178.4202236160759" cy="88.6653118457684" r="1.6192808928624196" fill="#00f0ff" opacity="0.5293618980640582" />
<circle cx="470.6763592326407" cy="227.18481770908613" r="1.5199113727261855" fill="#00f0ff" opacity="0.2929588545603628" />
<circle cx="41.287852373251624" cy="169.14920981460403" r="0.5623890884168288" fill="#00f0ff" opacity="0.6504290810513369" />
<circle cx="1083.3164094177223" cy="136.7281179427435" r="0.7479568015131557" fill="#00f0ff" opacity="0.7897569259873773" />

  </g>
  
  <text x="50%" y="60%" class="footer-text">END OF SYSTEM TRANSMISSION</text>
</svg>
