
<svg xmlns="http://www.w3.org/2000/svg" width="850" height="300" viewBox="0 0 850 300">
  <defs>
    <!-- Deep Space Background Gradient -->
    <radialGradient id="space-bg" cx="50%" cy="50%" r="75%">
      <stop offset="0%" stop-color="#0a051d" />
      <stop offset="50%" stop-color="#05020f" />
      <stop offset="100%" stop-color="#000000" />
    </radialGradient>

    <!-- Nebula Glows -->
    <radialGradient id="nebula-cyan" cx="50%" cy="50%" r="50%">
      <stop offset="0%" stop-color="#00f0ff" stop-opacity="0.15" />
      <stop offset="100%" stop-color="#00f0ff" stop-opacity="0" />
    </radialGradient>
    <radialGradient id="nebula-pink" cx="50%" cy="50%" r="50%">
      <stop offset="0%" stop-color="#ff007f" stop-opacity="0.15" />
      <stop offset="100%" stop-color="#ff007f" stop-opacity="0" />
    </radialGradient>

    <!-- Meteor Tail Gradient -->
    <linearGradient id="meteor-gradient" x1="0%" y1="0%" x2="100%" y2="100%">
      <stop offset="0%" stop-color="#ffffff" stop-opacity="1" />
      <stop offset="20%" stop-color="#00f0ff" stop-opacity="0.8" />
      <stop offset="100%" stop-color="#00f0ff" stop-opacity="0" />
    </linearGradient>

    <!-- General Glow Filter -->
    <filter id="glow" x="-20%" y="-20%" width="140%" height="140%">
      <feGaussianBlur stdDeviation="3" result="blur" />
      <feComposite in="SourceGraphic" in2="blur" operator="over" />
    </filter>

    <style>
      /* Parallax Scrolling for 3D effect */
      @keyframes scroll-fast {
        from { transform: translateX(0); }
        to { transform: translateX(-850px); }
      }
      @keyframes scroll-medium {
        from { transform: translateX(0); }
        to { transform: translateX(-850px); }
      }
      @keyframes scroll-slow {
        from { transform: translateX(0); }
        to { transform: translateX(-850px); }
      }

      /* Meteor Animation */
      @keyframes meteor {
        0% { transform: translate(1050px, -100px) scale(1); opacity: 1; }
        20% { transform: translate(425px, 150px) scale(1); opacity: 1; }
        40% { transform: translate(-200px, 500px) scale(0); opacity: 0; }
        100% { transform: translate(-200px, 500px) scale(0); opacity: 0; }
      }

      /* Floating Nebula */
      @keyframes float-nebula {
        0%, 100% { transform: translate(0, 0) scale(1); opacity: 0.8; }
        50% { transform: translate(-20px, 10px) scale(1.1); opacity: 1; }
      }
      @keyframes float-nebula-alt {
        0%, 100% { transform: translate(0, 0) scale(1); opacity: 0.8; }
        50% { transform: translate(20px, -10px) scale(1.2); opacity: 1; }
      }

      /* Title Styling */
      .title {
        font-family: 'Orbitron', 'Courier New', sans-serif;
        font-size: 42px;
        font-weight: 900;
        fill: #ffffff;
        text-anchor: middle;
        letter-spacing: 3px;
      }
      .title-glow {
        font-family: 'Orbitron', 'Courier New', sans-serif;
        font-size: 42px;
        font-weight: 900;
        fill: none;
        stroke: #00f0ff;
        stroke-width: 6px;
        stroke-opacity: 0.6;
        text-anchor: middle;
        letter-spacing: 3px;
      }
      .subtitle {
        font-family: 'Orbitron', 'Courier New', sans-serif;
        font-size: 14px;
        font-weight: bold;
        fill: #ff007f;
        text-anchor: middle;
        letter-spacing: 8px;
      }
    </style>
  </defs>

  <!-- Base Space Background -->
  <rect width="850" height="300" fill="url(#space-bg)" />

  <!-- Animated Nebulas -->
  <circle cx="20%" cy="30%" r="200" fill="url(#nebula-cyan)" style="animation: float-nebula 15s ease-in-out infinite;" />
  <circle cx="80%" cy="70%" r="250" fill="url(#nebula-pink)" style="animation: float-nebula-alt 20s ease-in-out infinite;" />
  <circle cx="50%" cy="50%" r="300" fill="url(#nebula-cyan)" style="animation: float-nebula 25s ease-in-out infinite;" opacity="0.5" />

  <!-- Layer 1: Background Stars (Slow) -->
  <g style="animation: scroll-slow 120s linear infinite;">
    <circle cx="299.2315148592687" cy="263.8066825156462" r="0.43513942032008573" fill="#ffffff" opacity="0.941993739950115" />
<circle cx="214.6677125225939" cy="234.72300843849553" r="0.36679695751501246" fill="#ffffff" opacity="0.8612915213008447" />
<circle cx="1635.302759545011" cy="97.27962485630624" r="0.38567730119694527" fill="#ffffff" opacity="0.6562724092629657" />
<circle cx="458.2440459676189" cy="95.48058004263713" r="0.6645045760548101" fill="#ffffff" opacity="0.6796072351385447" />
<circle cx="1271.4133365645973" cy="125.64519530606707" r="0.4853416975783878" fill="#ffffff" opacity="0.5523634198022204" />
<circle cx="1246.1238929390545" cy="160.1520275427178" r="0.599632291842912" fill="#ffffff" opacity="0.62954335146945" />
<circle cx="394.20803386581287" cy="295.9537735175492" r="0.8340105105928319" fill="#ffffff" opacity="0.9608567972075095" />
<circle cx="1640.922554890799" cy="123.50991103235333" r="0.6251990401879102" fill="#ffffff" opacity="0.7765157077595339" />
<circle cx="509.1762219018834" cy="18.802424453040988" r="0.9599487004927609" fill="#ffffff" opacity="0.57596345969223" />
<circle cx="632.2021377063459" cy="96.70509555909744" r="0.42139275499825485" fill="#ffffff" opacity="0.9610733895895098" />
<circle cx="893.1118178236973" cy="143.32988481765645" r="0.3015243397323148" fill="#ffffff" opacity="0.5526623885730082" />
<circle cx="1645.4081072231118" cy="279.8446087846084" r="0.538908239257397" fill="#ffffff" opacity="0.6878339881612036" />
<circle cx="884.694764504362" cy="124.94653888070779" r="0.23701714444829378" fill="#ffffff" opacity="0.37901948394716806" />
<circle cx="179.71275754162914" cy="230.35672550946205" r="0.26113908740638836" fill="#ffffff" opacity="0.9774111925731606" />
<circle cx="1699.6593519642531" cy="192.26198091443771" r="0.8272203040648809" fill="#ffffff" opacity="0.8903247536203218" />
<circle cx="401.7146786198911" cy="267.21139018580715" r="0.559662787401709" fill="#ffffff" opacity="0.7669742712698766" />
<circle cx="494.8327572153206" cy="130.52583522127733" r="0.36752396244314145" fill="#ffffff" opacity="0.5282838061327478" />
<circle cx="509.207142319158" cy="116.53619801940927" r="0.44107545725340525" fill="#ffffff" opacity="0.2211597593735924" />
<circle cx="994.17538362644" cy="227.58505287762776" r="0.7623020069401785" fill="#ffffff" opacity="0.4121867367024595" />
<circle cx="288.97132372595337" cy="95.12068833486096" r="0.8783657683945976" fill="#ffffff" opacity="0.4091982643252239" />
<circle cx="978.6412427466453" cy="137.37575922837857" r="0.7615084967746433" fill="#ffffff" opacity="0.2904291966862797" />
<circle cx="445.50267093718315" cy="152.59530066648398" r="0.419126465634553" fill="#ffffff" opacity="0.2721846413581891" />
<circle cx="375.52592764785453" cy="105.7641670807165" r="0.29381890177266823" fill="#ffffff" opacity="0.2075153612104641" />
<circle cx="1236.6643434321657" cy="195.7770152908523" r="0.2989004144676402" fill="#ffffff" opacity="0.6176379431292964" />
<circle cx="687.9041414235238" cy="117.20411267897975" r="0.6722926693830917" fill="#ffffff" opacity="0.6498831260360214" />
<circle cx="924.6408798956398" cy="63.419480272489146" r="0.2856371545298007" fill="#ffffff" opacity="0.5386274580452497" />
<circle cx="533.7139203107414" cy="45.62738317934018" r="0.6870103766767951" fill="#ffffff" opacity="0.6650143779657072" />
<circle cx="654.6603712502279" cy="282.7592263560611" r="0.5952413490600228" fill="#ffffff" opacity="0.8498403790424323" />
<circle cx="52.15888151293111" cy="62.87963355427877" r="0.8421012874844813" fill="#ffffff" opacity="0.8103075249538287" />
<circle cx="569.5479643995251" cy="293.97809826708385" r="0.7782365881159758" fill="#ffffff" opacity="0.8372993023061335" />
<circle cx="1549.4167368386939" cy="182.17487546450184" r="0.2070260465522754" fill="#ffffff" opacity="0.3496659005756234" />
<circle cx="73.06169963397437" cy="20.613570527656332" r="0.2772575386559164" fill="#ffffff" opacity="0.7557892534731738" />
<circle cx="1680.66369903546" cy="279.5421114392512" r="0.6093051498380768" fill="#ffffff" opacity="0.812496632173404" />
<circle cx="971.6793660438553" cy="187.66815460361508" r="0.7740430376608309" fill="#ffffff" opacity="0.22086220429066072" />
<circle cx="1051.0886924637343" cy="224.00043566065276" r="0.9281142985720925" fill="#ffffff" opacity="0.549426004305738" />
<circle cx="458.8311063913028" cy="244.2559353983813" r="0.35657469310738005" fill="#ffffff" opacity="0.5711929875372144" />
<circle cx="1264.2598467839762" cy="167.20856214321634" r="0.7593546398696858" fill="#ffffff" opacity="0.33093787048620493" />
<circle cx="1353.476087626196" cy="105.6646127415323" r="0.7455807922149191" fill="#ffffff" opacity="0.5787508538168162" />
<circle cx="616.2208468778924" cy="217.52363244062107" r="0.9389456783005854" fill="#ffffff" opacity="0.4492824651966647" />
<circle cx="1592.0467382708755" cy="159.65281095535383" r="0.44403182625212295" fill="#ffffff" opacity="0.47717186160470093" />
<circle cx="808.9481044068252" cy="169.0732488150605" r="0.6657357680125169" fill="#ffffff" opacity="0.48254646031087783" />
<circle cx="822.5054264396654" cy="133.59422661061382" r="0.3533201429351908" fill="#ffffff" opacity="0.9863061638810233" />
<circle cx="1067.1358352681457" cy="36.419973367112625" r="0.5827391407903861" fill="#ffffff" opacity="0.4749690244216811" />
<circle cx="134.60402292446489" cy="22.615575178611113" r="0.8730653585529748" fill="#ffffff" opacity="0.9138639570245652" />
<circle cx="1459.096961662367" cy="103.32571528712258" r="0.8599581065548954" fill="#ffffff" opacity="0.45090263906991157" />
<circle cx="1477.3535035102075" cy="102.78042017335358" r="0.5859950968189089" fill="#ffffff" opacity="0.6605148074876023" />
<circle cx="1093.7664040934455" cy="175.2661812683502" r="0.3006576601646274" fill="#ffffff" opacity="0.21584994221437237" />
<circle cx="1548.4685486484102" cy="173.22272657328338" r="0.6441076237275287" fill="#ffffff" opacity="0.8234055380121412" />
<circle cx="209.78422242017245" cy="140.06917882749224" r="0.8467663433038481" fill="#ffffff" opacity="0.24085080191097508" />
<circle cx="1155.4011501194648" cy="247.1034209526928" r="0.3923556576192658" fill="#ffffff" opacity="0.7732299179768203" />
<circle cx="1347.4026829138597" cy="72.80027618468577" r="0.9150649130958775" fill="#ffffff" opacity="0.8740278294271426" />
<circle cx="394.78949946958465" cy="204.97560233357933" r="0.9565526394206514" fill="#ffffff" opacity="0.3642066391107668" />
<circle cx="1455.625915138456" cy="98.71576067760469" r="0.34989982879556925" fill="#ffffff" opacity="0.8139803646866917" />
<circle cx="1452.56238302417" cy="198.76208482473845" r="0.5888458308987916" fill="#ffffff" opacity="0.2969944756417931" />
<circle cx="629.8986327634698" cy="182.07131101064527" r="0.31733464003853507" fill="#ffffff" opacity="0.5207308621844426" />
<circle cx="87.10800638510774" cy="234.0254785579084" r="0.8128349359010869" fill="#ffffff" opacity="0.8821163035669262" />
<circle cx="347.91868691554475" cy="177.47774626789555" r="0.9723869637575469" fill="#ffffff" opacity="0.8375255273091913" />
<circle cx="1664.3037541285075" cy="236.2412093728885" r="0.7477117167041623" fill="#ffffff" opacity="0.8966916770265867" />
<circle cx="420.40990882952065" cy="117.78035833159251" r="0.5229587780637874" fill="#ffffff" opacity="0.2520856929762353" />
<circle cx="652.3668461828549" cy="161.0272401939255" r="0.3592235422317452" fill="#ffffff" opacity="0.27114493152924335" />
<circle cx="247.07692941727984" cy="38.79883553639135" r="0.9025978941406376" fill="#ffffff" opacity="0.6252792633515902" />
<circle cx="1579.2604188569946" cy="163.94705522770596" r="0.4034597542791041" fill="#ffffff" opacity="0.5786202146982737" />
<circle cx="726.2426337398763" cy="69.82491685245908" r="0.7877264897729122" fill="#ffffff" opacity="0.4002048282294135" />
<circle cx="2.7761788566385004" cy="100.16248519707682" r="0.6745234261427799" fill="#ffffff" opacity="0.9340614468878843" />
<circle cx="1499.7962184301582" cy="118.83625002865259" r="0.6195670138819326" fill="#ffffff" opacity="0.6791792372197025" />
<circle cx="413.91151199414287" cy="266.99871786346495" r="0.9089355704813233" fill="#ffffff" opacity="0.6168816106105808" />
<circle cx="1691.4699335547364" cy="244.3422914456421" r="0.43046640438489886" fill="#ffffff" opacity="0.9687290596785363" />
<circle cx="747.924060884596" cy="199.10020260921112" r="0.9654452494226977" fill="#ffffff" opacity="0.7430400791849328" />
<circle cx="1684.0073458326574" cy="235.41367994933228" r="0.8101441347193321" fill="#ffffff" opacity="0.7139453588686842" />
<circle cx="1509.3956442712436" cy="205.62250283076676" r="0.4262331978881599" fill="#ffffff" opacity="0.7816930164464166" />
<circle cx="109.47585134205579" cy="216.2927653809542" r="0.46541709751341076" fill="#ffffff" opacity="0.6592345709142992" />
<circle cx="8.233657182379961" cy="266.7276420151192" r="0.23870190932197968" fill="#ffffff" opacity="0.48322779735834537" />
<circle cx="1590.5789888287968" cy="138.26918911950767" r="0.3472301205238564" fill="#ffffff" opacity="0.3561998766315996" />
<circle cx="1187.5942878063393" cy="41.36397694917119" r="0.7529335146456368" fill="#ffffff" opacity="0.29796805862213155" />
<circle cx="1493.3722170089236" cy="128.27065849780425" r="0.6753006061766499" fill="#ffffff" opacity="0.9633375172174148" />
<circle cx="983.2948146956328" cy="94.43969215530275" r="0.42525592318366345" fill="#ffffff" opacity="0.3402067379559256" />
<circle cx="221.83316501797125" cy="118.91603741310539" r="0.9050879142228554" fill="#ffffff" opacity="0.6126851084965881" />
<circle cx="1650.658302806338" cy="221.33258882682892" r="0.22805846210922118" fill="#ffffff" opacity="0.7605518368136985" />
<circle cx="1451.453285738254" cy="105.06706913283006" r="0.8180636670406309" fill="#ffffff" opacity="0.2806984445969299" />
<circle cx="657.1559390484639" cy="89.48944389963364" r="0.5831909493425711" fill="#ffffff" opacity="0.565627027958483" />
<circle cx="1303.4276836360755" cy="140.977629980446" r="0.3067003839392114" fill="#ffffff" opacity="0.4854441647393656" />
<circle cx="1452.9507621985672" cy="137.95001341591941" r="0.7053086335902496" fill="#ffffff" opacity="0.49423079868179676" />
<circle cx="1462.030450987667" cy="278.04695730371395" r="0.2534871222274451" fill="#ffffff" opacity="0.7251352624306044" />
<circle cx="1412.4236140445942" cy="127.3006104084762" r="0.583838440018982" fill="#ffffff" opacity="0.5733262423482088" />
<circle cx="156.4541427895431" cy="101.79945987030167" r="0.8931281673200366" fill="#ffffff" opacity="0.9000062387722565" />
<circle cx="440.26717504366" cy="235.3726535921008" r="0.590281769061191" fill="#ffffff" opacity="0.9688269861915941" />
<circle cx="90.15315765874566" cy="201.3983242614235" r="0.48106174459621437" fill="#ffffff" opacity="0.8102385705023507" />
<circle cx="838.9669918887187" cy="161.8763285497081" r="0.36872499046338725" fill="#ffffff" opacity="0.8328012904630038" />
<circle cx="1490.9700996936017" cy="187.76695282463405" r="0.5144395009168254" fill="#ffffff" opacity="0.5569616044385525" />
<circle cx="574.1220868108793" cy="194.29437539219276" r="0.3541371117963532" fill="#ffffff" opacity="0.42240331907181244" />
<circle cx="347.1790122865926" cy="13.787107637851094" r="0.8080333698863473" fill="#ffffff" opacity="0.23940379835303302" />
<circle cx="1365.915849772671" cy="118.6618080937543" r="0.4680977810989636" fill="#ffffff" opacity="0.571766784227989" />
<circle cx="957.4636446446935" cy="183.03210068900242" r="0.3505789980966813" fill="#ffffff" opacity="0.9935541458183488" />
<circle cx="1503.1594534085286" cy="153.6724309324629" r="0.969304617990115" fill="#ffffff" opacity="0.2760890414329109" />
<circle cx="1211.996005866864" cy="243.1835668209059" r="0.6996812726876047" fill="#ffffff" opacity="0.6870734020085624" />
<circle cx="279.000724197212" cy="267.35920915131896" r="0.512008541056983" fill="#ffffff" opacity="0.9026550677313756" />
<circle cx="274.2069848821277" cy="86.02909298519579" r="0.4053137904280389" fill="#ffffff" opacity="0.6373681557120032" />
<circle cx="652.6423711380803" cy="147.65344545754942" r="0.8653677744125059" fill="#ffffff" opacity="0.6143204858540705" />
<circle cx="1341.0545611010127" cy="239.5691694279895" r="0.2811823950711809" fill="#ffffff" opacity="0.6935051234428294" />
<circle cx="1613.6121856841532" cy="139.2884052066321" r="0.2221499931874168" fill="#ffffff" opacity="0.8608473430186143" />
<circle cx="1045.461366748853" cy="9.158538157770991" r="0.9618515407509991" fill="#ffffff" opacity="0.3121305316622503" />
<circle cx="1676.7244093901984" cy="61.44060808429788" r="0.5909810740706171" fill="#ffffff" opacity="0.35966877729074964" />
<circle cx="201.67946024298772" cy="266.6050961390953" r="0.7091382381316937" fill="#ffffff" opacity="0.6166703001506801" />
<circle cx="962.6131316681038" cy="101.47219643154396" r="0.723031652435191" fill="#ffffff" opacity="0.827041361270602" />
<circle cx="1277.7846295728225" cy="65.30207089949232" r="0.9055274091989811" fill="#ffffff" opacity="0.9103312690560827" />
<circle cx="696.8443878335355" cy="294.8703445836463" r="0.7931762869031669" fill="#ffffff" opacity="0.2296003636767134" />
<circle cx="1512.9224277723877" cy="226.52174847360206" r="0.3690840797545074" fill="#ffffff" opacity="0.7749107601819296" />
<circle cx="472.7282309705042" cy="282.78347276160525" r="0.28485342758708526" fill="#ffffff" opacity="0.9308336271735154" />
<circle cx="406.7495917623061" cy="3.167861816055051" r="0.5494583428485806" fill="#ffffff" opacity="0.7982542820615663" />
<circle cx="477.82174408478085" cy="131.15228145820612" r="0.299990770176751" fill="#ffffff" opacity="0.5517546655990333" />
<circle cx="1067.7576636596523" cy="288.7530022488871" r="0.3169850780670479" fill="#ffffff" opacity="0.993789594264237" />
<circle cx="1198.7626007985173" cy="154.909723072286" r="0.9630816238382447" fill="#ffffff" opacity="0.6115698768478737" />
<circle cx="320.490292937695" cy="7.393310237882922" r="0.5418500287112724" fill="#ffffff" opacity="0.415967100194385" />
<circle cx="1392.9172943030626" cy="145.80573710311202" r="0.7464488996064969" fill="#ffffff" opacity="0.6443271028249462" />
<circle cx="1591.587421545028" cy="175.45430495843888" r="0.5844192508952764" fill="#ffffff" opacity="0.3322747010398708" />
<circle cx="1342.1868004001794" cy="66.90855678204548" r="0.6037365385157722" fill="#ffffff" opacity="0.6438306056613956" />
<circle cx="837.780958548675" cy="55.10851878099861" r="0.9426403748037087" fill="#ffffff" opacity="0.9849304413631892" />
<circle cx="925.2847252319582" cy="60.59154027292766" r="0.9105414732329988" fill="#ffffff" opacity="0.9278784960512214" />
<circle cx="311.124700136729" cy="132.73500382806617" r="0.3477842751253666" fill="#ffffff" opacity="0.6263140523421564" />
<circle cx="1550.5322957474464" cy="239.48971069794035" r="0.46153034812341237" fill="#ffffff" opacity="0.7048963779533561" />
<circle cx="166.88662297216172" cy="243.32733625677412" r="0.7599751851339107" fill="#ffffff" opacity="0.3238225322408934" />
<circle cx="692.7293753715868" cy="49.78174199876222" r="0.9643820489552084" fill="#ffffff" opacity="0.6484115904624461" />
<circle cx="353.8332250740854" cy="253.39434324654758" r="0.6782584624251526" fill="#ffffff" opacity="0.4857912161447339" />
<circle cx="927.563523075136" cy="209.56883608274703" r="0.20762884432327092" fill="#ffffff" opacity="0.8048986856663873" />
<circle cx="639.1069874921947" cy="109.69054646048284" r="0.26018668968145076" fill="#ffffff" opacity="0.37632574688832465" />
<circle cx="281.5059195256905" cy="226.27769081721198" r="0.3796268291892803" fill="#ffffff" opacity="0.35121963324427075" />
<circle cx="583.9440263080238" cy="47.33585043436301" r="0.8476594629867722" fill="#ffffff" opacity="0.5596697405864317" />
<circle cx="61.14463863161892" cy="219.48354561892137" r="0.2625939989348507" fill="#ffffff" opacity="0.7340920469343439" />
<circle cx="773.8938913174097" cy="254.09869354836616" r="0.6948781199791032" fill="#ffffff" opacity="0.9682908726195734" />
<circle cx="1685.941481434488" cy="41.54717334992078" r="0.9211967678246327" fill="#ffffff" opacity="0.7350316459455264" />
<circle cx="1299.2786819117098" cy="94.76946186737176" r="0.5596554638584224" fill="#ffffff" opacity="0.9264907642067775" />
<circle cx="1036.9536219172041" cy="138.34097417712934" r="0.875527495892876" fill="#ffffff" opacity="0.7011259132913514" />
<circle cx="1678.1481363311552" cy="203.6925652840297" r="0.8222734057406533" fill="#ffffff" opacity="0.6523855187736243" />
<circle cx="619.3519795836569" cy="143.28352395878386" r="0.40917963010622416" fill="#ffffff" opacity="0.350741866452017" />
<circle cx="1357.3947270606657" cy="203.9544697434916" r="0.522301675845033" fill="#ffffff" opacity="0.5357080110423987" />
<circle cx="324.0288259825899" cy="79.7091766679675" r="0.4914458429618684" fill="#ffffff" opacity="0.869821434864271" />
<circle cx="261.18048952221903" cy="199.5795019861482" r="0.27701907968043077" fill="#ffffff" opacity="0.38913550914446626" />
<circle cx="538.4668682065728" cy="130.95023662471982" r="0.5282296507157245" fill="#ffffff" opacity="0.6123014946841572" />
<circle cx="655.7105547718011" cy="18.033990757088503" r="0.46083815048109705" fill="#ffffff" opacity="0.333411642404754" />
<circle cx="1208.3282299060938" cy="227.2057546273166" r="0.5366810916585174" fill="#ffffff" opacity="0.7311049475006921" />
<circle cx="366.70422910029475" cy="62.832844349187724" r="0.6459024951196112" fill="#ffffff" opacity="0.8203118791133477" />
<circle cx="1450.2655594312027" cy="243.16931342744593" r="0.5401347611833369" fill="#ffffff" opacity="0.5034363516826681" />
<circle cx="76.42049095927047" cy="146.48305490484768" r="0.47432585981044756" fill="#ffffff" opacity="0.4718878255086173" />
<circle cx="1292.1257842444818" cy="295.6615953494435" r="0.6776054047237681" fill="#ffffff" opacity="0.8193234096163378" />
<circle cx="496.5766903440433" cy="38.029318833313816" r="0.5254693994570637" fill="#ffffff" opacity="0.8890215471988354" />
<circle cx="1417.519384062461" cy="14.11253283757925" r="0.9559777411006742" fill="#ffffff" opacity="0.955289368451375" />
<circle cx="1140.0777866765166" cy="96.92452074961963" r="0.6670143531322255" fill="#ffffff" opacity="0.31360749141089617" />
<circle cx="686.8065265370411" cy="101.15769208301745" r="0.27329703803780636" fill="#ffffff" opacity="0.6323325915244675" />
<circle cx="146.1404710081254" cy="188.1815041607115" r="0.4254360194183502" fill="#ffffff" opacity="0.43818870952714245" />
<circle cx="90.71684651459735" cy="191.21417590330125" r="0.6101924113009709" fill="#ffffff" opacity="0.6245109229324428" />
<circle cx="1168.3123992344667" cy="187.36427014510593" r="0.29886266577480153" fill="#ffffff" opacity="0.3061022407188394" />
<circle cx="1540.6122023519233" cy="56.238624352508516" r="0.4236438332394838" fill="#ffffff" opacity="0.7302179104737856" />
<circle cx="713.7379985912621" cy="281.6541980764802" r="0.910696455951644" fill="#ffffff" opacity="0.7852706583178268" />
<circle cx="1356.830905188825" cy="59.95517729753025" r="0.7545761399165176" fill="#ffffff" opacity="0.27859092782292766" />
<circle cx="125.92052691977638" cy="193.59257280151695" r="0.31464858779931304" fill="#ffffff" opacity="0.6832386117899347" />
<circle cx="1550.6859161265934" cy="68.26301646138609" r="0.5828542386189867" fill="#ffffff" opacity="0.470832165484271" />
<circle cx="1443.4770739127698" cy="142.35859977407847" r="0.3740553466932121" fill="#ffffff" opacity="0.4602622142070775" />
<circle cx="1462.745335918351" cy="98.07360871810414" r="0.5319797418294054" fill="#ffffff" opacity="0.5899154921276599" />
<circle cx="527.120959179393" cy="192.08241332751365" r="0.567040214679223" fill="#ffffff" opacity="0.9028504574482963" />
<circle cx="1386.92279575808" cy="40.37053840015458" r="0.9009144853381703" fill="#ffffff" opacity="0.8928681491151855" />
<circle cx="68.51221094869601" cy="279.5636653742708" r="0.8683020774355952" fill="#ffffff" opacity="0.693448796384643" />
<circle cx="1237.9129659264975" cy="122.68861447049458" r="0.3410050391287879" fill="#ffffff" opacity="0.34741195832213756" />
<circle cx="1668.3046285985258" cy="244.8626167445733" r="0.8839467946759203" fill="#ffffff" opacity="0.9394855404465887" />
<circle cx="1474.325936293808" cy="85.66455185600904" r="0.4852369116084738" fill="#ffffff" opacity="0.2226386149903674" />
<circle cx="226.563196106888" cy="19.406183113392515" r="0.6579715371544955" fill="#ffffff" opacity="0.5729125936848611" />
<circle cx="1658.4182964021581" cy="28.568265010159955" r="0.21523627237985582" fill="#ffffff" opacity="0.37372733767735405" />
<circle cx="1584.4049064391745" cy="251.72399503223335" r="0.3619706196927931" fill="#ffffff" opacity="0.9416378052146377" />
<circle cx="857.9666776131317" cy="186.8828397846244" r="0.8577984616930152" fill="#ffffff" opacity="0.8766496261595529" />
<circle cx="1505.7602813771045" cy="231.61915535304328" r="0.24993859860244216" fill="#ffffff" opacity="0.7305182828035541" />
<circle cx="232.18244096759346" cy="122.41651610498876" r="0.24895489408341467" fill="#ffffff" opacity="0.5873833761236289" />
<circle cx="907.5775480102543" cy="247.9462311768658" r="0.5380550589679756" fill="#ffffff" opacity="0.9834992665823585" />
<circle cx="1698.1656430259684" cy="15.881718399243184" r="0.31800058780754886" fill="#ffffff" opacity="0.26731798565791626" />
<circle cx="1075.7307014010025" cy="0.8039369514167838" r="0.2948219057260622" fill="#ffffff" opacity="0.20211220917603506" />
<circle cx="170.2369509671763" cy="80.9892783049748" r="0.30985932335223665" fill="#ffffff" opacity="0.4085186140643094" />
<circle cx="696.3086916881139" cy="292.06040473977913" r="0.2084953856963032" fill="#ffffff" opacity="0.9754366888400641" />
<circle cx="884.0341148418568" cy="70.30904092651758" r="0.6851687571476722" fill="#ffffff" opacity="0.7795962429706296" />
<circle cx="498.46548391112617" cy="101.93662638582738" r="0.3765798708149576" fill="#ffffff" opacity="0.45565750587598086" />
<circle cx="1469.1229103045562" cy="144.21132690975335" r="0.7179114355005454" fill="#ffffff" opacity="0.6944085361459775" />
<circle cx="1220.48124450142" cy="181.5238845210079" r="0.47223706029110546" fill="#ffffff" opacity="0.7921937407855899" />
<circle cx="33.36260213166409" cy="145.85225949289853" r="0.7514447007410661" fill="#ffffff" opacity="0.4195790805857378" />
<circle cx="200.52261839158527" cy="261.41976817462324" r="0.38432254637239993" fill="#ffffff" opacity="0.9102953935575104" />
<circle cx="1246.6513694623213" cy="77.39214081974947" r="0.43925740318116663" fill="#ffffff" opacity="0.4016310982420496" />
<circle cx="1022.1541876125168" cy="177.68205315283237" r="0.5366448781604753" fill="#ffffff" opacity="0.9313216291883604" />
<circle cx="49.339901841092484" cy="137.15882045877515" r="0.7725336809891166" fill="#ffffff" opacity="0.40100255102948124" />
<circle cx="1358.6770294184312" cy="160.15319885427851" r="0.8035213012533478" fill="#ffffff" opacity="0.21156399630854922" />
<circle cx="781.5448422579288" cy="172.78958187969062" r="0.3973104334911927" fill="#ffffff" opacity="0.4080762798957238" />
<circle cx="1323.090367172407" cy="211.99569198894218" r="0.775535182633287" fill="#ffffff" opacity="0.7926159566033839" />
<circle cx="990.5854774104448" cy="275.767699422591" r="0.21187415037637347" fill="#ffffff" opacity="0.8414094112330728" />
<circle cx="1065.743391124676" cy="261.46805390813466" r="0.7460907764214859" fill="#ffffff" opacity="0.6162058787638547" />
<circle cx="1659.2809434598169" cy="274.22728262911664" r="0.5783759514962841" fill="#ffffff" opacity="0.626504336085272" />
<circle cx="362.1813210771559" cy="100.51785417127894" r="0.9023911012568131" fill="#ffffff" opacity="0.2990674654812508" />
<circle cx="1532.5236524082495" cy="238.66754288788917" r="0.6373416567644745" fill="#ffffff" opacity="0.4447662405813345" />
<circle cx="554.8618342721106" cy="204.6222489056221" r="0.2211257918982077" fill="#ffffff" opacity="0.8482965853688631" />
<circle cx="653.5547305660066" cy="96.27867926101801" r="0.6762079865211705" fill="#ffffff" opacity="0.5937812523108434" />
<circle cx="1627.102700330329" cy="103.90201187912707" r="0.8539790618842387" fill="#ffffff" opacity="0.8150114346785984" />
<circle cx="161.92928462073814" cy="294.75335429875844" r="0.6622928083071513" fill="#ffffff" opacity="0.46132519094559704" />
<circle cx="74.70192314467278" cy="262.1393154002847" r="0.38579949735742053" fill="#ffffff" opacity="0.8904690951906378" />
<circle cx="1668.0977452582315" cy="58.055809274511574" r="0.969641708188574" fill="#ffffff" opacity="0.7338692117795478" />
<circle cx="1389.761655559563" cy="115.19891384401582" r="0.34593168412006625" fill="#ffffff" opacity="0.39123596616121636" />
<circle cx="223.78817002408869" cy="238.51857805130985" r="0.5961546499261192" fill="#ffffff" opacity="0.9909431727015241" />
<circle cx="259.55194167329347" cy="154.87523202097805" r="0.47951144959825875" fill="#ffffff" opacity="0.7476783223816772" />
<circle cx="323.85444893788844" cy="2.2219998355273995" r="0.5788008004760098" fill="#ffffff" opacity="0.7918380520093269" />
<circle cx="50.78893914080289" cy="209.88289255734034" r="0.615225333120131" fill="#ffffff" opacity="0.6536999370580758" />
<circle cx="1554.1113376361116" cy="122.02062875243887" r="0.6314282447433293" fill="#ffffff" opacity="0.762775453191237" />
<circle cx="1541.1413337473427" cy="126.7957158690493" r="0.2461807768420318" fill="#ffffff" opacity="0.3400432877791591" />
<circle cx="1586.8189287892094" cy="80.61320282511657" r="0.7012500801484383" fill="#ffffff" opacity="0.5421746767399808" />
<circle cx="1378.4644981530823" cy="171.84234340040558" r="0.360863154496201" fill="#ffffff" opacity="0.7019530301066788" />
<circle cx="838.2037972953971" cy="174.10359227315269" r="0.5036618752451612" fill="#ffffff" opacity="0.774193692963955" />
<circle cx="911.3727021142964" cy="197.36463846791023" r="0.8332441255279828" fill="#ffffff" opacity="0.49657661772518175" />
<circle cx="348.3494238597546" cy="214.69022747554283" r="0.7768807634195298" fill="#ffffff" opacity="0.6721279713287402" />
<circle cx="684.242007927325" cy="224.61109082840912" r="0.8944947267410186" fill="#ffffff" opacity="0.21562103234694316" />
<circle cx="631.0216055274718" cy="24.74478393214533" r="0.6958612280767011" fill="#ffffff" opacity="0.5231274533430852" />
<circle cx="1188.5323046810367" cy="232.8879502350692" r="0.7194769689726799" fill="#ffffff" opacity="0.5222482709651552" />
<circle cx="790.6854283744444" cy="116.93159767159416" r="0.5806023050383439" fill="#ffffff" opacity="0.6448954181268165" />
<circle cx="714.7251531298247" cy="211.22629592626296" r="0.23124359487712712" fill="#ffffff" opacity="0.7646249806248646" />
<circle cx="8.788114612183229" cy="205.85010419534547" r="0.48254022172702626" fill="#ffffff" opacity="0.3104856336890664" />
<circle cx="1249.0215074047762" cy="94.18340237895006" r="0.2830648388203587" fill="#ffffff" opacity="0.6183362778570458" />
<circle cx="940.8816129545492" cy="258.1798849811975" r="0.7296155901712649" fill="#ffffff" opacity="0.31191056627698277" />
<circle cx="426.49028838319873" cy="205.92104666512074" r="0.6567729464440226" fill="#ffffff" opacity="0.5775415678550361" />
<circle cx="758.2823651590716" cy="209.48087165111596" r="0.2329071799152274" fill="#ffffff" opacity="0.5636726186237488" />
<circle cx="107.97833618606595" cy="220.20989206523237" r="0.31924043205115993" fill="#ffffff" opacity="0.5003252975109018" />
<circle cx="1377.705253551018" cy="202.02130121701046" r="0.6557020138022001" fill="#ffffff" opacity="0.6938874854655088" />
<circle cx="225.38164931852012" cy="47.55061595792203" r="0.8052078041387423" fill="#ffffff" opacity="0.7231191927051472" />
<circle cx="949.8600426227331" cy="239.08559890625133" r="0.5315579567420741" fill="#ffffff" opacity="0.3839388477618269" />
<circle cx="668.949075805951" cy="277.620817268572" r="0.41624744438146044" fill="#ffffff" opacity="0.8277021769561814" />
<circle cx="903.1515526055919" cy="136.39809629724962" r="0.3304368815741662" fill="#ffffff" opacity="0.9772838254965133" />
<circle cx="1309.6338908778278" cy="234.30894536305766" r="0.6724020562798025" fill="#ffffff" opacity="0.8996086653400512" />
<circle cx="799.1942314210189" cy="295.95213016297083" r="0.4401355534871474" fill="#ffffff" opacity="0.7083583902345552" />
<circle cx="326.2691120170124" cy="76.94684818511054" r="0.40145904458936554" fill="#ffffff" opacity="0.4449919043973844" />
<circle cx="752.1978075064969" cy="159.4270962061682" r="0.293205346396774" fill="#ffffff" opacity="0.22310844165804955" />
<circle cx="824.5915033032041" cy="275.4949652179706" r="0.4073874314895072" fill="#ffffff" opacity="0.8077000063807356" />
<circle cx="173.62911975659128" cy="225.4129920204562" r="0.9331562224367895" fill="#ffffff" opacity="0.9414903430281272" />
<circle cx="501.45155274987206" cy="143.28317146357645" r="0.20042736004828463" fill="#ffffff" opacity="0.3796859991161024" />
<circle cx="431.5845856304264" cy="189.0415494549197" r="0.5657403545979183" fill="#ffffff" opacity="0.48213820981488714" />
<circle cx="282.2087329431156" cy="18.386882477551513" r="0.9725318740967948" fill="#ffffff" opacity="0.20410203703954055" />
<circle cx="1599.8088054037266" cy="92.03194666550098" r="0.9261810623133158" fill="#ffffff" opacity="0.3026297115710893" />
<circle cx="225.96727114851404" cy="168.29679794139585" r="0.36868358566578685" fill="#ffffff" opacity="0.6875921392371387" />
<circle cx="308.7796449519822" cy="241.22906322076403" r="0.48460070815184153" fill="#ffffff" opacity="0.5008433306799422" />
<circle cx="326.12505773967706" cy="232.37566674196256" r="0.8203848070741218" fill="#ffffff" opacity="0.5763184043154178" />
<circle cx="1469.0346911976867" cy="155.2545236218071" r="0.9682259248900968" fill="#ffffff" opacity="0.531177052979102" />
<circle cx="168.65960776020412" cy="54.404937733650996" r="0.5415303566539296" fill="#ffffff" opacity="0.7633175817842268" />
<circle cx="852.0803324356857" cy="184.27171686275616" r="0.47529165948670865" fill="#ffffff" opacity="0.6498459141150522" />
<circle cx="1664.9371387041774" cy="21.334269200244037" r="0.5816060612234419" fill="#ffffff" opacity="0.7381628767119333" />
<circle cx="800.8084845975841" cy="163.10979270695927" r="0.26666926403660124" fill="#ffffff" opacity="0.7408272934767761" />
<circle cx="1572.9454233377605" cy="36.83843742593497" r="0.3660024429381353" fill="#ffffff" opacity="0.4720150461347486" />
<circle cx="971.6125125355021" cy="119.54797404061173" r="0.7400471063378868" fill="#ffffff" opacity="0.8149212889681658" />
<circle cx="282.39745402630734" cy="146.04215289575373" r="0.5669932497342356" fill="#ffffff" opacity="0.7308169961731481" />
<circle cx="613.3579202019462" cy="260.9630287429626" r="0.9246772188820549" fill="#ffffff" opacity="0.3741750772718664" />
<circle cx="1387.644601409555" cy="202.16171608071198" r="0.4750374929852956" fill="#ffffff" opacity="0.42908618368558077" />
<circle cx="674.708911885047" cy="143.5331346493796" r="0.34378263424663247" fill="#ffffff" opacity="0.6618308811228613" />

  </g>

  <!-- Layer 2: Midground Stars (Medium) -->
  <g style="animation: scroll-medium 60s linear infinite;">
    <circle cx="394.7950714378366" cy="14.94604262766812" r="1.5959603041063477" fill="#00f0ff" opacity="0.9031364455818092" />
<circle cx="1179.0560086230785" cy="115.10353796766165" r="1.6713220284436787" fill="#00f0ff" opacity="0.9274899907067975" />
<circle cx="717.3509417687565" cy="216.74273855415456" r="1.1645215462185936" fill="#00f0ff" opacity="0.6940217504262791" />
<circle cx="485.1752838041935" cy="36.46405153212681" r="0.9974509359650501" fill="#00f0ff" opacity="0.4519195346538936" />
<circle cx="573.5468087968251" cy="151.70289981888823" r="0.4108421843618476" fill="#00f0ff" opacity="0.41623038341941987" />
<circle cx="1609.234033456643" cy="215.23890506572215" r="1.6002704026803343" fill="#00f0ff" opacity="0.3820684802052199" />
<circle cx="1047.5569763810568" cy="114.05069371616028" r="1.5531855527167584" fill="#00f0ff" opacity="0.7430964627905303" />
<circle cx="1539.9318513821593" cy="84.19912056479053" r="1.137926471359233" fill="#00f0ff" opacity="0.4640627575270667" />
<circle cx="967.4417462710486" cy="46.4359003899663" r="0.5613315604031912" fill="#00f0ff" opacity="0.23250494615059536" />
<circle cx="1129.989570205048" cy="250.960473866408" r="0.7084433258404212" fill="#00f0ff" opacity="0.9157374761655437" />
<circle cx="1234.5766624710127" cy="13.103247034500864" r="1.0639320370592387" fill="#00f0ff" opacity="0.6446562849301971" />
<circle cx="183.96647495956032" cy="204.61325283031897" r="0.4116442740829487" fill="#00f0ff" opacity="0.8326478246458726" />
<circle cx="1348.480182759283" cy="76.25095552545129" r="0.6550909006499459" fill="#00f0ff" opacity="0.42171862508590624" />
<circle cx="629.9389800895432" cy="111.84723182170448" r="1.4547904566470502" fill="#00f0ff" opacity="0.44179561288386937" />
<circle cx="1082.478865989648" cy="167.61712003488805" r="0.678684453564708" fill="#00f0ff" opacity="0.9765038634676968" />
<circle cx="1016.0326867084257" cy="248.79121927748398" r="0.5685611698330734" fill="#00f0ff" opacity="0.8737543334055469" />
<circle cx="1090.2649180222834" cy="4.387787734451232" r="1.5854066067483878" fill="#00f0ff" opacity="0.4846824365995914" />
<circle cx="73.94843702078717" cy="133.12093489408943" r="1.3571365742302683" fill="#00f0ff" opacity="0.41778315951263845" />
<circle cx="1324.6187062456022" cy="201.61032137812438" r="1.6672798335768289" fill="#00f0ff" opacity="0.7805751739659268" />
<circle cx="138.30069073158487" cy="109.89686039182678" r="0.8530442506093365" fill="#00f0ff" opacity="0.2924688514841403" />
<circle cx="657.9113029568927" cy="8.4278038293501" r="0.3273220378894293" fill="#00f0ff" opacity="0.8644234441544818" />
<circle cx="784.4251889492617" cy="207.20823068510055" r="1.4501692313312582" fill="#00f0ff" opacity="0.5213065159924721" />
<circle cx="263.0013199372701" cy="121.35148091408745" r="1.0740786015249502" fill="#00f0ff" opacity="0.9677405383634685" />
<circle cx="836.5888709733226" cy="196.53622580919935" r="0.53649222026812" fill="#00f0ff" opacity="0.99774602712056" />
<circle cx="1333.5738181374902" cy="163.53541856164858" r="1.311190556765881" fill="#00f0ff" opacity="0.9030103530254341" />
<circle cx="290.62126724353374" cy="86.69398466298011" r="0.7040071375478363" fill="#00f0ff" opacity="0.6649320167399058" />
<circle cx="1204.8001283136045" cy="53.35196426676936" r="1.1445533560628083" fill="#00f0ff" opacity="0.632690813678426" />
<circle cx="995.9198196628254" cy="279.37981885493053" r="0.6663798576397262" fill="#00f0ff" opacity="0.9970954294976755" />
<circle cx="856.5277840726932" cy="54.26667877282154" r="0.6481413160506768" fill="#00f0ff" opacity="0.39698804513951036" />
<circle cx="579.5360136633693" cy="111.17184924471248" r="0.875337221600579" fill="#00f0ff" opacity="0.995310576219276" />
<circle cx="1113.978658380519" cy="288.2190110582521" r="1.5238213722553946" fill="#00f0ff" opacity="0.6254536257036716" />
<circle cx="917.3660056147746" cy="185.37299430675822" r="1.0411235107521255" fill="#00f0ff" opacity="0.7349752167520225" />
<circle cx="672.2457927650637" cy="265.1154460655193" r="1.5761637382209923" fill="#00f0ff" opacity="0.6168618729389881" />
<circle cx="1319.1740301900838" cy="17.10148937954088" r="0.8498777243641236" fill="#00f0ff" opacity="0.46120645549426387" />
<circle cx="1421.679408940366" cy="119.58860953547763" r="0.2533253054698845" fill="#00f0ff" opacity="0.7051006133503883" />
<circle cx="125.36504715175644" cy="112.33588186294962" r="0.5687074397365615" fill="#00f0ff" opacity="0.6125849624047213" />
<circle cx="1121.5843105191057" cy="177.66239877911136" r="0.3368790549250242" fill="#00f0ff" opacity="0.5314220349434469" />
<circle cx="537.55384719574" cy="145.59339081187602" r="1.584498313440174" fill="#00f0ff" opacity="0.5658691307170374" />
<circle cx="1675.7008258601156" cy="299.45638999256465" r="1.1983685606196945" fill="#00f0ff" opacity="0.9307987914209657" />
<circle cx="1615.312108071245" cy="97.43389921549785" r="1.2930772609470393" fill="#00f0ff" opacity="0.37239521686486726" />
<circle cx="259.9726596195552" cy="289.10350446771633" r="0.8262794850394943" fill="#00f0ff" opacity="0.9230787736187067" />
<circle cx="662.5164249226323" cy="52.3675438067944" r="0.24021172904185334" fill="#00f0ff" opacity="0.9910684434107415" />
<circle cx="171.6640235958982" cy="127.23954437741085" r="0.9290183369509983" fill="#00f0ff" opacity="0.9208956682463767" />
<circle cx="484.0293402137668" cy="177.593358482313" r="1.6695828820016463" fill="#00f0ff" opacity="0.884129306556473" />
<circle cx="1148.371044986676" cy="233.5202226302959" r="0.25841625644239213" fill="#00f0ff" opacity="0.769595858816081" />
<circle cx="967.1782500864502" cy="227.64393914922186" r="0.7781603799790198" fill="#00f0ff" opacity="0.6738008705669112" />
<circle cx="93.66061304996799" cy="273.8042392023922" r="1.291401106200354" fill="#00f0ff" opacity="0.5609527708497908" />
<circle cx="1075.1318206256472" cy="169.85282636117003" r="0.5925905428510899" fill="#00f0ff" opacity="0.22970589192341456" />
<circle cx="95.0468369709342" cy="61.350960779854844" r="0.4528312922260387" fill="#00f0ff" opacity="0.6485407415609576" />
<circle cx="282.7211552335817" cy="264.27219872279477" r="0.3699912255226316" fill="#00f0ff" opacity="0.716377291732339" />
<circle cx="254.6377363061462" cy="23.950895911726832" r="0.5562066658998167" fill="#00f0ff" opacity="0.3436377545063204" />
<circle cx="1360.6143442618593" cy="178.28995490643388" r="1.3440546974795835" fill="#00f0ff" opacity="0.4733027503131795" />
<circle cx="465.9370416774922" cy="291.33606838598524" r="0.8391201305452232" fill="#00f0ff" opacity="0.8514880440917076" />
<circle cx="1685.6013572154238" cy="148.7781402669674" r="1.3022885287475414" fill="#00f0ff" opacity="0.27653902567234473" />
<circle cx="1281.057360700372" cy="211.02300158598104" r="1.445068662236803" fill="#00f0ff" opacity="0.6295051489468451" />
<circle cx="846.8136703203651" cy="236.73646109646256" r="1.59116782200554" fill="#00f0ff" opacity="0.7687478611494178" />
<circle cx="864.7863450096982" cy="174.17330640315657" r="0.7326370535130031" fill="#00f0ff" opacity="0.254669749447324" />
<circle cx="691.432611455698" cy="146.0402020250115" r="0.21498444429169405" fill="#00f0ff" opacity="0.4695116192772587" />
<circle cx="1054.2984776967257" cy="278.9929444343979" r="1.4043869029951352" fill="#00f0ff" opacity="0.8260363503511321" />
<circle cx="1655.7545634679343" cy="297.3390269165997" r="0.6162213084455573" fill="#00f0ff" opacity="0.41471691058182875" />
<circle cx="1587.5361528011895" cy="180.83546859577737" r="1.4060453988944206" fill="#00f0ff" opacity="0.5858081031383149" />
<circle cx="452.4932873735974" cy="125.14415983279294" r="0.4770802390006266" fill="#00f0ff" opacity="0.48494597624102403" />
<circle cx="510.39777716720414" cy="61.93914904592903" r="1.015366676400542" fill="#00f0ff" opacity="0.6412977407838871" />
<circle cx="712.8396064890434" cy="147.1231559141557" r="1.6695451120747398" fill="#00f0ff" opacity="0.9590406856065987" />
<circle cx="436.09222032402783" cy="119.38264983226725" r="0.8526281762065218" fill="#00f0ff" opacity="0.26997357489664336" />
<circle cx="561.9167212097874" cy="16.52370573331772" r="1.2728063454593233" fill="#00f0ff" opacity="0.47229985526740964" />
<circle cx="73.5719396360065" cy="13.708389110513652" r="0.8683380809010492" fill="#00f0ff" opacity="0.48491355276003534" />
<circle cx="500.04412576059116" cy="245.53494777920787" r="0.6911451552338894" fill="#00f0ff" opacity="0.8068047763702206" />
<circle cx="1693.7961860518335" cy="299.4732413477368" r="0.7199596901402856" fill="#00f0ff" opacity="0.8931435089551787" />
<circle cx="709.3826045120738" cy="85.20920272013069" r="0.40584917157028216" fill="#00f0ff" opacity="0.637892809404843" />
<circle cx="338.49209048736316" cy="81.93992257911876" r="0.5773743301497367" fill="#00f0ff" opacity="0.9451026841612358" />
<circle cx="450.0640486718262" cy="73.38161140879134" r="1.0678313930986" fill="#00f0ff" opacity="0.4585559816083695" />
<circle cx="408.45923038761754" cy="112.86957479509468" r="1.145822534657092" fill="#00f0ff" opacity="0.4288363009706032" />
<circle cx="1678.6267205235506" cy="63.22647929524759" r="1.3762341271444296" fill="#00f0ff" opacity="0.45186039724269905" />
<circle cx="80.31544499773538" cy="101.20797309060409" r="1.2260182544833598" fill="#00f0ff" opacity="0.9139900316429663" />
<circle cx="187.52618791230603" cy="182.2072286955044" r="1.6367496574619917" fill="#00f0ff" opacity="0.6444062115547977" />
<circle cx="375.3544507541747" cy="274.6002446224878" r="0.9527080159433459" fill="#00f0ff" opacity="0.6193642542106486" />
<circle cx="682.8876782989756" cy="186.57951948486772" r="1.1409561782054363" fill="#00f0ff" opacity="0.7734789401795787" />
<circle cx="983.0326879799508" cy="5.420928704840233" r="0.8504406926673334" fill="#00f0ff" opacity="0.5955098231119809" />
<circle cx="169.11241520363097" cy="236.6696004855226" r="0.8382821922362069" fill="#00f0ff" opacity="0.4244577298995606" />
<circle cx="576.8600149121214" cy="176.0615776094297" r="0.5861523575733509" fill="#00f0ff" opacity="0.289031676819186" />
<circle cx="663.8767140245833" cy="25.600019055476274" r="1.6051598789688442" fill="#00f0ff" opacity="0.4055033429680388" />
<circle cx="706.1457518744803" cy="189.72821977640893" r="1.267074207830589" fill="#00f0ff" opacity="0.8274814483485984" />
<circle cx="876.8484432575082" cy="149.50426341882894" r="0.6493101922882357" fill="#00f0ff" opacity="0.9324831818579764" />
<circle cx="477.4014944294608" cy="239.30866891126578" r="1.3600415060549267" fill="#00f0ff" opacity="0.7409901279298978" />
<circle cx="618.2278822119856" cy="98.91263158824832" r="1.1238675084124063" fill="#00f0ff" opacity="0.7774703446798541" />
<circle cx="1297.8304419435822" cy="75.93706714185542" r="0.7493566159777756" fill="#00f0ff" opacity="0.7217841848584885" />
<circle cx="224.79205769193078" cy="198.03840590714475" r="1.4286254189915468" fill="#00f0ff" opacity="0.27119297370270873" />
<circle cx="850.2920835373378" cy="230.11205158523404" r="1.5402666977498907" fill="#00f0ff" opacity="0.5021564723241863" />
<circle cx="391.05652188198167" cy="263.0868219063395" r="1.6234065100719985" fill="#00f0ff" opacity="0.9164479222829287" />
<circle cx="1306.1919333829119" cy="67.3262391952449" r="1.0849184066830453" fill="#00f0ff" opacity="0.5375747451373201" />
<circle cx="1368.604117941091" cy="13.135444908745697" r="1.261905223936939" fill="#00f0ff" opacity="0.28538538417302456" />
<circle cx="1575.830620036227" cy="85.32982153943503" r="0.6653925748590979" fill="#00f0ff" opacity="0.48382009172248597" />
<circle cx="358.7783977050889" cy="156.34070323823568" r="1.6493098735452734" fill="#00f0ff" opacity="0.5777410547492787" />
<circle cx="787.4895995561014" cy="248.32030053699185" r="1.3646266679980215" fill="#00f0ff" opacity="0.7234487245409851" />
<circle cx="633.5182681893916" cy="15.892551850528303" r="1.078298779284088" fill="#00f0ff" opacity="0.6983523395203092" />
<circle cx="1162.5908135666716" cy="266.70383792249265" r="0.371854374335171" fill="#00f0ff" opacity="0.21551236890447614" />
<circle cx="1063.785389939922" cy="71.75190215789652" r="0.432282113296354" fill="#00f0ff" opacity="0.43515876005226134" />
<circle cx="405.48958110746463" cy="125.60556345332911" r="1.2554442196154418" fill="#00f0ff" opacity="0.3371892887766065" />
<circle cx="1166.8685819713444" cy="163.37728713181485" r="0.9403110301972815" fill="#00f0ff" opacity="0.36398236799857203" />
<circle cx="832.2696886402102" cy="148.24938359778278" r="1.5408439580917623" fill="#00f0ff" opacity="0.9569634826591049" />
<circle cx="1202.3224935873557" cy="63.6385003307085" r="1.4341604208665657" fill="#00f0ff" opacity="0.3868927833179654" />
<circle cx="477.1976902627445" cy="272.9383834238498" r="0.5878643976231752" fill="#00f0ff" opacity="0.8223134450527072" />
<circle cx="1472.671948662477" cy="105.03495679360026" r="0.8485364885043953" fill="#00f0ff" opacity="0.45446084975658324" />
<circle cx="1477.537822607782" cy="98.9662834508714" r="1.3345381669286205" fill="#00f0ff" opacity="0.7592809823039699" />
<circle cx="16.228765423951486" cy="229.79011972776817" r="0.24013080947059534" fill="#00f0ff" opacity="0.3575388851208682" />
<circle cx="610.4722904644116" cy="86.56096910393455" r="0.6344396014404858" fill="#00f0ff" opacity="0.46860011445063315" />
<circle cx="765.304150968702" cy="259.1260665785959" r="0.7082163759107911" fill="#00f0ff" opacity="0.48775270868542536" />
<circle cx="1393.9189977613573" cy="196.6140448434626" r="0.7729136037926452" fill="#00f0ff" opacity="0.6619791350635966" />
<circle cx="1470.6259029832447" cy="68.20844848352039" r="1.4854036512766247" fill="#00f0ff" opacity="0.2860433559350211" />
<circle cx="219.49281693619014" cy="242.51332121763747" r="1.5510721391604998" fill="#00f0ff" opacity="0.7929607949621917" />
<circle cx="816.7879849301348" cy="290.80389431739206" r="1.1644651680215168" fill="#00f0ff" opacity="0.21093543759024538" />
<circle cx="1075.179569744064" cy="105.30856781967829" r="0.6552528934072904" fill="#00f0ff" opacity="0.9284739484833338" />
<circle cx="1643.4455223922255" cy="138.89663492513728" r="1.5931911151537508" fill="#00f0ff" opacity="0.5685602123661868" />
<circle cx="827.3860238269033" cy="168.68221255942123" r="1.0649507842252883" fill="#00f0ff" opacity="0.5973792445936346" />
<circle cx="42.30255603419041" cy="100.68526891229497" r="1.1872444242593059" fill="#00f0ff" opacity="0.4595347101265251" />
<circle cx="328.4675051664078" cy="19.16661664767029" r="0.8255230241841984" fill="#00f0ff" opacity="0.28613523283644265" />
<circle cx="138.49869660159385" cy="87.46945642542228" r="0.6415706543778832" fill="#00f0ff" opacity="0.8261462962758621" />
<circle cx="744.8057689524024" cy="297.90531441977686" r="1.2225587714963344" fill="#00f0ff" opacity="0.4255851837311109" />
<circle cx="965.88941763009" cy="134.41445845199738" r="1.202692213895651" fill="#00f0ff" opacity="0.7157566534728623" />
<circle cx="325.82577703841883" cy="18.38538437120367" r="1.3073892431106504" fill="#00f0ff" opacity="0.5832566059819451" />
<circle cx="47.297177726072725" cy="271.44536740589723" r="0.28585034551248734" fill="#00f0ff" opacity="0.32336729112824947" />
<circle cx="121.9291204369354" cy="176.894496916825" r="0.33204918579409926" fill="#00f0ff" opacity="0.9861196026042915" />
<circle cx="452.316716070483" cy="109.17920657293305" r="0.682618861423481" fill="#00f0ff" opacity="0.5604881749201469" />
<circle cx="349.5895676208195" cy="191.41559218879587" r="0.2758182893136487" fill="#00f0ff" opacity="0.9277348783908543" />
<circle cx="869.6595172031348" cy="191.66628554594135" r="0.7505079304999667" fill="#00f0ff" opacity="0.882002367183941" />
<circle cx="1611.413166459758" cy="231.62044024089792" r="1.6574458261698284" fill="#00f0ff" opacity="0.975007225983515" />
<circle cx="1483.6837632981417" cy="59.17014177915606" r="1.4733263738365052" fill="#00f0ff" opacity="0.6496930497862148" />
<circle cx="70.72836296018421" cy="77.14139585066849" r="1.4816230481099322" fill="#00f0ff" opacity="0.28095622157942546" />
<circle cx="1635.18241100915" cy="96.49757410074166" r="1.1824700978031997" fill="#00f0ff" opacity="0.8975946585858763" />
<circle cx="1002.8829086948853" cy="20.85790698642498" r="1.4941988144282068" fill="#00f0ff" opacity="0.29455164202644823" />
<circle cx="419.46688695976457" cy="264.89026891711814" r="1.545589736840118" fill="#00f0ff" opacity="0.7103461879772301" />
<circle cx="1435.7920950585033" cy="89.63728719637251" r="1.5497370086158557" fill="#00f0ff" opacity="0.9808048561166574" />
<circle cx="1138.2453800877486" cy="64.93844024606074" r="0.9815839229487153" fill="#00f0ff" opacity="0.9631893419453792" />
<circle cx="414.4614909699105" cy="99.35730339300025" r="0.45122325140224906" fill="#00f0ff" opacity="0.708960138620472" />
<circle cx="1540.5904343264515" cy="187.13528587005143" r="0.7981251213381" fill="#00f0ff" opacity="0.43216158894209766" />
<circle cx="238.2855301507355" cy="101.44744802589226" r="0.8327190016390844" fill="#00f0ff" opacity="0.9302209693033505" />
<circle cx="1697.5378318227429" cy="274.50528091807394" r="1.3224266286447242" fill="#00f0ff" opacity="0.6623952650556466" />
<circle cx="497.5068785162668" cy="176.59604470418753" r="1.5983881233350128" fill="#00f0ff" opacity="0.352209881198771" />
<circle cx="541.6467610920729" cy="138.2746367981677" r="0.5043288157442118" fill="#00f0ff" opacity="0.33246225581638" />
<circle cx="26.40688125874675" cy="257.04667383210824" r="0.21428470398995786" fill="#00f0ff" opacity="0.5760144835277943" />
<circle cx="1565.9678303258634" cy="4.932567809443434" r="0.6990179651488007" fill="#00f0ff" opacity="0.957122482115969" />
<circle cx="491.54525715455463" cy="107.20753267760033" r="0.3248355537117341" fill="#00f0ff" opacity="0.6789206353787193" />
<circle cx="1033.2219310617745" cy="166.3193306744684" r="1.6017369103981904" fill="#00f0ff" opacity="0.3921066640621746" />
<circle cx="1559.2018932831472" cy="116.64675607877854" r="1.6007370590405736" fill="#00f0ff" opacity="0.4648623318516822" />
<circle cx="1571.9613290810373" cy="202.46361783777158" r="0.9047604715213133" fill="#00f0ff" opacity="0.7190509269412524" />
<circle cx="173.20519727433464" cy="102.55554628872272" r="1.5394817102570735" fill="#00f0ff" opacity="0.298041217131779" />
<circle cx="1266.653068232048" cy="166.24203346314346" r="1.0548737707424154" fill="#00f0ff" opacity="0.7546954802157899" />
<circle cx="431.45040769594" cy="94.29576262735208" r="0.4377474699954223" fill="#00f0ff" opacity="0.9658315233721984" />
<circle cx="1170.5285941360003" cy="204.015573942736" r="0.2751866231645354" fill="#00f0ff" opacity="0.8704901174842716" />

  </g>

  <!-- Layer 3: Foreground Stars (Fast) -->
  <g style="animation: scroll-fast 30s linear infinite;">
    <circle cx="180.63779752721584" cy="294.4369819995009" r="1.0251335332766527" fill="#ff007f" opacity="0.8130601328148788" />
<circle cx="1104.689128261042" cy="110.34662374778424" r="2.2620421079579365" fill="#ff007f" opacity="0.6414366723221782" />
<circle cx="1056.3801508645136" cy="169.55067556876358" r="0.9738593971805583" fill="#ff007f" opacity="0.22667129900099747" />
<circle cx="707.3232651004882" cy="138.08412885386494" r="1.8417901861578108" fill="#ff007f" opacity="0.4897794252038611" />
<circle cx="741.7128240880735" cy="6.388135413186047" r="1.1477549928764292" fill="#ff007f" opacity="0.541704276633472" />
<circle cx="197.92521201383929" cy="270.3460545494962" r="2.218553081200183" fill="#ff007f" opacity="0.5458189273889729" />
<circle cx="965.2998360669113" cy="294.956160189646" r="2.3500634294551856" fill="#ff007f" opacity="0.9450833119300857" />
<circle cx="407.2795868053628" cy="165.04523902210755" r="1.8840523829899551" fill="#ff007f" opacity="0.47508263313515076" />
<circle cx="289.31158623984805" cy="137.79369676629437" r="1.681748458169627" fill="#ff007f" opacity="0.612122476774996" />
<circle cx="1055.0135993796835" cy="51.11243296042076" r="1.1728383539041105" fill="#ff007f" opacity="0.8962090100316626" />
<circle cx="639.6582564936565" cy="184.72216621477497" r="2.672467125464262" fill="#ff007f" opacity="0.34414694856335826" />
<circle cx="1401.009549267154" cy="134.56322746927293" r="0.4146237224956679" fill="#ff007f" opacity="0.36347268350427414" />
<circle cx="954.4347472036893" cy="4.963615507033181" r="2.238126694034569" fill="#ff007f" opacity="0.582478874521376" />
<circle cx="262.00730092376415" cy="289.85043758663573" r="0.812721422931872" fill="#ff007f" opacity="0.4614790537466278" />
<circle cx="770.3767617263925" cy="287.0723900409972" r="0.6472174277104652" fill="#ff007f" opacity="0.7953233151651866" />
<circle cx="433.76259746908886" cy="174.2285520989489" r="0.7590694918771965" fill="#ff007f" opacity="0.9860126816043442" />
<circle cx="1538.7565464470492" cy="148.33961813170842" r="0.8163971571210271" fill="#ff007f" opacity="0.9122566828140546" />
<circle cx="720.8857026078304" cy="73.50142102499487" r="2.23278467305669" fill="#ff007f" opacity="0.8582050547713458" />
<circle cx="1094.339991103599" cy="88.87082008727769" r="0.8996982273770409" fill="#ff007f" opacity="0.6503574000399239" />
<circle cx="915.0199564890698" cy="124.23829266236123" r="2.5291042602007248" fill="#ff007f" opacity="0.5949539165573438" />
<circle cx="1676.8377446800334" cy="210.32485462849309" r="1.4948786599801385" fill="#ff007f" opacity="0.6881843253421348" />
<circle cx="1229.5790878155992" cy="178.3862735839345" r="1.9772580926805001" fill="#ff007f" opacity="0.8768199880866829" />
<circle cx="761.5314496738195" cy="61.90758779475922" r="0.5175182349387915" fill="#ff007f" opacity="0.7911318456665442" />
<circle cx="1552.1227682549709" cy="271.65222289500974" r="0.5532255189200279" fill="#ff007f" opacity="0.35713643493973657" />
<circle cx="282.3103075329555" cy="24.169709020702445" r="0.21273609618264755" fill="#ff007f" opacity="0.3009632310317607" />
<circle cx="973.9049068840568" cy="258.808616304135" r="1.6662917986644254" fill="#ff007f" opacity="0.3151685171394144" />
<circle cx="1146.4254619615022" cy="138.8931153786452" r="0.847769449798403" fill="#ff007f" opacity="0.6113457409434082" />
<circle cx="39.01646162639295" cy="96.39279227729905" r="1.9184787899600464" fill="#ff007f" opacity="0.4936982751853857" />
<circle cx="345.8578008918484" cy="21.289711599222194" r="1.6515962295780762" fill="#ff007f" opacity="0.6857667081002932" />
<circle cx="1560.6327795520265" cy="216.80670214590316" r="1.6881887407806515" fill="#ff007f" opacity="0.7319883865736387" />
<circle cx="775.8434377241355" cy="47.87703615646516" r="0.6009102156961844" fill="#ff007f" opacity="0.7106881747908609" />
<circle cx="1528.3832572960828" cy="68.79649757872095" r="2.646738227842647" fill="#ff007f" opacity="0.4952629678948465" />
<circle cx="755.7763172588054" cy="109.81200811691069" r="0.5419912041789094" fill="#ff007f" opacity="0.9868296166779991" />
<circle cx="207.75173007527795" cy="279.43536196071966" r="1.7191913892871493" fill="#ff007f" opacity="0.27230991227659623" />
<circle cx="1155.1607395403769" cy="225.65637151896962" r="1.9737817308530794" fill="#ff007f" opacity="0.9900451220538851" />
<circle cx="1023.6113313919172" cy="15.991130562434607" r="2.5204548588392677" fill="#ff007f" opacity="0.7285497937740308" />
<circle cx="1057.798559744917" cy="130.15481291413633" r="1.59375701417055" fill="#ff007f" opacity="0.22219094287403013" />
<circle cx="41.25840110109261" cy="292.77802607607066" r="1.5480640830406502" fill="#ff007f" opacity="0.9500313296423759" />
<circle cx="860.8726824806206" cy="111.70285403803823" r="0.857156293420442" fill="#ff007f" opacity="0.4784006376018848" />
<circle cx="333.2841001069357" cy="74.4158982276785" r="0.5773499036659528" fill="#ff007f" opacity="0.58449806056232" />
<circle cx="246.75986771161516" cy="198.73645189735373" r="1.0410247725290684" fill="#ff007f" opacity="0.2762038141179134" />
<circle cx="290.1987166494706" cy="41.15259882031971" r="1.4977616632029707" fill="#ff007f" opacity="0.43952368921083684" />
<circle cx="414.9592083910563" cy="89.01640975508475" r="0.5483451415495134" fill="#ff007f" opacity="0.8009897858128605" />
<circle cx="1153.4667753981987" cy="166.74542031209145" r="1.807010224207022" fill="#ff007f" opacity="0.9305821191716179" />
<circle cx="320.2888647698511" cy="149.92234643295623" r="1.5810350777907445" fill="#ff007f" opacity="0.7868221556011645" />
<circle cx="1494.225303159736" cy="52.64766674705018" r="2.0479676368109097" fill="#ff007f" opacity="0.9213919129433075" />
<circle cx="395.17238617209875" cy="190.2102290242548" r="1.116540254879398" fill="#ff007f" opacity="0.5704989943736775" />
<circle cx="44.45217904502577" cy="261.06940568079443" r="0.3200213518903337" fill="#ff007f" opacity="0.8078416884167356" />
<circle cx="1365.4058743755377" cy="185.62127752998325" r="2.206546145425641" fill="#ff007f" opacity="0.3411476605441309" />
<circle cx="1210.7668961429383" cy="223.57110312359836" r="2.3057897424457514" fill="#ff007f" opacity="0.9535939783840506" />
<circle cx="1283.192949170632" cy="73.1873293983672" r="1.5939855829167875" fill="#ff007f" opacity="0.25369192432310667" />
<circle cx="881.3504672474849" cy="62.35022404700358" r="1.3717336699807778" fill="#ff007f" opacity="0.8597653932273521" />
<circle cx="846.6523001636752" cy="135.04921934037174" r="1.684500640364372" fill="#ff007f" opacity="0.32930371849544515" />
<circle cx="720.0349888742412" cy="203.7741390425952" r="0.6654624850415585" fill="#ff007f" opacity="0.5955855357881708" />
<circle cx="1148.1082899301903" cy="114.59765560732887" r="2.6107281071595994" fill="#ff007f" opacity="0.8670374163921686" />
<circle cx="909.3176886301254" cy="179.49209577173954" r="0.9154018717381422" fill="#ff007f" opacity="0.9413560142056405" />
<circle cx="1223.4851226465069" cy="19.58510657334299" r="0.31111665972272007" fill="#ff007f" opacity="0.9615500362191025" />
<circle cx="334.42680181397617" cy="186.95166237637721" r="0.4682673077484049" fill="#ff007f" opacity="0.628458123623987" />
<circle cx="330.7734950671894" cy="14.508058043657668" r="2.457572964891269" fill="#ff007f" opacity="0.27457761636568834" />
<circle cx="692.5213711466746" cy="170.982310704804" r="2.003892926660506" fill="#ff007f" opacity="0.5834516837786821" />
<circle cx="333.9815969039764" cy="133.9394055362389" r="0.9408857483707296" fill="#ff007f" opacity="0.5305307687542729" />
<circle cx="597.5436714521738" cy="299.156027213588" r="2.475815698919789" fill="#ff007f" opacity="0.43082078679049474" />
<circle cx="1277.1928120735226" cy="31.03915135680283" r="0.21026089669049047" fill="#ff007f" opacity="0.5801115404157027" />
<circle cx="276.43452146942815" cy="203.96668883862836" r="1.465442974659313" fill="#ff007f" opacity="0.5028159437691926" />
<circle cx="767.8738918919411" cy="91.3872989314965" r="1.4755706123627255" fill="#ff007f" opacity="0.21467655146211265" />
<circle cx="1097.0812121729036" cy="45.45391304056253" r="0.2447936442416308" fill="#ff007f" opacity="0.5508033104683678" />
<circle cx="1369.4596339878865" cy="23.99563780110199" r="1.562340545456562" fill="#ff007f" opacity="0.7462987129250467" />
<circle cx="175.7804416901962" cy="133.9679280725429" r="2.1909270526434272" fill="#ff007f" opacity="0.7062082381737131" />
<circle cx="1038.015322275015" cy="85.05175559508963" r="1.7584389252316532" fill="#ff007f" opacity="0.6172101328264801" />
<circle cx="736.5941139171802" cy="79.06213963011344" r="1.7331249514139957" fill="#ff007f" opacity="0.4410003254484818" />

  </g>

  <!-- Shooting Stars / Meteors -->
  
    <g style="animation: meteor 2.0708868534867455s 1.4292344791477951s linear infinite;">
      <line x1="0" y1="0" x2="-132.26011391122483" y2="132.26011391122483" stroke="url(#meteor-gradient)" stroke-width="2" />
      <circle cx="0" cy="0" r="1.5" fill="#ffffff" filter="url(#glow)" />
    </g>
    
    <g style="animation: meteor 1.1306678340742515s 5.535076094444521s linear infinite;">
      <line x1="0" y1="0" x2="-55.52944630264571" y2="55.52944630264571" stroke="url(#meteor-gradient)" stroke-width="2" />
      <circle cx="0" cy="0" r="1.5" fill="#ffffff" filter="url(#glow)" />
    </g>
    
    <g style="animation: meteor 1.6399428768353328s 5.313642807779364s linear infinite;">
      <line x1="0" y1="0" x2="-127.65497114255764" y2="127.65497114255764" stroke="url(#meteor-gradient)" stroke-width="2" />
      <circle cx="0" cy="0" r="1.5" fill="#ffffff" filter="url(#glow)" />
    </g>
    
    <g style="animation: meteor 1.1924945163213203s 7.272330948489644s linear infinite;">
      <line x1="0" y1="0" x2="-63.84792933157256" y2="63.84792933157256" stroke="url(#meteor-gradient)" stroke-width="2" />
      <circle cx="0" cy="0" r="1.5" fill="#ffffff" filter="url(#glow)" />
    </g>
    
    <g style="animation: meteor 2.102631365876922s 6.890323812533814s linear infinite;">
      <line x1="0" y1="0" x2="-78.6396795924199" y2="78.6396795924199" stroke="url(#meteor-gradient)" stroke-width="2" />
      <circle cx="0" cy="0" r="1.5" fill="#ffffff" filter="url(#glow)" />
    </g>
    
    <g style="animation: meteor 2.34820407736314s 0.28451936738592476s linear infinite;">
      <line x1="0" y1="0" x2="-68.68192572335731" y2="68.68192572335731" stroke="url(#meteor-gradient)" stroke-width="2" />
      <circle cx="0" cy="0" r="1.5" fill="#ffffff" filter="url(#glow)" />
    </g>
    
    <g style="animation: meteor 2.0251133237497605s 9.620744320152125s linear infinite;">
      <line x1="0" y1="0" x2="-141.8866827280986" y2="141.8866827280986" stroke="url(#meteor-gradient)" stroke-width="2" />
      <circle cx="0" cy="0" r="1.5" fill="#ffffff" filter="url(#glow)" />
    </g>
    
    <g style="animation: meteor 1.790746544161129s 6.487584014755967s linear infinite;">
      <line x1="0" y1="0" x2="-85.50927162961247" y2="85.50927162961247" stroke="url(#meteor-gradient)" stroke-width="2" />
      <circle cx="0" cy="0" r="1.5" fill="#ffffff" filter="url(#glow)" />
    </g>
    

  <!-- Text Section -->
  <g transform="translate(425, 140)">
    <text y="0" class="title-glow" filter="url(#glow)">TRAN NGUYEN GIA HUY</text>
    <text y="0" class="title">TRAN NGUYEN GIA HUY</text>
    
    <text y="45" class="subtitle">CYBERNETIC ENGINEER | FULL-STACK DEVELOPER</text>
  </g>
</svg>
