
<svg xmlns="http://www.w3.org/2000/svg" width="850" height="300" viewBox="0 0 850 300">
  <defs>
    <!-- Deep Space Background Gradient -->
    <radialGradient id="space-bg" cx="50%" cy="50%" r="75%">
      <stop offset="0%" stop-color="#0a051d" />
      <stop offset="50%" stop-color="#05020f" />
      <stop offset="100%" stop-color="#000000" />
    </radialGradient>

    <!-- Nebula Glows -->
    <radialGradient id="nebula-cyan" cx="50%" cy="50%" r="50%">
      <stop offset="0%" stop-color="#00f0ff" stop-opacity="0.15" />
      <stop offset="100%" stop-color="#00f0ff" stop-opacity="0" />
    </radialGradient>
    <radialGradient id="nebula-pink" cx="50%" cy="50%" r="50%">
      <stop offset="0%" stop-color="#ff007f" stop-opacity="0.15" />
      <stop offset="100%" stop-color="#ff007f" stop-opacity="0" />
    </radialGradient>

    <!-- Meteor Tail Gradient -->
    <linearGradient id="meteor-gradient" x1="0%" y1="0%" x2="100%" y2="100%">
      <stop offset="0%" stop-color="#ffffff" stop-opacity="1" />
      <stop offset="20%" stop-color="#00f0ff" stop-opacity="0.8" />
      <stop offset="100%" stop-color="#00f0ff" stop-opacity="0" />
    </linearGradient>

    <!-- General Glow Filter -->
    <filter id="glow" x="-20%" y="-20%" width="140%" height="140%">
      <feGaussianBlur stdDeviation="3" result="blur" />
      <feComposite in="SourceGraphic" in2="blur" operator="over" />
    </filter>

    <style>
      /* Parallax Scrolling for 3D effect */
      @keyframes scroll-fast {
        from { transform: translateX(0); }
        to { transform: translateX(-850px); }
      }
      @keyframes scroll-medium {
        from { transform: translateX(0); }
        to { transform: translateX(-850px); }
      }
      @keyframes scroll-slow {
        from { transform: translateX(0); }
        to { transform: translateX(-850px); }
      }

      /* Meteor Animation */
      @keyframes meteor {
        0% { transform: translate(1050px, -100px) scale(1); opacity: 1; }
        20% { transform: translate(425px, 150px) scale(1); opacity: 1; }
        40% { transform: translate(-200px, 500px) scale(0); opacity: 0; }
        100% { transform: translate(-200px, 500px) scale(0); opacity: 0; }
      }

      /* Floating Nebula */
      @keyframes float-nebula {
        0%, 100% { transform: translate(0, 0) scale(1); opacity: 0.8; }
        50% { transform: translate(-20px, 10px) scale(1.1); opacity: 1; }
      }
      @keyframes float-nebula-alt {
        0%, 100% { transform: translate(0, 0) scale(1); opacity: 0.8; }
        50% { transform: translate(20px, -10px) scale(1.2); opacity: 1; }
      }

      /* Title Styling */
      .title {
        font-family: 'Orbitron', 'Courier New', sans-serif;
        font-size: 42px;
        font-weight: 900;
        fill: #ffffff;
        text-anchor: middle;
        letter-spacing: 3px;
      }
      .title-glow {
        font-family: 'Orbitron', 'Courier New', sans-serif;
        font-size: 42px;
        font-weight: 900;
        fill: none;
        stroke: #00f0ff;
        stroke-width: 6px;
        stroke-opacity: 0.6;
        text-anchor: middle;
        letter-spacing: 3px;
      }
      .subtitle {
        font-family: 'Orbitron', 'Courier New', sans-serif;
        font-size: 14px;
        font-weight: bold;
        fill: #ff007f;
        text-anchor: middle;
        letter-spacing: 8px;
      }
    </style>
  </defs>

  <!-- Base Space Background -->
  <rect width="850" height="300" fill="url(#space-bg)" />

  <!-- Animated Nebulas -->
  <circle cx="20%" cy="30%" r="200" fill="url(#nebula-cyan)" style="animation: float-nebula 15s ease-in-out infinite;" />
  <circle cx="80%" cy="70%" r="250" fill="url(#nebula-pink)" style="animation: float-nebula-alt 20s ease-in-out infinite;" />
  <circle cx="50%" cy="50%" r="300" fill="url(#nebula-cyan)" style="animation: float-nebula 25s ease-in-out infinite;" opacity="0.5" />

  <!-- Layer 1: Background Stars (Slow) -->
  <g style="animation: scroll-slow 120s linear infinite;">
    <circle cx="539.4633253215575" cy="164.54729929589885" r="0.7840359120412435" fill="#ffffff" opacity="0.6786003767210163" />
<circle cx="1405.5743570967784" cy="26.755083588726592" r="0.9578669756550855" fill="#ffffff" opacity="0.9252352760231524" />
<circle cx="944.9520574212861" cy="286.1376132521665" r="0.5247004618876032" fill="#ffffff" opacity="0.6823745763171754" />
<circle cx="136.63801530735853" cy="225.34390592713487" r="0.7031553707468445" fill="#ffffff" opacity="0.5767294026049102" />
<circle cx="1240.442199611453" cy="79.6839060807023" r="0.8768675929582233" fill="#ffffff" opacity="0.49846980754101256" />
<circle cx="1437.3526970837713" cy="192.06491020727162" r="0.9203694928719652" fill="#ffffff" opacity="0.3332509457167995" />
<circle cx="910.7410619585754" cy="116.54022051337208" r="0.895857926079545" fill="#ffffff" opacity="0.9032387125643797" />
<circle cx="159.43704406379078" cy="95.67098589519064" r="0.6303230047544863" fill="#ffffff" opacity="0.9929320475715524" />
<circle cx="125.67848959720676" cy="96.21819517962318" r="0.9298192655627562" fill="#ffffff" opacity="0.8646173891564843" />
<circle cx="728.814129502473" cy="211.96843574952763" r="0.9544092328409097" fill="#ffffff" opacity="0.5451520129965212" />
<circle cx="944.018925933364" cy="255.56202749360335" r="0.5954322020377285" fill="#ffffff" opacity="0.5959514476965283" />
<circle cx="793.7420362324145" cy="266.97438660308853" r="0.7748396052584179" fill="#ffffff" opacity="0.3095544305356569" />
<circle cx="390.3620072402671" cy="247.68071620896305" r="0.28018922218388886" fill="#ffffff" opacity="0.2219163708166125" />
<circle cx="1699.5735878891833" cy="49.085670112157985" r="0.6778415973847697" fill="#ffffff" opacity="0.4421539293474916" />
<circle cx="1116.3795868897519" cy="278.1227242488346" r="0.9083726554701641" fill="#ffffff" opacity="0.4937212295896998" />
<circle cx="1349.7896040452606" cy="181.16133382948735" r="0.8568461909491658" fill="#ffffff" opacity="0.6904622868941535" />
<circle cx="1384.2280331680865" cy="172.25024601541705" r="0.4895994298708537" fill="#ffffff" opacity="0.38621816253547137" />
<circle cx="1178.3552435821964" cy="228.84064749447688" r="0.9731521149601525" fill="#ffffff" opacity="0.33541127424015005" />
<circle cx="562.7944957810066" cy="39.90244980815507" r="0.6169075919867688" fill="#ffffff" opacity="0.6744926634068218" />
<circle cx="224.75808159912282" cy="262.09460780910484" r="0.38596437200568634" fill="#ffffff" opacity="0.2567170105924598" />
<circle cx="55.66714099492596" cy="152.58853180923865" r="0.6377181076544869" fill="#ffffff" opacity="0.7338996548171921" />
<circle cx="396.06199209657774" cy="115.41523751911059" r="0.7763407594368057" fill="#ffffff" opacity="0.2762807616869652" />
<circle cx="700.0644609490854" cy="140.93009362781135" r="0.24791289511529843" fill="#ffffff" opacity="0.897498288803882" />
<circle cx="802.6923679237866" cy="244.1876816864417" r="0.7127126740974279" fill="#ffffff" opacity="0.724374277707053" />
<circle cx="880.4803488762336" cy="180.15352714020517" r="0.7792746202817029" fill="#ffffff" opacity="0.258063335136933" />
<circle cx="764.0818166126005" cy="7.509091116886668" r="0.5117401207423762" fill="#ffffff" opacity="0.772404749136999" />
<circle cx="525.9897869952562" cy="213.50853343294048" r="0.9351459571098821" fill="#ffffff" opacity="0.9572422680909389" />
<circle cx="669.7714131722091" cy="225.44279120793718" r="0.7247032178031774" fill="#ffffff" opacity="0.8580108363516397" />
<circle cx="28.63129995526279" cy="278.97789079881346" r="0.6296357524520391" fill="#ffffff" opacity="0.8127353323260673" />
<circle cx="994.6617530031205" cy="148.10962151569464" r="0.7764569594945812" fill="#ffffff" opacity="0.5322807000023915" />
<circle cx="1475.2983069380105" cy="295.8049636455595" r="0.9983116974001529" fill="#ffffff" opacity="0.9958512297628055" />
<circle cx="1252.091736470594" cy="297.73695713747395" r="0.22360565851064376" fill="#ffffff" opacity="0.31832941631082873" />
<circle cx="170.54868302919854" cy="77.86350636714153" r="0.21971791891872458" fill="#ffffff" opacity="0.6319099240134951" />
<circle cx="1189.9441981588122" cy="205.7146878746047" r="0.40912755665153555" fill="#ffffff" opacity="0.24559782891245138" />
<circle cx="782.8239062582074" cy="246.17820960516622" r="0.5737162412706727" fill="#ffffff" opacity="0.49048776382145354" />
<circle cx="34.19435110548801" cy="128.07909985071967" r="0.8276489856482689" fill="#ffffff" opacity="0.2483650844195638" />
<circle cx="37.535248803685484" cy="122.8186505951416" r="0.6768974266749639" fill="#ffffff" opacity="0.44796578848677404" />
<circle cx="206.33212727677105" cy="76.62592173900347" r="0.5817502157207675" fill="#ffffff" opacity="0.4791303046419505" />
<circle cx="96.07853879616303" cy="54.57206280528194" r="0.26621896841993886" fill="#ffffff" opacity="0.2686802083096101" />
<circle cx="1021.1674590515383" cy="146.06280112026874" r="0.688612601623996" fill="#ffffff" opacity="0.2743880239161549" />
<circle cx="837.3015797488724" cy="83.35090339888038" r="0.5460750905918506" fill="#ffffff" opacity="0.9246604734945079" />
<circle cx="566.7536450634528" cy="250.1627113343921" r="0.701669419057436" fill="#ffffff" opacity="0.9797288464200122" />
<circle cx="1603.2942078386538" cy="75.75839575646177" r="0.4923663065837839" fill="#ffffff" opacity="0.8159604877939073" />
<circle cx="88.73356517210362" cy="272.5045726828333" r="0.2377393639746197" fill="#ffffff" opacity="0.5842965716087911" />
<circle cx="625.0431861884359" cy="166.56180621777642" r="0.3177141150772105" fill="#ffffff" opacity="0.38346858667092826" />
<circle cx="205.15210785036103" cy="67.49310909565025" r="0.46464161419393935" fill="#ffffff" opacity="0.3541310654563228" />
<circle cx="1592.1414277534845" cy="35.91645064911694" r="0.6152848681489035" fill="#ffffff" opacity="0.3211730705632423" />
<circle cx="1138.5127498924733" cy="164.64428926745342" r="0.5436766903682106" fill="#ffffff" opacity="0.7827994689235822" />
<circle cx="543.4084875283636" cy="23.168505025840947" r="0.8116339212875074" fill="#ffffff" opacity="0.3236163109351556" />
<circle cx="1100.875966296684" cy="67.4501800599808" r="0.5290342290011278" fill="#ffffff" opacity="0.7778139025473547" />
<circle cx="501.3152275191595" cy="201.39993470337217" r="0.24593915271492578" fill="#ffffff" opacity="0.8725826689369753" />
<circle cx="375.23196869408974" cy="18.53423869337235" r="0.6881109876145444" fill="#ffffff" opacity="0.23059164068040705" />
<circle cx="137.67877321238967" cy="106.08588270370237" r="0.5212164077782451" fill="#ffffff" opacity="0.8872413544538016" />
<circle cx="225.94714842679784" cy="230.7926501775337" r="0.8033396869532923" fill="#ffffff" opacity="0.7760758153058849" />
<circle cx="1035.8424312471059" cy="143.79034094843058" r="0.7137604971068712" fill="#ffffff" opacity="0.5880601536390955" />
<circle cx="122.75809560108995" cy="109.34197424777408" r="0.948657572502789" fill="#ffffff" opacity="0.9866596495374829" />
<circle cx="1176.9353981241152" cy="132.5963342074532" r="0.4611944748219459" fill="#ffffff" opacity="0.3902224654041113" />
<circle cx="829.625204854551" cy="65.94791903143343" r="0.31426090010264884" fill="#ffffff" opacity="0.3563642676448129" />
<circle cx="1090.3126223586826" cy="135.21476611816985" r="0.5835036925663659" fill="#ffffff" opacity="0.49997475972546" />
<circle cx="769.3136781625047" cy="199.17467317873945" r="0.5819536805486327" fill="#ffffff" opacity="0.5276181918014615" />
<circle cx="1697.5373120156978" cy="233.58830140956755" r="0.4889677422311023" fill="#ffffff" opacity="0.6706386617252857" />
<circle cx="597.3953457796786" cy="205.83477180319753" r="0.8529314185040031" fill="#ffffff" opacity="0.6022225379525532" />
<circle cx="860.3848568736645" cy="176.82146762098458" r="0.7033197129095383" fill="#ffffff" opacity="0.7841112662204097" />
<circle cx="1186.3274841220718" cy="178.44502553894452" r="0.5555239063293331" fill="#ffffff" opacity="0.33476770022127084" />
<circle cx="1236.4514113895818" cy="6.230914925307996" r="0.5451592270574677" fill="#ffffff" opacity="0.4994940001355773" />
<circle cx="752.3227967280393" cy="182.98182599979822" r="0.75898088205323" fill="#ffffff" opacity="0.9360269328521953" />
<circle cx="1213.0949251022828" cy="131.2851968934141" r="0.46142383406041687" fill="#ffffff" opacity="0.3550861425710455" />
<circle cx="644.7246814231066" cy="83.65903233658749" r="0.4859548084269021" fill="#ffffff" opacity="0.4342317901882331" />
<circle cx="281.3782921906885" cy="0.10132948942697118" r="0.8862569756155634" fill="#ffffff" opacity="0.4738387630040721" />
<circle cx="1175.286710673769" cy="254.47945275628985" r="0.6482650662509915" fill="#ffffff" opacity="0.29660055963260085" />
<circle cx="833.9143833514677" cy="145.62696654987695" r="0.7883525600926442" fill="#ffffff" opacity="0.21836278657612454" />
<circle cx="1672.9065943135645" cy="225.68111102417478" r="0.6686266595653829" fill="#ffffff" opacity="0.45588169265657674" />
<circle cx="1082.060418524358" cy="268.7471182473216" r="0.6409130851521616" fill="#ffffff" opacity="0.7115060612290687" />
<circle cx="307.3435194803229" cy="50.579761920248515" r="0.6225110539541614" fill="#ffffff" opacity="0.6290562768719052" />
<circle cx="1513.0917642176641" cy="216.94145773588772" r="0.9483174047243799" fill="#ffffff" opacity="0.8076916292768994" />
<circle cx="1519.343464380456" cy="260.81042180783845" r="0.6147814508520812" fill="#ffffff" opacity="0.25390532428247714" />
<circle cx="1696.225417853429" cy="141.1468715602861" r="0.4607298688770456" fill="#ffffff" opacity="0.5120065960268991" />
<circle cx="475.1649012086635" cy="75.72052694541156" r="0.8274271785606409" fill="#ffffff" opacity="0.29068218073712376" />
<circle cx="452.23968845543993" cy="227.1442865197748" r="0.969530816355485" fill="#ffffff" opacity="0.46101755068674966" />
<circle cx="1123.051736835206" cy="43.401499032309296" r="0.6270003336320182" fill="#ffffff" opacity="0.2778501232209246" />
<circle cx="314.8501540127247" cy="13.97866208304147" r="0.62946669381634" fill="#ffffff" opacity="0.4358242787286079" />
<circle cx="485.83737902089064" cy="230.4586092429976" r="0.7759556970779955" fill="#ffffff" opacity="0.5558755923169181" />
<circle cx="530.6796302373335" cy="35.35942288390199" r="0.4742155099199729" fill="#ffffff" opacity="0.3216609416493856" />
<circle cx="1229.9643672436857" cy="8.379921829054526" r="0.7772394205071445" fill="#ffffff" opacity="0.8717132007281749" />
<circle cx="1120.6378481730826" cy="21.455577270192883" r="0.7445645409822774" fill="#ffffff" opacity="0.7687244452303663" />
<circle cx="132.18386833947972" cy="219.4912474611027" r="0.4962366068280729" fill="#ffffff" opacity="0.45918824354872884" />
<circle cx="1633.1693838872504" cy="138.74565905108628" r="0.7691135606136974" fill="#ffffff" opacity="0.28514393391982606" />
<circle cx="522.6981057276784" cy="190.31499511536782" r="0.31442983459966156" fill="#ffffff" opacity="0.5152353175344092" />
<circle cx="949.0465607426875" cy="274.2376685219117" r="0.9742712569103842" fill="#ffffff" opacity="0.6247138597666821" />
<circle cx="408.25866622559664" cy="55.78163560196945" r="0.5124631349459388" fill="#ffffff" opacity="0.7362086206489391" />
<circle cx="439.7508166473574" cy="5.784985784712616" r="0.229171019609994" fill="#ffffff" opacity="0.9413762929027276" />
<circle cx="722.9239830769418" cy="192.46520332904802" r="0.651884016574682" fill="#ffffff" opacity="0.5851802169913758" />
<circle cx="400.7771290664404" cy="133.24117232029704" r="0.5042756247198636" fill="#ffffff" opacity="0.626063499127755" />
<circle cx="225.97514968135062" cy="177.33883518036887" r="0.9946419041988632" fill="#ffffff" opacity="0.9265969759314736" />
<circle cx="519.8142037428084" cy="133.88517493988857" r="0.7723545593673076" fill="#ffffff" opacity="0.30466593667912223" />
<circle cx="836.4759522798046" cy="47.82172873732692" r="0.9693186413828523" fill="#ffffff" opacity="0.7906453504714599" />
<circle cx="1478.4212195713214" cy="89.4312049357308" r="0.7667382388054742" fill="#ffffff" opacity="0.629060500964121" />
<circle cx="1608.76736285492" cy="3.228860228677355" r="0.6612474810720181" fill="#ffffff" opacity="0.8105830498891016" />
<circle cx="405.36395669854403" cy="268.4303679594779" r="0.6504470140214168" fill="#ffffff" opacity="0.9476140596317073" />
<circle cx="10.023253050004877" cy="274.6974355777822" r="0.21907777113424842" fill="#ffffff" opacity="0.9051549963019281" />
<circle cx="794.2306586813127" cy="4.098686566070731" r="0.713673478558916" fill="#ffffff" opacity="0.9447173391702777" />
<circle cx="712.9789736417465" cy="9.500833186992018" r="0.5829240895104407" fill="#ffffff" opacity="0.21419920552481564" />
<circle cx="640.5285122756196" cy="112.85959547747964" r="0.4033746962176945" fill="#ffffff" opacity="0.7686293202175369" />
<circle cx="1521.8412540113043" cy="61.819746175080134" r="0.3631132982104637" fill="#ffffff" opacity="0.7801481937396262" />
<circle cx="58.898566377805096" cy="222.36317574527686" r="0.6347773783866042" fill="#ffffff" opacity="0.4359040729269847" />
<circle cx="1473.719632288429" cy="61.48794781145093" r="0.8035523566294382" fill="#ffffff" opacity="0.7724484691247031" />
<circle cx="891.8563122056581" cy="174.5124452101537" r="0.3811714333931351" fill="#ffffff" opacity="0.7638638591345606" />
<circle cx="339.82736665810177" cy="63.19347732039983" r="0.2811200258162062" fill="#ffffff" opacity="0.5548920026185438" />
<circle cx="209.48477940786498" cy="279.18049694900805" r="0.5425123796489868" fill="#ffffff" opacity="0.904919851644429" />
<circle cx="786.724574935128" cy="141.8142890893684" r="0.8704100467214075" fill="#ffffff" opacity="0.2532932037627739" />
<circle cx="1128.1155745109081" cy="45.01385519112677" r="0.4051715665250054" fill="#ffffff" opacity="0.8168779025441499" />
<circle cx="397.0014296312493" cy="256.8582825606153" r="0.9916856876366824" fill="#ffffff" opacity="0.6885278441670836" />
<circle cx="1523.6679416245825" cy="44.0095021045333" r="0.5717148505366767" fill="#ffffff" opacity="0.857394648018865" />
<circle cx="1535.65208329292" cy="47.44785242402478" r="0.9304524565168515" fill="#ffffff" opacity="0.6453828153290271" />
<circle cx="1512.505195500025" cy="38.97626269853783" r="0.6640228595543275" fill="#ffffff" opacity="0.9867772396569199" />
<circle cx="426.94776277747076" cy="41.232547624285885" r="0.5228555694980108" fill="#ffffff" opacity="0.2812276234868457" />
<circle cx="1477.7939276130812" cy="205.84403548607492" r="0.4116608808136862" fill="#ffffff" opacity="0.3086008842524348" />
<circle cx="184.01621764908583" cy="286.7264200721485" r="0.9962956494786623" fill="#ffffff" opacity="0.6577096551821088" />
<circle cx="1320.83702451826" cy="184.3596621074288" r="0.8231506932037291" fill="#ffffff" opacity="0.718023109431877" />
<circle cx="997.1017508381218" cy="74.93773867363952" r="0.2518546794585199" fill="#ffffff" opacity="0.9058474357161417" />
<circle cx="818.4751768847887" cy="109.71167483427207" r="0.2920973999991451" fill="#ffffff" opacity="0.3231679348503647" />
<circle cx="42.64693280367009" cy="276.913433142871" r="0.21034936064259624" fill="#ffffff" opacity="0.5479748250350371" />
<circle cx="187.3584085301858" cy="133.16237965616935" r="0.4331494476830726" fill="#ffffff" opacity="0.9290228674010812" />
<circle cx="602.8014724299484" cy="241.1760625790879" r="0.9911114134541801" fill="#ffffff" opacity="0.45787748189052674" />
<circle cx="1098.8315310559783" cy="219.40960764592663" r="0.7065624938751112" fill="#ffffff" opacity="0.6568518203015304" />
<circle cx="610.1308126138655" cy="203.8029095467066" r="0.25581788116456317" fill="#ffffff" opacity="0.2230219585477154" />
<circle cx="1633.9781631502956" cy="201.16493780795943" r="0.28173001092006306" fill="#ffffff" opacity="0.4124882647551494" />
<circle cx="1529.7656383292358" cy="262.13491476203893" r="0.2362636754169624" fill="#ffffff" opacity="0.3447131136025373" />
<circle cx="841.278167780413" cy="130.88558816269585" r="0.5385980119089842" fill="#ffffff" opacity="0.36516611248371134" />
<circle cx="729.9216216428773" cy="231.8970899312896" r="0.4498261362223994" fill="#ffffff" opacity="0.5412525084340025" />
<circle cx="1399.378358945107" cy="130.69813773831203" r="0.23081156793324267" fill="#ffffff" opacity="0.9340774106746323" />
<circle cx="1163.7586480143711" cy="189.89034553343174" r="0.5952961397518663" fill="#ffffff" opacity="0.6320823036843969" />
<circle cx="1424.7567809282239" cy="199.37642685869577" r="0.636948391605564" fill="#ffffff" opacity="0.36666184240656857" />
<circle cx="1115.3384648546992" cy="13.53380435728364" r="0.6881517590216808" fill="#ffffff" opacity="0.30432603018679044" />
<circle cx="1347.812294295819" cy="185.07619367139918" r="0.4822377254381973" fill="#ffffff" opacity="0.6662574121928946" />
<circle cx="1329.7659097756107" cy="246.29189583788573" r="0.40384896814253235" fill="#ffffff" opacity="0.7111484708279381" />
<circle cx="884.5968709146545" cy="110.99358090252844" r="0.6039198259854024" fill="#ffffff" opacity="0.3154109936584883" />
<circle cx="292.5019280907799" cy="53.03421546337182" r="0.5058575036270168" fill="#ffffff" opacity="0.9851422040267135" />
<circle cx="418.24419376334714" cy="22.623032500534755" r="0.237251391398834" fill="#ffffff" opacity="0.4907613060183804" />
<circle cx="1001.4326663230493" cy="158.75334619704873" r="0.7585332524247896" fill="#ffffff" opacity="0.3851170595734007" />
<circle cx="1560.8112161704485" cy="191.10701500615926" r="0.5474157479441504" fill="#ffffff" opacity="0.9666559433268553" />
<circle cx="1182.950731275831" cy="241.9271183703628" r="0.727835162255752" fill="#ffffff" opacity="0.23134674303923372" />
<circle cx="331.33929687130683" cy="107.18966879648536" r="0.8999479015957026" fill="#ffffff" opacity="0.2745112968084811" />
<circle cx="1609.8540886451906" cy="19.285117156521657" r="0.33402974940245833" fill="#ffffff" opacity="0.2997369905893461" />
<circle cx="851.1145741479315" cy="139.4139464610721" r="0.8386198261843691" fill="#ffffff" opacity="0.9650265985669391" />
<circle cx="899.0858166948456" cy="97.69474728484296" r="0.7575531387052137" fill="#ffffff" opacity="0.5376457740509017" />
<circle cx="759.7481897406609" cy="249.42776412666697" r="0.9059377936047053" fill="#ffffff" opacity="0.4995089929229119" />
<circle cx="1411.6105566204335" cy="132.47905889815934" r="0.31332383225267757" fill="#ffffff" opacity="0.8667449474634246" />
<circle cx="1454.6679710747892" cy="22.411183634300833" r="0.31673936146935217" fill="#ffffff" opacity="0.4255135053514903" />
<circle cx="1683.6301878359418" cy="281.8587280553623" r="0.6676799389130117" fill="#ffffff" opacity="0.48392088411830775" />
<circle cx="1687.9260096298583" cy="241.41295258307852" r="0.573675277731116" fill="#ffffff" opacity="0.8658859657228295" />
<circle cx="162.1701766631642" cy="267.4541531038967" r="0.3976344836639822" fill="#ffffff" opacity="0.42041956095035504" />
<circle cx="163.3921200375411" cy="240.7109705000973" r="0.9698468341192974" fill="#ffffff" opacity="0.38323717175963323" />
<circle cx="505.11581374653963" cy="154.6375378890324" r="0.5375922813582206" fill="#ffffff" opacity="0.7682109214849104" />
<circle cx="790.5269457417667" cy="69.09241567056357" r="0.2688092574401532" fill="#ffffff" opacity="0.6169665014784096" />
<circle cx="1024.9004675655842" cy="125.18429019192338" r="0.5679972191432492" fill="#ffffff" opacity="0.3189868185724664" />
<circle cx="1052.9611543445405" cy="139.47536268222805" r="0.9719390029347148" fill="#ffffff" opacity="0.365305586491655" />
<circle cx="1697.8338599722078" cy="58.26487470580762" r="0.4092928457735727" fill="#ffffff" opacity="0.5973322914508417" />
<circle cx="1424.794431053083" cy="248.35047045897306" r="0.27735072286271595" fill="#ffffff" opacity="0.6864195170047878" />
<circle cx="121.5206341754317" cy="161.4448428413953" r="0.5636642395861207" fill="#ffffff" opacity="0.49817243924081983" />
<circle cx="636.939657457794" cy="50.71675144242677" r="0.6438428858920473" fill="#ffffff" opacity="0.9738067935667887" />
<circle cx="1071.5734767274732" cy="183.8268323966356" r="0.7911327841369471" fill="#ffffff" opacity="0.6553750694908509" />
<circle cx="1308.0930642339777" cy="60.09226078434208" r="0.5354465115512081" fill="#ffffff" opacity="0.7998469262904346" />
<circle cx="545.6846706139287" cy="124.24562683154477" r="0.228552645833022" fill="#ffffff" opacity="0.7137260225638411" />
<circle cx="1134.861093843341" cy="7.8831207333926345" r="0.8588081831320711" fill="#ffffff" opacity="0.36145352414118365" />
<circle cx="1695.0556279114362" cy="53.2843308861952" r="0.536626694167146" fill="#ffffff" opacity="0.48131667255222477" />
<circle cx="1644.0489192055727" cy="92.10909200754539" r="0.6998434211970821" fill="#ffffff" opacity="0.7935882019234881" />
<circle cx="1417.6824383142755" cy="116.6182295026331" r="0.8104704341476376" fill="#ffffff" opacity="0.7784756756488751" />
<circle cx="1300.1379766645364" cy="130.62933986255456" r="0.7308160802078252" fill="#ffffff" opacity="0.6121277113532291" />
<circle cx="583.0811424741025" cy="44.43357984129697" r="0.9406399366063354" fill="#ffffff" opacity="0.33499287510263304" />
<circle cx="857.2421637109852" cy="280.16335739052124" r="0.572046861441851" fill="#ffffff" opacity="0.23432336557745856" />
<circle cx="710.2844539565764" cy="38.72738792681981" r="0.8622993082134167" fill="#ffffff" opacity="0.5095156259490285" />
<circle cx="229.919394581733" cy="196.46368858340472" r="0.5388688002854993" fill="#ffffff" opacity="0.7798168608409073" />
<circle cx="529.4019012892476" cy="72.26099236041811" r="0.6801218910881883" fill="#ffffff" opacity="0.3711306165109208" />
<circle cx="245.10925133502172" cy="128.0297576565697" r="0.7751700347818131" fill="#ffffff" opacity="0.9265913239903849" />
<circle cx="578.6846340806693" cy="16.60193301001729" r="0.8914211766081785" fill="#ffffff" opacity="0.6367876383218307" />
<circle cx="1601.670401128948" cy="84.7684199588916" r="0.49216116819468864" fill="#ffffff" opacity="0.5826355395280882" />
<circle cx="1399.6632971980557" cy="187.64906049431846" r="0.36822531491121807" fill="#ffffff" opacity="0.4043555097902967" />
<circle cx="121.76459829327486" cy="208.8980512841883" r="0.8526227417444476" fill="#ffffff" opacity="0.3778618196009285" />
<circle cx="1624.956582745152" cy="228.80594945515293" r="0.4179902502535538" fill="#ffffff" opacity="0.3597900114474384" />
<circle cx="646.1228200444073" cy="179.8614547247311" r="0.5067785837164518" fill="#ffffff" opacity="0.4579795516529558" />
<circle cx="1108.1481336639242" cy="188.81039618954566" r="0.38577520724387687" fill="#ffffff" opacity="0.3711603807893806" />
<circle cx="299.88317687933016" cy="175.78177050624927" r="0.48083151689113024" fill="#ffffff" opacity="0.6898422551838707" />
<circle cx="1286.2257161182183" cy="111.09366469523559" r="0.8357913330317561" fill="#ffffff" opacity="0.5716775787402613" />
<circle cx="1292.1149901835329" cy="42.56918060371378" r="0.9087460532968337" fill="#ffffff" opacity="0.9628158757559062" />
<circle cx="983.2041345775082" cy="166.84301844159228" r="0.530118413250882" fill="#ffffff" opacity="0.560450418532582" />
<circle cx="455.597654191336" cy="207.65413738910482" r="0.21608180424101794" fill="#ffffff" opacity="0.47403925793300417" />
<circle cx="1072.029271148583" cy="260.57646840653604" r="0.21274275599177442" fill="#ffffff" opacity="0.6682549773238016" />
<circle cx="1449.203587135595" cy="100.9196198473304" r="0.9553651323808956" fill="#ffffff" opacity="0.8089692493772072" />
<circle cx="1105.23252363315" cy="283.13167986924" r="0.6630714192443876" fill="#ffffff" opacity="0.6366170816157679" />
<circle cx="227.44429239263906" cy="148.82633113764635" r="0.2494438482184318" fill="#ffffff" opacity="0.9359815220090733" />
<circle cx="740.3610973606048" cy="293.58535387592764" r="0.2115118586759196" fill="#ffffff" opacity="0.48960787263557703" />
<circle cx="1594.4772896285672" cy="291.65650968761173" r="0.9249051030803583" fill="#ffffff" opacity="0.7866974490332783" />
<circle cx="1283.2419330826779" cy="96.39924141892062" r="0.4247375326539521" fill="#ffffff" opacity="0.8313966630562077" />
<circle cx="1433.238983029688" cy="177.55077625918452" r="0.9854382257930572" fill="#ffffff" opacity="0.38005345660546147" />
<circle cx="1534.964448441311" cy="71.81092109478354" r="0.8051630123576872" fill="#ffffff" opacity="0.28288125037869627" />
<circle cx="18.07828486656974" cy="33.27223123261207" r="0.2732275998951238" fill="#ffffff" opacity="0.2753108095666206" />
<circle cx="29.38692256888612" cy="96.07219587422952" r="0.20248349508756844" fill="#ffffff" opacity="0.3280054546050698" />
<circle cx="1095.147351656458" cy="132.4854965880239" r="0.7682788253739705" fill="#ffffff" opacity="0.8024374023360761" />
<circle cx="1173.8325612472406" cy="197.67035888458815" r="0.9910366912603759" fill="#ffffff" opacity="0.30929999033391153" />
<circle cx="1330.2995152904996" cy="262.86517533903367" r="0.577390700904463" fill="#ffffff" opacity="0.5195214266705254" />
<circle cx="1103.620019819057" cy="229.55521400006796" r="0.26072687757644675" fill="#ffffff" opacity="0.6326986651800333" />
<circle cx="432.47594068511825" cy="249.55383981276606" r="0.42087410222397326" fill="#ffffff" opacity="0.3845213567233029" />
<circle cx="335.84387612841334" cy="32.57582443764979" r="0.40413021149139894" fill="#ffffff" opacity="0.6269308872522064" />
<circle cx="1135.6659121493058" cy="132.74822200648967" r="0.8053119763507846" fill="#ffffff" opacity="0.9938850697117816" />
<circle cx="349.7713415097629" cy="68.96413347815312" r="0.9045860227273643" fill="#ffffff" opacity="0.5178153746264609" />
<circle cx="1523.7179098993433" cy="23.93444469249345" r="0.7504045729436932" fill="#ffffff" opacity="0.6515139774215628" />
<circle cx="319.5377359389061" cy="75.70405765205884" r="0.6985149320243887" fill="#ffffff" opacity="0.527049800648995" />
<circle cx="260.6581828587837" cy="107.16667658438321" r="0.6226505261115884" fill="#ffffff" opacity="0.4484215331084796" />
<circle cx="4.101304282790208" cy="8.301053702914974" r="0.9851349818363657" fill="#ffffff" opacity="0.43657948658772155" />
<circle cx="117.82866364847813" cy="83.11028883983712" r="0.9044802390894555" fill="#ffffff" opacity="0.22964407763301972" />
<circle cx="882.3751596800114" cy="181.21233311157553" r="0.3723250543330643" fill="#ffffff" opacity="0.3092823563122788" />
<circle cx="81.82736274229477" cy="174.0017555864662" r="0.7878816739513539" fill="#ffffff" opacity="0.9875826673157835" />
<circle cx="474.8677194745693" cy="82.41691558839409" r="0.6680978373111551" fill="#ffffff" opacity="0.6756051345485938" />
<circle cx="1378.123580397446" cy="133.55699119923239" r="0.9323072746952805" fill="#ffffff" opacity="0.5702150277228317" />
<circle cx="774.9014192496596" cy="152.93299559727225" r="0.8900132339415434" fill="#ffffff" opacity="0.30933241721062776" />
<circle cx="174.80458219664976" cy="283.815579109558" r="0.8825133510016612" fill="#ffffff" opacity="0.8897567707808778" />
<circle cx="314.2528982070934" cy="64.84110719690179" r="0.8994937687426974" fill="#ffffff" opacity="0.5167611650644256" />
<circle cx="1505.4845554827245" cy="106.88688264224565" r="0.46145152232327313" fill="#ffffff" opacity="0.6798773352294636" />
<circle cx="288.263248937713" cy="208.88925799950528" r="0.5220590584553435" fill="#ffffff" opacity="0.7122840369611008" />
<circle cx="365.7916688928818" cy="91.05812962400701" r="0.4553225677732556" fill="#ffffff" opacity="0.30608484668993885" />
<circle cx="447.3400043708156" cy="276.4274073719469" r="0.8957172833822937" fill="#ffffff" opacity="0.8000307996783391" />
<circle cx="223.06652304334563" cy="88.96585700529869" r="0.6153980190180497" fill="#ffffff" opacity="0.7296037102100053" />
<circle cx="1399.6126408140644" cy="204.37559492810516" r="0.3374425259856281" fill="#ffffff" opacity="0.2532469349279547" />
<circle cx="497.4932906807732" cy="196.94995809534376" r="0.3314847740952105" fill="#ffffff" opacity="0.9207643883857692" />
<circle cx="524.1662699677973" cy="106.35702421951714" r="0.9191536851430728" fill="#ffffff" opacity="0.34872432479785076" />
<circle cx="464.02999543376745" cy="105.70411164326597" r="0.3385789109563511" fill="#ffffff" opacity="0.3145243953198906" />
<circle cx="272.3795444513856" cy="145.65365713817226" r="0.33090481634345037" fill="#ffffff" opacity="0.327634476682239" />
<circle cx="613.2010364711822" cy="206.39955168008643" r="0.6666432831974238" fill="#ffffff" opacity="0.7345299297934786" />
<circle cx="1263.093465898233" cy="236.7584063472856" r="0.6873205124591966" fill="#ffffff" opacity="0.911297959980299" />
<circle cx="1089.9582103458497" cy="180.20216950401513" r="0.668365541111936" fill="#ffffff" opacity="0.6857891646542951" />
<circle cx="137.50501557429644" cy="136.8999474332363" r="0.9821004488087217" fill="#ffffff" opacity="0.9432105434187033" />
<circle cx="849.5339743790878" cy="203.90482839552405" r="0.458470010996169" fill="#ffffff" opacity="0.47287489477891775" />
<circle cx="988.54047827324" cy="45.938797957642684" r="0.8150373902640238" fill="#ffffff" opacity="0.6135388760504392" />
<circle cx="918.2274755399826" cy="203.55687043075903" r="0.5472767147546822" fill="#ffffff" opacity="0.8431304035215055" />
<circle cx="789.5384202048166" cy="155.17767359453157" r="0.9296688183912836" fill="#ffffff" opacity="0.810471027455899" />
<circle cx="35.294773006062975" cy="240.35926019837476" r="0.7403590577213923" fill="#ffffff" opacity="0.872106334153417" />
<circle cx="260.24172498447206" cy="257.16337570670817" r="0.2903632047247426" fill="#ffffff" opacity="0.9519883361561268" />
<circle cx="775.1356262745267" cy="123.46189952326351" r="0.6872656367945016" fill="#ffffff" opacity="0.47010866584214955" />
<circle cx="1052.3184368034176" cy="27.38459845172898" r="0.554808041687127" fill="#ffffff" opacity="0.23702902088230005" />
<circle cx="1017.2548407577891" cy="183.71047320004544" r="0.6008864900613067" fill="#ffffff" opacity="0.731050368170135" />
<circle cx="323.63483509169066" cy="211.91561858036104" r="0.9173277265898077" fill="#ffffff" opacity="0.8325532537713753" />
<circle cx="416.9201271484648" cy="252.67711177953" r="0.8281109935254944" fill="#ffffff" opacity="0.447724181468113" />
<circle cx="833.9334441889181" cy="107.8535354022527" r="0.7930594073071278" fill="#ffffff" opacity="0.2489132815638353" />
<circle cx="358.0134511021657" cy="264.74507539235" r="0.9849828895915771" fill="#ffffff" opacity="0.6423967925054375" />
<circle cx="1698.264159028298" cy="79.34067942126174" r="0.45281810050317256" fill="#ffffff" opacity="0.7885336574258153" />
<circle cx="929.4677002177039" cy="193.95270004898165" r="0.3284504918100024" fill="#ffffff" opacity="0.9450891863420432" />
<circle cx="1514.0554359686967" cy="115.12704263727747" r="0.75741664901949" fill="#ffffff" opacity="0.4448228471766674" />
<circle cx="380.41101812032923" cy="187.87428764283035" r="0.814661537730059" fill="#ffffff" opacity="0.31927883729177786" />
<circle cx="1329.058061090174" cy="64.81997426798996" r="0.32724626950753183" fill="#ffffff" opacity="0.5102363097228653" />

  </g>

  <!-- Layer 2: Midground Stars (Medium) -->
  <g style="animation: scroll-medium 60s linear infinite;">
    <circle cx="1103.869733682258" cy="209.46841720897854" r="1.3705397650959275" fill="#00f0ff" opacity="0.5254948725255189" />
<circle cx="1112.2998305474384" cy="278.8868356508827" r="1.125492258369763" fill="#00f0ff" opacity="0.8320089080233557" />
<circle cx="1143.1213346704114" cy="189.76535014110743" r="0.36572834285197664" fill="#00f0ff" opacity="0.820771453907682" />
<circle cx="573.8130966616957" cy="17.800162731246782" r="0.5420387602153415" fill="#00f0ff" opacity="0.6648015625134007" />
<circle cx="791.8418105596426" cy="24.08873909988376" r="0.7935519386525904" fill="#00f0ff" opacity="0.8004472441599686" />
<circle cx="1477.7122286552446" cy="89.58743775474785" r="0.25239223271182476" fill="#00f0ff" opacity="0.2751067506312973" />
<circle cx="1164.7829202187897" cy="188.62873324466563" r="1.21595186647891" fill="#00f0ff" opacity="0.33787957487229897" />
<circle cx="888.4885944497933" cy="119.18681138794034" r="1.1183439291786892" fill="#00f0ff" opacity="0.931623084495572" />
<circle cx="29.669304190695065" cy="225.60833156045913" r="1.2954689667738155" fill="#00f0ff" opacity="0.8061497433210476" />
<circle cx="1456.8995076604076" cy="53.6772328478459" r="0.7383123178951816" fill="#00f0ff" opacity="0.6363259306369162" />
<circle cx="914.7094842918641" cy="282.86804974788197" r="1.10536121443811" fill="#00f0ff" opacity="0.8758198453604482" />
<circle cx="1213.0736497789826" cy="77.02843612025461" r="0.865116582937228" fill="#00f0ff" opacity="0.6203778947663423" />
<circle cx="783.3492481145846" cy="260.35878100059244" r="0.30112584749929644" fill="#00f0ff" opacity="0.397052091500663" />
<circle cx="233.6289034938729" cy="103.22986602055708" r="0.2566531624010763" fill="#00f0ff" opacity="0.27445338012011145" />
<circle cx="1481.0173970355236" cy="7.112603462460065" r="0.7714431502156631" fill="#00f0ff" opacity="0.3745101273999558" />
<circle cx="676.6464523493323" cy="52.77201522557367" r="1.6747083247166248" fill="#00f0ff" opacity="0.6449052188429747" />
<circle cx="1073.615433004158" cy="44.667400317598926" r="0.43194878558346045" fill="#00f0ff" opacity="0.22551041008201508" />
<circle cx="1441.221921260968" cy="260.08401096830323" r="0.5834765443031769" fill="#00f0ff" opacity="0.351766555038339" />
<circle cx="74.02640763765713" cy="211.92400074373566" r="0.2459737275955728" fill="#00f0ff" opacity="0.7838258780019032" />
<circle cx="565.8368399438953" cy="228.13836968909374" r="0.5418011687237393" fill="#00f0ff" opacity="0.8255339804393831" />
<circle cx="1613.1828670291095" cy="216.07981361186904" r="0.7699460216284204" fill="#00f0ff" opacity="0.32261266637656344" />
<circle cx="33.28626729138022" cy="227.46777089434923" r="0.7355530282220231" fill="#00f0ff" opacity="0.31055629034120297" />
<circle cx="552.0617632401141" cy="18.706862688232462" r="0.547046447869425" fill="#00f0ff" opacity="0.6153054893626764" />
<circle cx="88.8823374440074" cy="159.04995402040393" r="0.47310281545609334" fill="#00f0ff" opacity="0.6308079842469598" />
<circle cx="254.78585449549203" cy="197.0650087584883" r="1.2573563384918403" fill="#00f0ff" opacity="0.9306470832140665" />
<circle cx="1129.9460701975277" cy="237.21394076119992" r="0.9395356510172221" fill="#00f0ff" opacity="0.5576494001435695" />
<circle cx="109.79730978568153" cy="14.347616410724262" r="1.0881259936433956" fill="#00f0ff" opacity="0.4078924988081413" />
<circle cx="1419.0678005577552" cy="186.64544938789487" r="0.6819802814489068" fill="#00f0ff" opacity="0.4929410519929978" />
<circle cx="1072.0298241646233" cy="81.13899444271333" r="0.3633536813542581" fill="#00f0ff" opacity="0.23540747967877734" />
<circle cx="16.605022063830898" cy="181.15538031632337" r="0.34202269922816597" fill="#00f0ff" opacity="0.24822831667035203" />
<circle cx="14.987020483089776" cy="244.03380859743203" r="1.5358214843503364" fill="#00f0ff" opacity="0.9383122323161033" />
<circle cx="526.133802937136" cy="30.340673766532454" r="0.6122147675564641" fill="#00f0ff" opacity="0.8680847683752038" />
<circle cx="732.3230487897421" cy="210.02819659914945" r="1.028569825800207" fill="#00f0ff" opacity="0.6489291854111846" />
<circle cx="1237.9358203801564" cy="9.9565830644479" r="1.128144486004012" fill="#00f0ff" opacity="0.5281971928167818" />
<circle cx="894.2844337973054" cy="284.35360598995373" r="1.2538464988359246" fill="#00f0ff" opacity="0.863383253370944" />
<circle cx="1496.3395470416242" cy="74.74622877711961" r="1.151885847078493" fill="#00f0ff" opacity="0.7637774623304625" />
<circle cx="1579.1231122252584" cy="222.19533532617075" r="1.2091902588627492" fill="#00f0ff" opacity="0.8336342675206168" />
<circle cx="1290.8322087687854" cy="99.31892255056768" r="0.9575336265755503" fill="#00f0ff" opacity="0.7151459162370917" />
<circle cx="1115.8976100140944" cy="159.31229744540477" r="1.6553794578677845" fill="#00f0ff" opacity="0.4987047314729889" />
<circle cx="1060.3918164009153" cy="219.22389797312928" r="1.4796583167624544" fill="#00f0ff" opacity="0.576651964313781" />
<circle cx="1287.6089164646976" cy="156.26461155130625" r="0.9068676176346506" fill="#00f0ff" opacity="0.9343640413199341" />
<circle cx="1645.9272592331629" cy="204.9549830736293" r="0.31551063498608956" fill="#00f0ff" opacity="0.5859557892465365" />
<circle cx="28.62845901355514" cy="158.07917022578818" r="0.9707216747576348" fill="#00f0ff" opacity="0.5930798980009717" />
<circle cx="1478.0011436874292" cy="112.49281121215833" r="0.7664980796318082" fill="#00f0ff" opacity="0.5620185183482196" />
<circle cx="1368.3649147424856" cy="80.61786793804806" r="0.3166170117008182" fill="#00f0ff" opacity="0.693355826643078" />
<circle cx="1557.8279219416377" cy="143.09710450434105" r="1.2033588230454204" fill="#00f0ff" opacity="0.9999296362907701" />
<circle cx="449.96923838706226" cy="92.3751335943882" r="0.4133962205689777" fill="#00f0ff" opacity="0.8818437280255098" />
<circle cx="921.2937922867288" cy="48.15818577737" r="1.60815496349201" fill="#00f0ff" opacity="0.6085198744941662" />
<circle cx="1375.8540344463981" cy="248.97485737053844" r="1.5102465454333973" fill="#00f0ff" opacity="0.28676529533002704" />
<circle cx="855.0324029463422" cy="15.35387944069443" r="0.5784492853854304" fill="#00f0ff" opacity="0.3246845641794079" />
<circle cx="604.7145963842657" cy="179.02414410331536" r="0.3275922959244704" fill="#00f0ff" opacity="0.9213066502762228" />
<circle cx="571.841072558966" cy="208.16742201817374" r="0.3847133582133148" fill="#00f0ff" opacity="0.6619405977291228" />
<circle cx="1346.3857616133876" cy="168.05387149185233" r="1.346303807255196" fill="#00f0ff" opacity="0.6340948843106247" />
<circle cx="1065.7086311007085" cy="23.435469543521414" r="1.5433238277979824" fill="#00f0ff" opacity="0.6743719463961467" />
<circle cx="815.5168051175935" cy="271.3298492404358" r="0.5111932261515042" fill="#00f0ff" opacity="0.8257473091267731" />
<circle cx="39.29474975567576" cy="218.40678931197547" r="0.8467374240747143" fill="#00f0ff" opacity="0.254919697968198" />
<circle cx="1168.1057193017236" cy="211.2937703111964" r="0.7098298727468648" fill="#00f0ff" opacity="0.6074663524236712" />
<circle cx="71.96953125220396" cy="164.57591123494063" r="1.089998448030577" fill="#00f0ff" opacity="0.6282212803422618" />
<circle cx="935.8935439412863" cy="179.48958679486947" r="1.0266336793194772" fill="#00f0ff" opacity="0.4537010450164345" />
<circle cx="1545.5850420884667" cy="75.05586058054918" r="0.30289521043033246" fill="#00f0ff" opacity="0.7757417595935725" />
<circle cx="1623.5773590733654" cy="51.64512549411108" r="0.8083362249695614" fill="#00f0ff" opacity="0.3748673901741696" />
<circle cx="561.5188754747227" cy="80.21665164728464" r="1.5085939546512617" fill="#00f0ff" opacity="0.3578854239130757" />
<circle cx="420.88726748704937" cy="19.35968809506545" r="1.6272899379377699" fill="#00f0ff" opacity="0.23933429103961945" />
<circle cx="1097.7885246000114" cy="101.43953551837163" r="1.6800154077485316" fill="#00f0ff" opacity="0.23196226363523673" />
<circle cx="1259.0249060890317" cy="82.46125979337886" r="0.516411579333978" fill="#00f0ff" opacity="0.9477963086546277" />
<circle cx="153.38506342194896" cy="93.03702291264217" r="0.297724190551094" fill="#00f0ff" opacity="0.43024950862122857" />
<circle cx="71.19405937491979" cy="295.4396276342702" r="0.9486055260821975" fill="#00f0ff" opacity="0.593009280453807" />
<circle cx="338.6374623016142" cy="155.23291089939363" r="1.6154455562313057" fill="#00f0ff" opacity="0.6059844926187125" />
<circle cx="561.688726574606" cy="109.24238678238842" r="1.0489190814785914" fill="#00f0ff" opacity="0.8259266874083941" />
<circle cx="1104.259859636766" cy="58.12466288090485" r="0.37384747402932655" fill="#00f0ff" opacity="0.6823407852720769" />
<circle cx="690.5732442358408" cy="228.59237817623497" r="1.5683833424484361" fill="#00f0ff" opacity="0.8432433990051917" />
<circle cx="881.9869120367262" cy="18.794358297034698" r="0.8978068750884427" fill="#00f0ff" opacity="0.8109420435946599" />
<circle cx="755.71292764569" cy="247.39846158491733" r="0.7345020251646406" fill="#00f0ff" opacity="0.33686586764225945" />
<circle cx="1026.1013813994552" cy="241.84657919577202" r="0.909760280631235" fill="#00f0ff" opacity="0.8821372438355171" />
<circle cx="1322.2460349891905" cy="197.2667350901813" r="1.3944466190693467" fill="#00f0ff" opacity="0.7930483692457324" />
<circle cx="1391.9809594555575" cy="255.74407741472425" r="0.9598527442168163" fill="#00f0ff" opacity="0.6808329352405285" />
<circle cx="857.2675608164499" cy="181.642431547658" r="0.3248225080794505" fill="#00f0ff" opacity="0.9964024963162776" />
<circle cx="649.4691632669415" cy="155.69411904700198" r="0.6285105477658974" fill="#00f0ff" opacity="0.8287098902590715" />
<circle cx="1137.0435222384942" cy="115.25777582507037" r="0.6154261757074224" fill="#00f0ff" opacity="0.3590520942028177" />
<circle cx="1268.3852729960345" cy="244.55950371951442" r="1.4147589853604987" fill="#00f0ff" opacity="0.3808608196696153" />
<circle cx="1155.6901203610519" cy="170.1824793796913" r="1.19151854265906" fill="#00f0ff" opacity="0.99852264207739" />
<circle cx="57.66010578117092" cy="213.8507457444081" r="0.8271723214470712" fill="#00f0ff" opacity="0.583301320622006" />
<circle cx="1634.6886798866792" cy="221.2107606615574" r="1.4903720598018022" fill="#00f0ff" opacity="0.7170290729237909" />
<circle cx="1297.490076568287" cy="163.7000415886535" r="0.24056345921651218" fill="#00f0ff" opacity="0.7769130907022459" />
<circle cx="20.185882838676218" cy="252.2352012809293" r="0.21822862157413275" fill="#00f0ff" opacity="0.33834762289907633" />
<circle cx="571.7490321617117" cy="224.21878944657513" r="0.3614791658446401" fill="#00f0ff" opacity="0.9237582457257447" />
<circle cx="930.0658042566513" cy="217.5485001845131" r="0.8457585140282251" fill="#00f0ff" opacity="0.8370864973634793" />
<circle cx="1102.0257831371898" cy="170.8324313050546" r="0.5127428899172146" fill="#00f0ff" opacity="0.4790668479464231" />
<circle cx="1548.794363050703" cy="115.4609378812509" r="1.678387022357703" fill="#00f0ff" opacity="0.7035562753364413" />
<circle cx="281.57369977191627" cy="48.24241284774718" r="1.5872098807819153" fill="#00f0ff" opacity="0.5588235583972688" />
<circle cx="1010.5119039215098" cy="273.9911560736223" r="0.2725313109723965" fill="#00f0ff" opacity="0.8940483315712888" />
<circle cx="1431.1949300502606" cy="258.97828937361675" r="1.0003009883206981" fill="#00f0ff" opacity="0.7404592486466146" />
<circle cx="163.03379589672022" cy="129.0535874252257" r="1.0037920590809635" fill="#00f0ff" opacity="0.3319783975221211" />
<circle cx="1363.2846513895563" cy="94.99989911660043" r="0.9940588788156872" fill="#00f0ff" opacity="0.726948785051643" />
<circle cx="1555.2818309549261" cy="22.562396048854904" r="1.1808449210115721" fill="#00f0ff" opacity="0.7636691095228125" />
<circle cx="1555.789322434507" cy="86.88719554831488" r="0.7069106753925047" fill="#00f0ff" opacity="0.9154199571475286" />
<circle cx="797.2691230746256" cy="211.1652788918342" r="1.09341795370067" fill="#00f0ff" opacity="0.9067498022270422" />
<circle cx="1445.1641187362138" cy="189.76573716169867" r="1.4350050211291532" fill="#00f0ff" opacity="0.39670308152139655" />
<circle cx="1328.2000113063777" cy="25.945218021284" r="1.6300460514030617" fill="#00f0ff" opacity="0.649795763851298" />
<circle cx="476.3564706800163" cy="27.727349101310082" r="1.4573994741822442" fill="#00f0ff" opacity="0.38186483197425736" />
<circle cx="1572.1306801465166" cy="110.10219615014223" r="0.9029738622030254" fill="#00f0ff" opacity="0.5550784452545896" />
<circle cx="1248.4044145860823" cy="197.805990639823" r="0.8765772776938319" fill="#00f0ff" opacity="0.6259317710985066" />
<circle cx="633.4826249375404" cy="108.12758490124197" r="1.5326455133406884" fill="#00f0ff" opacity="0.262882582534757" />
<circle cx="816.9149318310118" cy="13.292147819641709" r="0.33415576241372524" fill="#00f0ff" opacity="0.9369353258565707" />
<circle cx="1280.889226278067" cy="23.45238614755143" r="0.4674806071034386" fill="#00f0ff" opacity="0.7451999276235965" />
<circle cx="604.0512254252131" cy="272.3328034707569" r="1.4893197116915204" fill="#00f0ff" opacity="0.5415269230125337" />
<circle cx="669.2871353725246" cy="265.96176337299954" r="0.7363985060572553" fill="#00f0ff" opacity="0.6270752138778144" />
<circle cx="859.5554884254807" cy="184.38840794957184" r="1.4668439327607878" fill="#00f0ff" opacity="0.9612584795677963" />
<circle cx="748.8387593123542" cy="6.431026123816375" r="0.658891493207443" fill="#00f0ff" opacity="0.7541582086954863" />
<circle cx="721.3140940882109" cy="66.73221214115847" r="0.5139549582102256" fill="#00f0ff" opacity="0.6421363354179488" />
<circle cx="359.4204961313743" cy="237.2452655468548" r="1.387944688943591" fill="#00f0ff" opacity="0.9686751325451108" />
<circle cx="989.7995985554346" cy="196.72804276960554" r="1.6694771376183273" fill="#00f0ff" opacity="0.2096721999550714" />
<circle cx="264.83441299946406" cy="110.3053264574772" r="1.0231111097141088" fill="#00f0ff" opacity="0.5954011607420358" />
<circle cx="1452.1357855495405" cy="34.33480468620831" r="0.5140968585956527" fill="#00f0ff" opacity="0.5304651504036226" />
<circle cx="1300.2879216598126" cy="187.31175218555802" r="0.6570843703829867" fill="#00f0ff" opacity="0.7772568141753846" />
<circle cx="119.82467397063704" cy="217.47204332524257" r="1.6530744601952823" fill="#00f0ff" opacity="0.8093370961294031" />
<circle cx="1337.4039979034133" cy="12.115037694335717" r="0.422485643901937" fill="#00f0ff" opacity="0.8432015309068437" />
<circle cx="231.6912587404596" cy="94.61570077856734" r="1.6335029471920128" fill="#00f0ff" opacity="0.8095500376390792" />
<circle cx="1135.5939972876138" cy="179.47982598873114" r="1.5304416210136065" fill="#00f0ff" opacity="0.3157792445803888" />
<circle cx="1137.288788019296" cy="217.2612624941529" r="0.39186935382658905" fill="#00f0ff" opacity="0.33045908823395137" />
<circle cx="467.1528729097219" cy="293.0253834345504" r="1.1476205319638098" fill="#00f0ff" opacity="0.8689065507533882" />
<circle cx="1441.9893216240146" cy="238.52386837408608" r="0.5799544552811413" fill="#00f0ff" opacity="0.609184554827519" />
<circle cx="1370.0437524764375" cy="272.08827648782653" r="0.6607985751514704" fill="#00f0ff" opacity="0.48522605814493547" />
<circle cx="1442.2779274133643" cy="233.5348345207405" r="0.8397072882407675" fill="#00f0ff" opacity="0.9316305400719316" />
<circle cx="938.9180741931858" cy="81.26804113572057" r="0.6938425322399104" fill="#00f0ff" opacity="0.3033296763922721" />
<circle cx="218.6451994337038" cy="213.99828373132829" r="1.3933949649288822" fill="#00f0ff" opacity="0.34189808977671343" />
<circle cx="676.664146280123" cy="181.2608177951781" r="0.3849527737431438" fill="#00f0ff" opacity="0.5152281648982195" />
<circle cx="7.301379728484236" cy="222.35494299826482" r="0.9235605324563825" fill="#00f0ff" opacity="0.5412394210474991" />
<circle cx="709.2477472836583" cy="142.80618999241747" r="1.321008099231497" fill="#00f0ff" opacity="0.4539795487355711" />
<circle cx="1347.6312572358077" cy="35.474307172700456" r="1.1408551670289637" fill="#00f0ff" opacity="0.7604702046345364" />
<circle cx="1565.3046190857333" cy="265.89770531759484" r="0.616859323945252" fill="#00f0ff" opacity="0.8008744617997867" />
<circle cx="216.50461142692598" cy="263.2383228030318" r="0.5285682742646394" fill="#00f0ff" opacity="0.6826182614115914" />
<circle cx="846.6987101415266" cy="289.062633833835" r="1.1226250194669962" fill="#00f0ff" opacity="0.7754557445554859" />
<circle cx="584.84627387242" cy="57.33435687503516" r="0.8180596362252597" fill="#00f0ff" opacity="0.5334250640670863" />
<circle cx="613.5272249924637" cy="21.207883376195102" r="0.5213514336177658" fill="#00f0ff" opacity="0.2465427555671" />
<circle cx="989.8427665440735" cy="158.41688319625908" r="1.3551109862107862" fill="#00f0ff" opacity="0.6431979000099501" />
<circle cx="75.35821787007086" cy="26.42449960499992" r="0.41123222577109736" fill="#00f0ff" opacity="0.43428110795822994" />
<circle cx="1559.422645258609" cy="100.3399000083666" r="0.7181047742859086" fill="#00f0ff" opacity="0.2971608232309275" />
<circle cx="1362.4367616801176" cy="84.10211512484096" r="0.29448235128745803" fill="#00f0ff" opacity="0.23530944458795658" />
<circle cx="1105.429942137196" cy="137.9968231056383" r="1.5983718583345008" fill="#00f0ff" opacity="0.8496526079337339" />
<circle cx="392.1373575403533" cy="91.30177698534165" r="1.3109024515503416" fill="#00f0ff" opacity="0.916831978066539" />
<circle cx="99.92680360536964" cy="24.157476278886413" r="0.6957400516420875" fill="#00f0ff" opacity="0.23164999863159821" />
<circle cx="1558.0507035552016" cy="215.1197912892667" r="1.5018896304369507" fill="#00f0ff" opacity="0.48304531097370024" />
<circle cx="776.210176398822" cy="85.07685906863945" r="1.0128358806222921" fill="#00f0ff" opacity="0.7136767768301204" />
<circle cx="1229.827333551512" cy="295.28746250898337" r="0.758265706682187" fill="#00f0ff" opacity="0.20980011508658514" />
<circle cx="1173.9387836099272" cy="220.74913005959468" r="0.6304168116422726" fill="#00f0ff" opacity="0.6627803211054744" />
<circle cx="944.1569868571008" cy="101.41587136691274" r="0.4476209906609939" fill="#00f0ff" opacity="0.20329708970128824" />
<circle cx="1340.404093822236" cy="6.321852332340649" r="0.6936025611876202" fill="#00f0ff" opacity="0.9469884627756495" />
<circle cx="565.362630019886" cy="39.09611489582242" r="0.49039423582465314" fill="#00f0ff" opacity="0.8362251144901987" />
<circle cx="705.4809996132385" cy="82.97094955096948" r="1.2371726066454953" fill="#00f0ff" opacity="0.6877732678689308" />

  </g>

  <!-- Layer 3: Foreground Stars (Fast) -->
  <g style="animation: scroll-fast 30s linear infinite;">
    <circle cx="73.0564917956736" cy="283.1604329013636" r="0.5843369683925796" fill="#ff007f" opacity="0.8868582774673766" />
<circle cx="694.7110632859308" cy="78.32633054354554" r="1.5117774344220947" fill="#ff007f" opacity="0.25501087498823516" />
<circle cx="791.3894883942829" cy="290.4194558129235" r="0.3501657250599872" fill="#ff007f" opacity="0.9799393658166446" />
<circle cx="323.32875926851517" cy="216.40686191014836" r="1.1784728057643223" fill="#ff007f" opacity="0.32085847638668724" />
<circle cx="353.02547156856417" cy="17.701367561881487" r="0.5418204481714679" fill="#ff007f" opacity="0.665439197762518" />
<circle cx="204.55987738028125" cy="129.3689093103913" r="0.8194222902059871" fill="#ff007f" opacity="0.9805121096949538" />
<circle cx="1356.1405504108377" cy="264.3616615459368" r="1.2897973950653718" fill="#ff007f" opacity="0.4214009079494851" />
<circle cx="1293.8761549546991" cy="152.77744619842184" r="1.5360219545129257" fill="#ff007f" opacity="0.7808645916896555" />
<circle cx="1558.0063532472377" cy="213.35770712701805" r="0.7355263994355175" fill="#ff007f" opacity="0.22278237623999353" />
<circle cx="364.83129850683764" cy="46.14422640574386" r="1.504103904523966" fill="#ff007f" opacity="0.5874888275129131" />
<circle cx="1066.6326320529884" cy="22.007088221840153" r="0.5736363585365718" fill="#ff007f" opacity="0.31771650954387276" />
<circle cx="181.27177520709594" cy="125.08869157393676" r="0.6072661235394432" fill="#ff007f" opacity="0.3333736813276986" />
<circle cx="71.69152083559226" cy="48.401750415186925" r="0.7959603545530347" fill="#ff007f" opacity="0.8494188173140269" />
<circle cx="1390.0732559927817" cy="77.48216492170506" r="2.345965184269618" fill="#ff007f" opacity="0.8727295215812791" />
<circle cx="523.6502574882684" cy="86.16563604721547" r="0.5452867688944183" fill="#ff007f" opacity="0.9277235515466573" />
<circle cx="710.8491618902713" cy="194.80587773961273" r="1.7187467153974245" fill="#ff007f" opacity="0.3280851443332051" />
<circle cx="372.4219489562747" cy="217.90567902252462" r="2.3795494467777396" fill="#ff007f" opacity="0.6426196021944343" />
<circle cx="73.96659798295707" cy="29.941807554510035" r="0.20245692550363276" fill="#ff007f" opacity="0.3242364160919664" />
<circle cx="653.0380801862709" cy="172.43853230515967" r="1.0264528655231184" fill="#ff007f" opacity="0.7975508185831914" />
<circle cx="530.0540555577614" cy="14.556848521116006" r="0.8536522523180718" fill="#ff007f" opacity="0.3554728982105549" />
<circle cx="1377.276676934713" cy="86.6107719913505" r="0.4669455458597353" fill="#ff007f" opacity="0.678168658816154" />
<circle cx="291.83602649345625" cy="199.3636642950524" r="2.043428682959636" fill="#ff007f" opacity="0.6987628494409597" />
<circle cx="1317.6490929156257" cy="245.88763231531985" r="0.6322767956055754" fill="#ff007f" opacity="0.6267404038924116" />
<circle cx="1357.5740092799197" cy="194.30844353263493" r="0.7330828940637979" fill="#ff007f" opacity="0.2164569460282106" />
<circle cx="708.2263343387605" cy="230.0519825437841" r="2.6893514253271578" fill="#ff007f" opacity="0.3183498499804082" />
<circle cx="28.65266603637884" cy="127.06612244460273" r="0.6500974041442105" fill="#ff007f" opacity="0.5578468505234767" />
<circle cx="97.47790646402156" cy="234.34487821122397" r="0.34784210182960973" fill="#ff007f" opacity="0.9608865006379965" />
<circle cx="533.9734248462618" cy="102.96367250543742" r="1.61489046548824" fill="#ff007f" opacity="0.5419424691554818" />
<circle cx="1676.9124397009698" cy="204.42067081359855" r="2.5127912708233167" fill="#ff007f" opacity="0.25979436096743475" />
<circle cx="195.59828092545087" cy="47.939234423918755" r="0.6570955356142199" fill="#ff007f" opacity="0.7229880934540014" />
<circle cx="1673.1340121694434" cy="56.36445610487558" r="2.5493645287727764" fill="#ff007f" opacity="0.841175275166977" />
<circle cx="1271.84779223723" cy="294.00109764546465" r="0.4238665003612936" fill="#ff007f" opacity="0.5304932139107492" />
<circle cx="47.733370716371034" cy="157.81649204157523" r="1.8335633849532813" fill="#ff007f" opacity="0.2663249212610769" />
<circle cx="855.6776447668916" cy="128.0523766741009" r="0.3345005263020571" fill="#ff007f" opacity="0.43505603511487234" />
<circle cx="522.6470655145204" cy="68.08437997541625" r="2.0587776401346836" fill="#ff007f" opacity="0.4784346451384428" />
<circle cx="1408.5810113911887" cy="155.28499021069734" r="0.49087403479068464" fill="#ff007f" opacity="0.5937752631635584" />
<circle cx="629.0187010814478" cy="50.424458235886306" r="2.6305828071104265" fill="#ff007f" opacity="0.6394843456361201" />
<circle cx="308.3317397489055" cy="203.03639390775913" r="1.1382456206205136" fill="#ff007f" opacity="0.2888417069800129" />
<circle cx="450.3083137245285" cy="254.77221702770208" r="1.2818981989061877" fill="#ff007f" opacity="0.6819658449216572" />
<circle cx="1009.1264197322158" cy="137.88784040158646" r="2.6330485186919264" fill="#ff007f" opacity="0.5820454563240294" />
<circle cx="1600.5670260914637" cy="65.3347755588909" r="2.569944514251092" fill="#ff007f" opacity="0.3974918344477398" />
<circle cx="1426.482794459369" cy="237.25584049702056" r="1.5431306430164937" fill="#ff007f" opacity="0.8652473058975807" />
<circle cx="131.24603300418698" cy="3.157667104409978" r="0.7760512263012169" fill="#ff007f" opacity="0.24177028725510816" />
<circle cx="63.57276595400987" cy="11.267246676811183" r="0.8346977513095963" fill="#ff007f" opacity="0.8093095345799224" />
<circle cx="894.2442215756113" cy="156.50159444745364" r="1.6645661679848678" fill="#ff007f" opacity="0.3824062504489285" />
<circle cx="68.7989356755073" cy="113.38671381990736" r="2.118398047474097" fill="#ff007f" opacity="0.6807847251790231" />
<circle cx="416.90296653737425" cy="143.17498913045736" r="0.7404959475809068" fill="#ff007f" opacity="0.32888311307755846" />
<circle cx="919.5467214150809" cy="70.62873677476637" r="0.7309940879120846" fill="#ff007f" opacity="0.9304226769696071" />
<circle cx="1010.4697779974977" cy="19.424398310956303" r="1.6250269827111805" fill="#ff007f" opacity="0.6757165049284342" />
<circle cx="1263.1498481139954" cy="72.01792385513724" r="0.43483920296626605" fill="#ff007f" opacity="0.8386028204620766" />
<circle cx="1031.7754179070564" cy="263.2599133495806" r="0.6835448536068764" fill="#ff007f" opacity="0.37605342025047267" />
<circle cx="368.94809175390833" cy="256.73717848937207" r="1.4959767600798153" fill="#ff007f" opacity="0.40066567644089846" />
<circle cx="278.5219999311918" cy="136.1274761049981" r="2.5615889763965876" fill="#ff007f" opacity="0.6471319239345446" />
<circle cx="1581.1039879361033" cy="22.098199814087327" r="1.7640417823079584" fill="#ff007f" opacity="0.4982418945476117" />
<circle cx="364.3854068190631" cy="11.154712765120022" r="2.379197930371672" fill="#ff007f" opacity="0.4430223090204738" />
<circle cx="1396.5817725062468" cy="155.52159928324963" r="0.5373814984903056" fill="#ff007f" opacity="0.6509258473088133" />
<circle cx="1648.8308900660033" cy="280.9114884184221" r="0.8513915459013999" fill="#ff007f" opacity="0.35501152151122173" />
<circle cx="1424.0451571944216" cy="183.59668784566153" r="0.40816486275304914" fill="#ff007f" opacity="0.8835192990518754" />
<circle cx="148.19181511742337" cy="225.45733627041247" r="2.438053738976172" fill="#ff007f" opacity="0.5984992365524269" />
<circle cx="1565.8693138383405" cy="293.9495956457078" r="1.3325345594551854" fill="#ff007f" opacity="0.7305541161102658" />
<circle cx="888.5737821001611" cy="133.81266717089002" r="1.310114611566908" fill="#ff007f" opacity="0.2087404255975936" />
<circle cx="1598.5256881174048" cy="242.15620414017238" r="1.953619179988905" fill="#ff007f" opacity="0.9114654178189479" />
<circle cx="341.88587178670036" cy="152.6415582610281" r="0.2672238225185795" fill="#ff007f" opacity="0.9275498794211061" />
<circle cx="789.2820138266657" cy="47.384323327781054" r="0.9875177427941626" fill="#ff007f" opacity="0.5652521178741443" />
<circle cx="939.5163331748358" cy="134.66932274597917" r="0.8204610319099834" fill="#ff007f" opacity="0.2085259735025929" />
<circle cx="1463.7069697936458" cy="129.16966763950776" r="1.331019221520192" fill="#ff007f" opacity="0.3370771610005499" />
<circle cx="417.73912707563875" cy="94.52563304595444" r="1.0736527608884812" fill="#ff007f" opacity="0.8063184543900634" />
<circle cx="448.07516749336696" cy="58.219266797676795" r="1.224707586300897" fill="#ff007f" opacity="0.9169650778840297" />
<circle cx="407.2782962720951" cy="199.0535418342409" r="0.2739549322946115" fill="#ff007f" opacity="0.3438592434888271" />
<circle cx="1690.7736573091242" cy="179.7479971258915" r="2.134350917496055" fill="#ff007f" opacity="0.35613283460131995" />

  </g>

  <!-- Shooting Stars / Meteors -->
  
    <g style="animation: meteor 2.4796821261030098s 1.5049244723548294s linear infinite;">
      <line x1="0" y1="0" x2="-121.23562310519176" y2="121.23562310519176" stroke="url(#meteor-gradient)" stroke-width="2" />
      <circle cx="0" cy="0" r="1.5" fill="#ffffff" filter="url(#glow)" />
    </g>
    
    <g style="animation: meteor 1.8744602163806698s 3.0316449815709112s linear infinite;">
      <line x1="0" y1="0" x2="-107.86597385620523" y2="107.86597385620523" stroke="url(#meteor-gradient)" stroke-width="2" />
      <circle cx="0" cy="0" r="1.5" fill="#ffffff" filter="url(#glow)" />
    </g>
    
    <g style="animation: meteor 2.359892856624676s 6.341371789512701s linear infinite;">
      <line x1="0" y1="0" x2="-61.74930419404656" y2="61.74930419404656" stroke="url(#meteor-gradient)" stroke-width="2" />
      <circle cx="0" cy="0" r="1.5" fill="#ffffff" filter="url(#glow)" />
    </g>
    
    <g style="animation: meteor 1.607517507140531s 7.993772402076997s linear infinite;">
      <line x1="0" y1="0" x2="-110.62959555250146" y2="110.62959555250146" stroke="url(#meteor-gradient)" stroke-width="2" />
      <circle cx="0" cy="0" r="1.5" fill="#ffffff" filter="url(#glow)" />
    </g>
    
    <g style="animation: meteor 1.7904019843583816s 3.4577140700528286s linear infinite;">
      <line x1="0" y1="0" x2="-98.80333250626143" y2="98.80333250626143" stroke="url(#meteor-gradient)" stroke-width="2" />
      <circle cx="0" cy="0" r="1.5" fill="#ffffff" filter="url(#glow)" />
    </g>
    
    <g style="animation: meteor 2.54482036481038s 6.820963048677325s linear infinite;">
      <line x1="0" y1="0" x2="-83.91819288770297" y2="83.91819288770297" stroke="url(#meteor-gradient)" stroke-width="2" />
      <circle cx="0" cy="0" r="1.5" fill="#ffffff" filter="url(#glow)" />
    </g>
    
    <g style="animation: meteor 1.2646149357246015s 5.351679384260709s linear infinite;">
      <line x1="0" y1="0" x2="-56.28224279705021" y2="56.28224279705021" stroke="url(#meteor-gradient)" stroke-width="2" />
      <circle cx="0" cy="0" r="1.5" fill="#ffffff" filter="url(#glow)" />
    </g>
    
    <g style="animation: meteor 2.3822902294703443s 9.668520468735784s linear infinite;">
      <line x1="0" y1="0" x2="-86.5814579089338" y2="86.5814579089338" stroke="url(#meteor-gradient)" stroke-width="2" />
      <circle cx="0" cy="0" r="1.5" fill="#ffffff" filter="url(#glow)" />
    </g>
    

  <!-- Text Section -->
  <g transform="translate(425, 140)">
    <text y="0" class="title-glow" filter="url(#glow)">TRAN NGUYEN GIA HUY</text>
    <text y="0" class="title">TRAN NGUYEN GIA HUY</text>
    
    <text y="45" class="subtitle">CYBERNETIC ENGINEER | FULL-STACK DEVELOPER</text>
  </g>
</svg>
