
<svg xmlns="http://www.w3.org/2000/svg" width="850" height="100" viewBox="0 0 850 100">
  <defs>
    <radialGradient id="space-bg" cx="50%" cy="0%" r="100%">
      <stop offset="0%" stop-color="#0a051d" />
      <stop offset="50%" stop-color="#05020f" />
      <stop offset="100%" stop-color="#000000" />
    </radialGradient>
    <style>
      @keyframes scroll-medium {
        from { transform: translateX(0); }
        to { transform: translateX(-850px); }
      }
      .footer-text {
        font-family: 'Orbitron', 'Courier New', sans-serif;
        font-size: 12px;
        fill: #00f0ff;
        opacity: 0.6;
        letter-spacing: 4px;
        text-anchor: middle;
      }
    </style>
  </defs>
  
  <rect width="850" height="100" fill="url(#space-bg)" />
  
  <g style="animation: scroll-medium 60s linear infinite;">
    <circle cx="1061.8161274819106" cy="275.7702527195779" r="1.299525953920739" fill="#00f0ff" opacity="0.7066908787264679" />
<circle cx="453.75753917327063" cy="281.3205631214821" r="1.3021563468448993" fill="#00f0ff" opacity="0.21131899935716386" />
<circle cx="491.17005286529024" cy="82.31837197908172" r="0.5983572657711451" fill="#00f0ff" opacity="0.25965948955497" />
<circle cx="1117.808813075438" cy="224.75767198930404" r="1.2198927625779044" fill="#00f0ff" opacity="0.6964609679224321" />
<circle cx="1457.0649344217054" cy="34.39251234685779" r="1.3319204618565925" fill="#00f0ff" opacity="0.7601862368020103" />
<circle cx="888.4853416185609" cy="210.8628459368433" r="0.3485160920914785" fill="#00f0ff" opacity="0.775681025722464" />
<circle cx="1580.066133596378" cy="136.0016273969055" r="1.097886813220192" fill="#00f0ff" opacity="0.4144782698032809" />
<circle cx="1106.9167754682476" cy="258.53026787170484" r="1.5978984202830826" fill="#00f0ff" opacity="0.9407249327864056" />
<circle cx="1430.975212314963" cy="241.17046478966333" r="1.6852292368583826" fill="#00f0ff" opacity="0.9999862489408649" />
<circle cx="702.6040688108121" cy="24.883372015308602" r="1.1096236059780946" fill="#00f0ff" opacity="0.7081335233988268" />
<circle cx="239.2299171429617" cy="167.1113502269418" r="0.8014873023831148" fill="#00f0ff" opacity="0.32610366359506343" />
<circle cx="951.4776094365243" cy="139.29426024812705" r="1.241537573791058" fill="#00f0ff" opacity="0.29275387327973673" />
<circle cx="825.7718542419993" cy="59.50084894802855" r="0.5743091422315101" fill="#00f0ff" opacity="0.2133644138945714" />
<circle cx="1335.0837840409972" cy="94.00558287586665" r="0.8029273270621224" fill="#00f0ff" opacity="0.34260636398661004" />
<circle cx="695.9986491238797" cy="244.62681717567835" r="0.6583832553796997" fill="#00f0ff" opacity="0.3397452064603893" />
<circle cx="1475.1355115166507" cy="9.703802339426016" r="1.233428740385369" fill="#00f0ff" opacity="0.9809517152595595" />
<circle cx="1409.9830685470372" cy="214.11232729532452" r="1.0291927460102201" fill="#00f0ff" opacity="0.4356115759629102" />
<circle cx="439.095828895535" cy="56.42749872472138" r="0.7689773693227695" fill="#00f0ff" opacity="0.8439092275466802" />
<circle cx="1651.1816247824515" cy="244.07581413965303" r="1.1003091500657745" fill="#00f0ff" opacity="0.850883445761135" />
<circle cx="863.8103430936704" cy="63.367023175679634" r="1.4542247861003827" fill="#00f0ff" opacity="0.9997291684019163" />
<circle cx="409.96842802909003" cy="121.1526863111483" r="1.3160042094936584" fill="#00f0ff" opacity="0.7831490887550723" />
<circle cx="1425.7845874855561" cy="197.06020709510196" r="0.9548914539761431" fill="#00f0ff" opacity="0.2644503818389371" />
<circle cx="1482.008898342062" cy="287.8281084145474" r="0.2412813744483866" fill="#00f0ff" opacity="0.521660097118742" />
<circle cx="297.9975000426542" cy="71.75611728465789" r="0.30739583034759066" fill="#00f0ff" opacity="0.6286721848936059" />
<circle cx="360.53168179127107" cy="299.9620647032639" r="0.4748593515726045" fill="#00f0ff" opacity="0.35602864062353795" />
<circle cx="502.8105691014742" cy="116.9589078397601" r="0.3867881805627165" fill="#00f0ff" opacity="0.9711435835500957" />
<circle cx="347.37915639379025" cy="279.41040427867364" r="0.938035498068678" fill="#00f0ff" opacity="0.42695520938579784" />
<circle cx="1685.2924146870569" cy="32.536900602313644" r="0.7448354596478857" fill="#00f0ff" opacity="0.7261385855768168" />
<circle cx="984.9473528636587" cy="279.05759171304237" r="0.23863140723660703" fill="#00f0ff" opacity="0.8364489686199321" />
<circle cx="61.375475117180464" cy="265.753452524149" r="0.8164357383733798" fill="#00f0ff" opacity="0.32856651650314395" />
<circle cx="1544.4113515596782" cy="70.80159157599236" r="1.3797439067209603" fill="#00f0ff" opacity="0.9703452124257603" />
<circle cx="911.1237662356066" cy="5.650179934596034" r="1.168230454843115" fill="#00f0ff" opacity="0.2849762659025092" />
<circle cx="16.02616919212999" cy="77.81232678030409" r="1.6844014775130243" fill="#00f0ff" opacity="0.5611570166911743" />
<circle cx="1377.9179854895337" cy="133.66369514920694" r="1.2819516222754297" fill="#00f0ff" opacity="0.6403169893875564" />
<circle cx="574.0173109923106" cy="114.21539819904642" r="1.4561308527850998" fill="#00f0ff" opacity="0.23212640185391253" />
<circle cx="1031.8382350608192" cy="21.405691381206392" r="1.1646947701740622" fill="#00f0ff" opacity="0.3266356104601711" />
<circle cx="822.9942852993443" cy="190.75212278548278" r="0.9259533946422531" fill="#00f0ff" opacity="0.5995253231296226" />
<circle cx="1117.0364311276744" cy="207.33505734356544" r="1.1824291016746116" fill="#00f0ff" opacity="0.3637836587365228" />
<circle cx="1024.687273913016" cy="163.30440568126895" r="1.6953839058064897" fill="#00f0ff" opacity="0.4358675238069502" />
<circle cx="935.4486436451837" cy="141.61776595112877" r="0.8547813311155736" fill="#00f0ff" opacity="0.8841771891468537" />
<circle cx="672.7932788457683" cy="65.22086375809036" r="1.2584681450767452" fill="#00f0ff" opacity="0.6441002894635484" />
<circle cx="1302.4760712065547" cy="136.10759649011052" r="1.5917954621526769" fill="#00f0ff" opacity="0.6726035172450009" />
<circle cx="1266.9299965804294" cy="181.3908469715105" r="1.056749900299423" fill="#00f0ff" opacity="0.4430897016885572" />
<circle cx="1089.246812256116" cy="140.09898727721622" r="0.7886547062459415" fill="#00f0ff" opacity="0.35512467710137763" />
<circle cx="425.6272369362038" cy="169.94679729617" r="0.43678093691387426" fill="#00f0ff" opacity="0.38708405595078565" />
<circle cx="1158.4449005390354" cy="250.70436898394632" r="0.2672282173015" fill="#00f0ff" opacity="0.8059469340154981" />
<circle cx="318.0949954791337" cy="56.64964444076457" r="1.461553547111932" fill="#00f0ff" opacity="0.845062843504546" />
<circle cx="1475.359657032247" cy="208.32472911857678" r="1.1450580729010256" fill="#00f0ff" opacity="0.20742693652781885" />
<circle cx="1230.7306737853492" cy="252.94791789566094" r="1.3523089405231572" fill="#00f0ff" opacity="0.24990521540203325" />
<circle cx="1401.9999458090072" cy="168.18124028750157" r="0.6851760368228308" fill="#00f0ff" opacity="0.414311466311308" />
<circle cx="1381.0080638190873" cy="227.244011764531" r="1.5707725833594384" fill="#00f0ff" opacity="0.23968411857673308" />
<circle cx="1259.8168958128106" cy="230.04292696082032" r="0.3400956088288895" fill="#00f0ff" opacity="0.6379779217796873" />
<circle cx="580.0598095154925" cy="268.99960920556566" r="1.5012408777891453" fill="#00f0ff" opacity="0.27220184077315834" />
<circle cx="603.9216736308286" cy="223.27573123706046" r="1.1720370631467254" fill="#00f0ff" opacity="0.9543173708050812" />
<circle cx="1027.5671684056647" cy="126.32972003008156" r="0.5771671698303901" fill="#00f0ff" opacity="0.28354379577861466" />
<circle cx="255.68017078426044" cy="130.70684648529357" r="1.5486974270616614" fill="#00f0ff" opacity="0.488548549243596" />
<circle cx="477.19338945786546" cy="146.41933694522737" r="1.6183224056396976" fill="#00f0ff" opacity="0.5124611783804527" />
<circle cx="877.691310056132" cy="148.30786939937545" r="0.2481495763435158" fill="#00f0ff" opacity="0.39855549677799385" />
<circle cx="726.0503177369096" cy="162.33722609787878" r="1.0885097096972547" fill="#00f0ff" opacity="0.3790854589696191" />
<circle cx="802.1203067439047" cy="131.68724279707791" r="0.5246235102052057" fill="#00f0ff" opacity="0.31095804151999157" />
<circle cx="711.8012128991929" cy="292.23377806117924" r="1.5977287091970014" fill="#00f0ff" opacity="0.8823317339823338" />
<circle cx="149.01647925675047" cy="82.81282929397132" r="0.7174637496523277" fill="#00f0ff" opacity="0.4662590309178368" />
<circle cx="1200.8747378863761" cy="29.0907373486905" r="1.6498552722813846" fill="#00f0ff" opacity="0.6891094636644783" />
<circle cx="1286.4530242514052" cy="72.48896521688805" r="1.0167076942046869" fill="#00f0ff" opacity="0.5142473050255658" />
<circle cx="1564.0773450378626" cy="213.72403708361188" r="1.2629554822854754" fill="#00f0ff" opacity="0.5845926732178951" />
<circle cx="335.6518959693598" cy="31.113850756752203" r="0.7544938677777477" fill="#00f0ff" opacity="0.3675506061689058" />
<circle cx="644.3421644316251" cy="32.11786249544577" r="1.3873827619407213" fill="#00f0ff" opacity="0.9702587275623669" />
<circle cx="231.1873197069369" cy="106.83065273447849" r="1.2488776194288045" fill="#00f0ff" opacity="0.918659215355448" />
<circle cx="32.72998871040554" cy="63.37755345748717" r="0.33837822903501463" fill="#00f0ff" opacity="0.735196832863745" />
<circle cx="611.3573781095073" cy="180.98918532053224" r="1.4165421913335958" fill="#00f0ff" opacity="0.6498185970343213" />
<circle cx="200.98314587146277" cy="227.67170648301254" r="1.5422366183248506" fill="#00f0ff" opacity="0.7443392311757882" />
<circle cx="272.2612456252391" cy="195.2453658442159" r="1.4738623034796516" fill="#00f0ff" opacity="0.9009557365287952" />
<circle cx="350.08079891639693" cy="133.07614253814842" r="1.3367597928424564" fill="#00f0ff" opacity="0.8458848465723194" />
<circle cx="222.61945008002633" cy="135.64873741582207" r="1.2063424664361484" fill="#00f0ff" opacity="0.8515436202305342" />
<circle cx="771.5091950686774" cy="208.15126008491674" r="1.4079854092534834" fill="#00f0ff" opacity="0.5957968715832511" />
<circle cx="462.9487071543181" cy="26.18637717628649" r="1.6649393553257794" fill="#00f0ff" opacity="0.29229964682302223" />
<circle cx="638.2531762399595" cy="112.9954260731026" r="1.1278793843693922" fill="#00f0ff" opacity="0.39447247983881495" />
<circle cx="1098.1747191969398" cy="204.89892518213637" r="0.5701822529531058" fill="#00f0ff" opacity="0.9381405345184706" />
<circle cx="1022.8613955445716" cy="99.36590683290744" r="1.3296731331425289" fill="#00f0ff" opacity="0.5192856737141003" />
<circle cx="1124.6101623222369" cy="125.58104903609389" r="0.40647338869303806" fill="#00f0ff" opacity="0.25945313985456686" />
<circle cx="944.936688501678" cy="17.720695909600593" r="1.2139614057337524" fill="#00f0ff" opacity="0.4938308701229155" />
<circle cx="1414.7267404037082" cy="84.88096344089264" r="1.6065606762283346" fill="#00f0ff" opacity="0.26243178084423574" />
<circle cx="606.7206797572562" cy="271.52851892117565" r="1.2372908808746435" fill="#00f0ff" opacity="0.6612009782898879" />
<circle cx="1494.9049948017923" cy="296.66939596101065" r="1.3850498025593665" fill="#00f0ff" opacity="0.6585435530811893" />
<circle cx="1261.6619853803868" cy="123.12845974369999" r="0.6246662160735901" fill="#00f0ff" opacity="0.3071459781863671" />
<circle cx="714.4917739649762" cy="5.864142181432374" r="1.5666267150419688" fill="#00f0ff" opacity="0.5521087276066654" />
<circle cx="800.3416055081908" cy="203.66483859962952" r="0.3237390192565277" fill="#00f0ff" opacity="0.7856796278614788" />
<circle cx="191.59964162894113" cy="159.81610489288488" r="1.326469015827296" fill="#00f0ff" opacity="0.6098900597693913" />
<circle cx="209.5374485199877" cy="111.72640676706959" r="0.36852808471397636" fill="#00f0ff" opacity="0.4463058521117711" />
<circle cx="8.890372867514074" cy="98.84845407699589" r="0.8443249385165448" fill="#00f0ff" opacity="0.5591313642495841" />
<circle cx="1569.3506378628197" cy="148.58883178637788" r="1.1744984280212538" fill="#00f0ff" opacity="0.38642758250287007" />
<circle cx="467.28612883184684" cy="93.19214333379261" r="0.5432340980256323" fill="#00f0ff" opacity="0.4608201169937887" />
<circle cx="198.25116059601442" cy="106.76654880633235" r="1.5614463237629719" fill="#00f0ff" opacity="0.3753147644346312" />
<circle cx="795.6946626617904" cy="64.03532532522287" r="0.49886200078806187" fill="#00f0ff" opacity="0.6615895830337302" />
<circle cx="86.08081864179388" cy="78.08517933152449" r="1.1322355063441685" fill="#00f0ff" opacity="0.3275404890656832" />
<circle cx="1433.7964938081539" cy="250.67808034108657" r="0.8591665352452615" fill="#00f0ff" opacity="0.4914941760965779" />
<circle cx="755.4256817616117" cy="153.95882202752406" r="1.5833375191577772" fill="#00f0ff" opacity="0.3799665774695899" />
<circle cx="1056.0606712009426" cy="172.75969544132985" r="1.5223830334133155" fill="#00f0ff" opacity="0.9918074189288857" />
<circle cx="1320.011099372652" cy="4.594631131616889" r="0.8521248815601619" fill="#00f0ff" opacity="0.5611928102395681" />
<circle cx="534.0499531481167" cy="147.19091780425217" r="1.302135342947966" fill="#00f0ff" opacity="0.3623768756032779" />

  </g>
  
  <text x="50%" y="60%" class="footer-text">END OF SYSTEM TRANSMISSION</text>
</svg>
